<svg xmlns="http://www.w3.org/2000/svg" viewBox="0 0 60 60"><defs><style>.cls-1{fill:#ffe45c;}.cls-2{fill:#ffc247;}.cls-3{fill:#dce1eb;}.cls-4{fill:#e9edf5;}.cls-5{fill:#bec3d2;}.cls-6{fill:#fff;}.cls-7{fill:#2b1505;}</style></defs><title>40-Phone Call</title><g id="_40-Phone_Call" data-name="40-Phone Call"><circle class="cls-1" cx="30" cy="30" r="29"/><path class="cls-2" d="M44.552,4.919a29,29,0,0,1-32.1,48.162,29,29,0,1,0,32.1-48.162Z"/><path class="cls-3" d="M37.374,37.339,35.96,35.925l4.95-4.95L52.224,42.289l-5.657,5.656s-8.486,7.072-13.435,2.122l-29.7-29.7C-1.517,15.419,5.555,6.933,5.555,6.933l5.656-5.657L22.525,12.59l-4.95,4.95-1.414-1.414-1.414,4.242,9.192,9.193,9.193,9.192Z"/><path class="cls-4" d="M49.4,39.46l-5.657,5.657S35.253,52.188,30.3,47.238l2.829,2.829c4.949,4.95,13.435-2.122,13.435-2.122l5.657-5.656Z"/><rect class="cls-5" x="6.393" y="5.908" width="16" height="7" transform="translate(10.868 -7.422) rotate(45)"/><rect class="cls-5" x="36.092" y="35.607" width="16" height="7" transform="translate(40.567 -19.724) rotate(45)"/><circle class="cls-6" cx="34" cy="21" r="2"/><circle class="cls-6" cx="42" cy="21" r="2"/><path class="cls-7" d="M30,0A29.965,29.965,0,0,0,15.24,3.891L11.918.569a1.029,1.029,0,0,0-1.414,0L4.786,6.293c-.291.35-6.606,8.056-3.029,13.582A30,30,0,1,0,30,0ZM6.262,7.641,11.211,2.69l9.9,9.9-3.536,3.536L14.04,12.59A1,1,0,0,0,12.626,14L15.017,16.4,13.8,20.052a1,1,0,0,0,.241,1.023l9.192,9.193,9.193,9.192a1,1,0,0,0,.707.293.987.987,0,0,0,.316-.052L37.1,38.483,39.5,40.874A1,1,0,1,0,40.91,39.46l-3.536-3.535,3.536-3.536,9.9,9.9-4.884,4.888c-.077.065-7.833,6.437-12.087,2.182l-29.7-29.7C-.1,15.418,6.259,7.651,6.262,7.641ZM30,58A27.944,27.944,0,0,1,3.3,21.644L32.425,50.773a6.88,6.88,0,0,0,5.047,2.068c4.707,0,9.48-3.917,9.8-4.189L52.931,43a1,1,0,0,0,0-1.414L41.617,30.268a1,1,0,0,0-1.414,0l-4.95,4.95a1,1,0,0,0,0,1.414l.27.27-2.121.706-8.756-8.754L15.892,20.1l.706-2.121.27.27a1,1,0,0,0,1.414,0l4.95-4.95a1,1,0,0,0,0-1.414L16.713,5.364A28,28,0,1,1,30,58Z"/><path class="cls-7" d="M32,14a.994.994,0,0,0-.993.986A1.007,1.007,0,0,0,31.987,16a2.945,2.945,0,0,1,2.52,2.051A3.036,3.036,0,0,0,34,18a3,3,0,1,0,3,3C37,14.08,32.05,14,32,14Zm2,8a1,1,0,1,1,1-1A1,1,0,0,1,34,22Z"/><path class="cls-7" d="M40,14a.994.994,0,0,0-.993.986A1.007,1.007,0,0,0,39.987,16a2.945,2.945,0,0,1,2.52,2.051A3.036,3.036,0,0,0,42,18a3,3,0,1,0,3,3C45,14.08,40.05,14,40,14Zm2,8a1,1,0,1,1,1-1A1,1,0,0,1,42,22Z"/></g></svg>