<?xml version="1.0" encoding="iso-8859-1"?>
<!-- Generator: Adobe Illustrator 19.0.0, SVG Export Plug-In . SVG Version: 6.00 Build 0)  -->
<svg version="1.1" id="Layer_1" xmlns="http://www.w3.org/2000/svg" xmlns:xlink="http://www.w3.org/1999/xlink" x="0px" y="0px"
	 viewBox="0 0 512 512" style="enable-background:new 0 0 512 512;" xml:space="preserve">
<polygon style="fill:#D6D0CC;" points="496.813,187.247 256,38.383 15.187,187.247 15.187,430.972 496.813,430.972 "/>
<path style="fill:#B1E9F9;" d="M438.503,39.505c0-16.341,11.251-29.587,25.129-29.587c17.348,0,31.412,16.558,31.412,36.983
	c0,25.531-30.256,50.494-56.541,63.931c-26.284-13.438-56.541-38.399-56.541-63.931c0-20.425,14.064-36.983,31.412-36.983
	C427.252,9.918,438.503,23.166,438.503,39.505z"/>
<path style="fill:#F97177;" d="M414.001,189.664c0,3.176-0.172,6.338-0.49,9.5c-7.013,67.983-87.328,133.267-157.508,169.151
	c-70.193-35.884-150.508-101.168-157.521-169.151c-0.318-3.162-0.49-6.325-0.49-9.5c0-57.081,39.298-103.351,87.778-103.351
	c38.781,0,70.233,37.008,70.233,82.684c0-45.675,31.438-82.684,70.219-82.684C374.704,86.313,414.001,132.583,414.001,189.664z"/>
<path style="fill:#E54253;" d="M413.511,199.164c-7.013,67.983-87.328,133.267-157.508,169.151
	c-70.193-35.884-150.508-101.168-157.521-169.151l99.024,63.71l58.496-40.568l58.496,40.568L413.511,199.164z"/>
<polygon style="fill:#EAE2DC;" points="496.813,187.247 314.495,304.552 256,263.989 197.504,304.552 15.187,187.247 
	15.187,430.972 496.813,430.972 "/>
<path style="fill:#F9EFAA;" d="M162.709,430.743c0-16.341,11.251-29.587,25.129-29.587c17.348,0,31.412,16.558,31.412,36.983
	c0,25.531-30.256,50.494-56.541,63.931c-26.286-13.438-56.541-38.399-56.541-63.931c0-20.425,14.064-36.983,31.412-36.983
	C151.458,401.156,162.709,414.403,162.709,430.743z"/>
<path d="M433.986,119.675c1.418,0.725,2.968,1.088,4.517,1.088c1.549,0,3.099-0.363,4.517-1.088
	c15.539-7.944,29.998-18.361,40.712-29.333c14.09-14.432,21.237-29.046,21.237-43.434C504.967,21.042,486.424,0,463.632,0
	c-9.846,0-18.757,4.599-25.129,11.992C432.13,4.599,423.219,0,413.374,0c-22.793,0-41.335,21.042-41.335,46.907
	c0,14.389,7.145,29.002,21.238,43.434C403.989,101.312,418.445,111.731,433.986,119.675z M413.374,19.847
	c8.242,0,15.206,9.005,15.206,19.663c0,5.48,4.442,9.924,9.924,9.924s9.924-4.443,9.924-9.924c0-10.658,6.964-19.663,15.206-19.663
	c11.849,0,21.488,12.14,21.488,27.06c0,18.682-23.373,39.759-46.617,52.685c-23.244-12.926-46.617-34.004-46.617-52.685
	C391.885,31.987,401.524,19.847,413.374,19.847z"/>
<path d="M187.838,391.238c-9.846,0-18.757,4.599-25.129,11.992c-6.372-7.392-15.284-11.992-25.129-11.992
	c-22.793,0-41.335,21.042-41.335,46.908c0,14.389,7.145,29.002,21.238,43.434c10.714,10.972,25.17,21.389,40.711,29.333
	c1.418,0.725,2.968,1.088,4.517,1.088c1.549,0,3.099-0.363,4.517-1.088c15.539-7.944,29.998-18.361,40.712-29.333
	c14.092-14.432,21.238-29.046,21.238-43.434C229.176,412.28,210.632,391.238,187.838,391.238z M162.709,490.83
	c-23.244-12.926-46.617-34.004-46.617-52.684c0-14.921,9.639-27.061,21.488-27.061c8.242,0,15.206,9.005,15.206,19.663
	c0,5.48,4.442,9.924,9.924,9.924s9.924-4.443,9.924-9.924c0-10.659,6.964-19.663,15.206-19.663c11.849,0,21.489,12.14,21.489,27.061
	C209.329,456.827,185.954,477.905,162.709,490.83z"/>
<path d="M98.265,220.272c0.662,0,1.335-0.066,2.009-0.205c5.369-1.104,8.827-6.35,7.723-11.718
	c-1.219-5.928-1.837-11.83-1.837-17.542c0-52.145,35.365-94.568,78.833-94.568c33.681,0,61.083,33.05,61.083,73.673
	c0,5.48,4.442,9.924,9.924,9.924c5.482,0,9.924-4.443,9.924-9.924c0-40.623,27.401-73.673,61.082-73.673
	c43.471,0,78.834,42.423,78.834,94.568c0,5.715-0.618,11.616-1.837,17.541c-1.105,5.368,2.351,10.616,7.721,11.719
	c5.369,1.106,10.614-2.353,11.718-7.721c1.49-7.238,2.244-14.486,2.244-21.54c0-63.089-44.269-114.415-98.682-114.415
	c-30.573,0-57.243,19.695-71.005,48.68c-13.763-28.985-40.434-48.68-71.007-48.68c-54.413,0-98.68,51.326-98.68,114.415
	c0,7.052,0.754,14.298,2.241,21.538C89.52,217.039,93.652,220.272,98.265,220.272z"/>
<path d="M502.068,178.846c-0.013-0.008-0.024-0.025-0.037-0.033l-59.912-37.048c-4.66-2.882-10.777-1.442-13.659,3.222
	c-2.883,4.661-1.441,10.777,3.222,13.659l46.466,28.733L413.296,228.7c-0.148,0.095-0.296,0.195-0.441,0.298l-78.517,50.039
	c-4.62,2.945-5.981,9.079-3.035,13.701c1.893,2.969,5.101,4.591,8.378,4.591c1.825,0,3.67-0.503,5.323-1.556l78.942-50.309
	c0.152-0.097,0.302-0.197,0.447-0.302l62.495-39.82V412.02L261.654,255.84c-3.401-2.358-7.908-2.358-11.309,0l-52.242,36.224
	l-98.94-63.053c-0.15-0.108-0.303-0.212-0.459-0.311l-64.853-41.321l46.465-28.733c4.661-2.883,6.104-8.999,3.222-13.66
	c-2.883-4.661-9-6.101-13.659-3.221L9.969,178.813c-0.013,0.008-0.024,0.025-0.037,0.033c-2.8,1.755-4.668,4.859-4.668,8.407
	v243.725c0,5.48,4.442,9.924,9.924,9.924h62.281c5.482,0,9.924-4.443,9.924-9.924s-4.442-9.924-9.924-9.924H46.914l58.18-40.343
	c4.504-3.123,5.623-9.306,2.501-13.81c-3.12-4.504-9.304-5.625-13.81-2.501L25.112,412.02V205.342l62.484,39.812
	c0.148,0.107,0.302,0.21,0.458,0.31l92.366,58.864l-60.504,41.954c-4.504,3.123-5.623,9.306-2.501,13.81
	c3.121,4.504,9.306,5.623,13.81,2.501l72.813-50.489c0.028-0.02,0.056-0.038,0.083-0.058l51.881-35.974l209.084,144.981H248.146
	c-5.482,0-9.924,4.443-9.924,9.924c0,5.48,4.442,9.924,9.924,9.924h248.667c5.482,0,9.924-4.443,9.924-9.924V187.253
	C506.737,183.705,504.868,180.6,502.068,178.846z"/>
<path d="M216.492,72.745c1.781,0,3.584-0.479,5.211-1.485l34.299-21.206l34.297,21.206c4.66,2.88,10.777,1.441,13.659-3.222
	c2.883-4.661,1.441-10.777-3.222-13.659L261.22,29.947c-3.198-1.977-7.238-1.978-10.438,0L211.264,54.38
	c-4.66,2.882-6.104,8.997-3.222,13.659C209.919,71.076,213.167,72.745,216.492,72.745z"/>
<g>
</g>
<g>
</g>
<g>
</g>
<g>
</g>
<g>
</g>
<g>
</g>
<g>
</g>
<g>
</g>
<g>
</g>
<g>
</g>
<g>
</g>
<g>
</g>
<g>
</g>
<g>
</g>
<g>
</g>
</svg>
