<?xml version="1.0" encoding="iso-8859-1"?>
<!-- Generator: Adobe Illustrator 19.0.0, SVG Export Plug-In . SVG Version: 6.00 Build 0)  -->
<svg version="1.1" id="Layer_1" xmlns="http://www.w3.org/2000/svg" xmlns:xlink="http://www.w3.org/1999/xlink" x="0px" y="0px"
	 viewBox="0 0 512 512" style="enable-background:new 0 0 512 512;" xml:space="preserve">
<g>
	<path style="fill:#FFC667;" d="M257.582,472.423c-0.365,0-0.729-0.04-1.096-0.118c-2.321-0.508-3.973-2.543-3.973-4.897v-64.174
		h-21.279c-2.798,0-5.067-2.243-5.067-5.014v-79.214c0-2.77,2.268-5.013,5.067-5.013h46.611c2.799,0,5.067,2.243,5.067,5.013v44.121
		h21.28c1.728,0,3.341,0.874,4.271,2.317c0.931,1.444,1.053,3.257,0.324,4.811l-46.612,99.269
		C261.331,471.318,259.518,472.423,257.582,472.423z"/>
	<path style="fill:#FFC667;" d="M268.052,383.179h-16.386c-2.842,0-5.145-2.279-5.145-5.092v-64.06h-15.646
		c-2.628,0.185-4.708,2.329-4.708,4.978v79.214c0,2.77,2.268,5.014,5.067,5.014h21.279v64.174c0,2.354,1.652,4.389,3.973,4.897
		c0.367,0.078,0.731,0.118,1.096,0.118c1.937,0,3.749-1.106,4.592-2.902l11.103-23.646v-57.473
		C273.276,385.517,270.938,383.179,268.052,383.179z"/>
</g>
<path style="opacity:0.1;enable-background:new    ;" d="M268.052,383.179h-16.386c-2.842,0-5.145-2.279-5.145-5.092v-64.06h-15.646
	c-2.628,0.185-4.708,2.329-4.708,4.978v79.214c0,2.77,2.268,5.014,5.067,5.014h21.279v64.174c0,2.354,1.652,4.389,3.973,4.897
	c0.367,0.078,0.731,0.118,1.096,0.118c1.937,0,3.749-1.106,4.592-2.902l11.103-23.646v-57.473
	C273.276,385.517,270.938,383.179,268.052,383.179z"/>
<path style="fill:#BCBCB3;" d="M408.946,130.555h-12.004c1.076-5.979,1.67-12.122,1.67-18.408
	c0-57.609-47.193-104.31-105.408-104.31c-40.244,0-75.211,22.325-92.97,55.137c-11.195-5.601-23.838-8.776-37.241-8.776
	c-44.958,0-81.508,35.519-82.621,79.743c-31.159,9.563-53.79,38.311-53.79,72.29c0,41.795,34.238,75.677,76.474,75.677h305.891
	c42.236,0,76.472-33.882,76.472-75.677C485.418,164.437,451.182,130.555,408.946,130.555z"/>
<path style="opacity:0.1;enable-background:new    ;" d="M293.203,7.837c-40.244,0-75.211,22.324-92.969,55.137
	c-11.196-5.601-23.84-8.777-37.242-8.777c-44.958,0-81.507,35.519-82.62,79.745c-31.16,9.563-53.79,38.311-53.79,72.289
	c0,15.855,4.935,30.564,13.356,42.723c-1.965-6.703-3.04-13.783-3.04-21.115c0-32.571,20.8-60.322,49.967-70.989l0.009-0.015
	c0.187-0.068,0.371-0.143,0.559-0.209c1.934-0.687,3.275-2.458,3.413-4.505c0.044-0.659,0.181-1.992,0.181-1.992
	c3.826-41.668,39.179-74.325,82.283-74.325c9.568,0,18.741,1.635,27.286,4.601c1.947,0.677,3.881,1.402,5.785,2.229
	c0.665,0.289,1.359,0.427,2.047,0.427c1.76,0,3.46-0.907,4.414-2.5c0.663-1.105,4.24-6.47,4.827-7.284
	c19.109-26.523,50.428-43.833,85.851-43.833c37.817,0,70.977,19.711,89.577,49.313C379.026,37.523,339.618,7.837,293.203,7.837z"/>
<path style="fill:#EA8153;" d="M143.002,222.926c-18.368,7.608-24.537,13.777-32.146,32.146
	c-7.608-18.369-13.776-24.537-32.145-32.146c18.369-7.608,24.536-13.777,32.145-32.146
	C118.464,209.149,124.633,215.317,143.002,222.926z"/>
<path style="fill:#FFC667;" d="M198.087,280.539c-13.741,5.691-18.355,10.306-24.048,24.048
	c-5.691-13.741-10.306-18.357-24.048-24.048c13.741-5.692,18.357-10.307,24.048-24.049
	C179.732,270.233,184.345,274.848,198.087,280.539z"/>
<path style="fill:#FFFFFF;" d="M192.009,154.93c-13.743,5.692-18.356,10.307-24.049,24.048
	c-5.692-13.74-10.306-18.356-24.048-24.048c13.741-5.692,18.356-10.307,24.048-24.048
	C173.653,144.622,178.266,149.238,192.009,154.93z"/>
<path d="M105.811,314.976c-4.329,0-7.837,3.508-7.837,7.837v178.623c0,4.329,3.508,7.837,7.837,7.837s7.837-3.508,7.837-7.837
	V322.813C113.647,318.485,110.139,314.976,105.811,314.976z"/>
<path d="M158.17,429.975c-4.329,0-7.837,3.508-7.837,7.837v63.625c0,4.329,3.508,7.837,7.837,7.837c4.329,0,7.837-3.508,7.837-7.837
	v-63.625C166.007,433.483,162.499,429.975,158.17,429.975z"/>
<path d="M158.17,359.974c-4.329,0-7.837,3.508-7.837,7.837v38.655c0,4.329,3.508,7.837,7.837,7.837c4.329,0,7.837-3.508,7.837-7.837
	V367.81C166.007,363.481,162.499,359.974,158.17,359.974z"/>
<path d="M207.774,455.421c-4.329,0-7.837,3.508-7.837,7.837v38.18c0,4.329,3.508,7.837,7.837,7.837c4.329,0,7.837-3.508,7.837-7.837
	v-38.18C215.61,458.929,212.102,455.421,207.774,455.421z"/>
<path d="M257.377,493.6c-4.329,0-7.837,3.508-7.837,7.837v2.726c0,4.329,3.508,7.837,7.837,7.837c4.329,0,7.837-3.508,7.837-7.837
	v-2.726C265.214,497.108,261.706,493.6,257.377,493.6z"/>
<path d="M306.982,441.786c-4.329,0-7.837,3.508-7.837,7.837v51.814c0,4.329,3.508,7.837,7.837,7.837
	c4.329,0,7.837-3.508,7.837-7.837v-51.814C314.818,445.294,311.311,441.786,306.982,441.786z"/>
<path d="M356.586,359.974c-4.329,0-7.837,3.508-7.837,7.837v133.627c0,4.329,3.508,7.837,7.837,7.837
	c4.329,0,7.837-3.508,7.837-7.837V367.81C364.423,363.481,360.914,359.974,356.586,359.974z"/>
<path d="M406.189,411.167c-4.328,0-7.837,3.508-7.837,7.837v82.433c0,4.329,3.509,7.837,7.837,7.837
	c4.329,0,7.837-3.508,7.837-7.837v-82.433C414.026,414.675,410.518,411.167,406.189,411.167z"/>
<path d="M406.189,319.067c-4.328,0-7.837,3.508-7.837,7.837v58.664c0,4.329,3.509,7.837,7.837,7.837
	c4.329,0,7.837-3.508,7.837-7.837v-58.664C414.026,322.576,410.518,319.067,406.189,319.067z"/>
<path d="M408.946,122.718h-3.015c0.343-3.543,0.516-7.076,0.516-10.571C406.448,50.309,355.647,0,293.203,0
	c-39.356,0-75.564,20.105-96.178,52.932c-10.798-4.366-22.213-6.572-34.032-6.572c-23.76,0-46.205,9.053-63.201,25.491
	C84.14,86.99,74.692,106.845,72.843,128.248c-14.706,5.616-27.805,15.399-37.301,27.954C24.553,170.73,18.745,188.03,18.745,206.23
	c0,46.049,37.821,83.513,84.311,83.513h18.152c4.329,0,7.837-3.508,7.837-7.837s-3.508-7.837-7.837-7.837h-18.153
	c-37.847,0-68.637-30.433-68.637-67.84c0-29.9,19.391-55.94,48.252-64.798c3.221-0.988,5.45-3.927,5.536-7.295
	c0.487-19.349,8.471-37.468,22.483-51.02c14.057-13.596,32.632-21.084,52.304-21.084c11.843,0,23.193,2.675,33.735,7.947
	c3.785,1.896,8.386,0.443,10.398-3.278c17.035-31.474,50.019-51.029,86.077-51.029c53.801,0,97.572,43.278,97.572,96.473
	c0,5.599-0.52,11.325-1.544,17.019c-0.413,2.284,0.211,4.635,1.7,6.416c1.489,1.781,3.691,2.81,6.012,2.81h12.004
	c37.846,0,68.635,30.433,68.635,67.839c0,37.407-30.79,67.84-68.635,67.84H228.832c-4.329,0-7.837,3.508-7.837,7.837
	s3.508,7.837,7.837,7.837h180.114c46.487,0,84.309-37.464,84.309-83.513C493.255,160.182,455.433,122.718,408.946,122.718z"/>
<path d="M205.923,280.539c0-3.169-1.909-6.028-4.838-7.24c-11.778-4.88-14.925-8.027-19.807-19.808
	c-1.213-2.929-4.071-4.838-7.24-4.838c-3.17,0-6.027,1.91-7.241,4.839c-4.879,11.78-8.026,14.927-19.806,19.807
	c-2.929,1.212-4.838,4.07-4.838,7.24s1.91,6.027,4.839,7.241c11.78,4.879,14.926,8.025,19.805,19.805
	c1.213,2.929,4.07,4.839,7.241,4.839c3.169,0,6.027-1.909,7.24-4.838c4.882-11.781,8.029-14.928,19.806-19.806
	C204.013,286.567,205.923,283.711,205.923,280.539z M174.039,288.021c-2.151-2.914-4.567-5.329-7.481-7.48
	c2.914-2.154,5.33-4.567,7.481-7.481c2.152,2.915,4.565,5.329,7.48,7.481C178.605,282.692,176.192,285.105,174.039,288.021z"/>
<path d="M304.192,355.288h-13.444v-1.068c0-4.329-3.508-7.837-7.837-7.837c-4.329,0-7.837,3.508-7.837,7.837v8.905
	c0,4.329,3.508,7.837,7.837,7.837h16.883l-39.445,84.005v-51.733c0-4.329-3.508-7.837-7.837-7.837h-18.509v-73.568h41.071v5.224
	c0,4.329,3.508,7.837,7.837,7.837c4.329,0,7.837-3.508,7.837-7.837v-8.048c0-7.085-5.789-12.85-12.903-12.85h-46.611
	c-7.115,0-12.903,5.765-12.903,12.85v79.214c0,7.085,5.789,12.851,12.903,12.851h13.443v56.338c0,5.987,4.261,11.266,10.166,12.56
	c0.906,0.194,1.828,0.293,2.74,0.293c4.987,0,9.575-2.909,11.686-7.408l46.611-99.268c1.889-4.021,1.579-8.651-0.829-12.386
	C312.666,357.498,308.607,355.288,304.192,355.288z"/>
<path d="M118.095,187.781c-1.212-2.929-4.071-4.838-7.24-4.838s-6.028,1.909-7.24,4.838c-6.798,16.413-11.493,21.107-27.904,27.905
	c-2.929,1.212-4.838,4.071-4.838,7.24c0,3.169,1.909,6.028,4.838,7.24c16.411,6.798,21.106,11.492,27.904,27.905
	c1.212,2.929,4.071,4.838,7.24,4.838s6.028-1.909,7.24-4.838c6.798-16.412,11.492-21.106,27.905-27.905
	c2.929-1.212,4.838-4.071,4.838-7.24c0-3.169-1.909-6.028-4.838-7.24C129.588,208.887,124.894,204.193,118.095,187.781z
	 M110.856,237.643c-3.96-6.207-8.51-10.757-14.716-14.717c6.207-3.96,10.756-8.511,14.716-14.717
	c3.96,6.207,8.511,10.757,14.717,14.717C119.366,226.886,114.817,231.435,110.856,237.643z"/>
<path d="M160.72,181.976c1.212,2.929,4.071,4.838,7.24,4.838c3.169,0,6.027-1.909,7.24-4.837
	c4.882-11.781,8.029-14.928,19.808-19.807c2.929-1.213,4.838-4.071,4.838-7.241c0-3.169-1.909-6.028-4.838-7.241
	c-11.779-4.879-14.926-8.026-19.808-19.807c-1.213-2.928-4.071-4.837-7.24-4.837c-3.169,0-6.028,1.909-7.24,4.838
	c-4.881,11.78-8.028,14.927-19.807,19.807c-2.929,1.212-4.838,4.071-4.838,7.24s1.909,6.027,4.838,7.24
	C152.693,167.049,155.84,170.196,160.72,181.976z M167.96,147.448c2.154,2.915,4.567,5.33,7.481,7.481
	c-2.914,2.151-5.329,4.566-7.481,7.481c-2.152-2.915-4.566-5.33-7.481-7.481C163.394,152.778,165.809,150.363,167.96,147.448z"/>
<g>
</g>
<g>
</g>
<g>
</g>
<g>
</g>
<g>
</g>
<g>
</g>
<g>
</g>
<g>
</g>
<g>
</g>
<g>
</g>
<g>
</g>
<g>
</g>
<g>
</g>
<g>
</g>
<g>
</g>
</svg>
