<svg xmlns="http://www.w3.org/2000/svg" width="128" height="128" viewBox="0 0 128 128">
  <title>CANDY</title>
  <g>
    <circle cx="101.638" cy="26.362" r="20.055" fill="#8ac9fe"/>
    <circle cx="24.233" cy="90.232" r="17.926" transform="translate(-53.523 38.434) rotate(-41.297)" fill="#f07281"/>
    <circle cx="39.412" cy="34.109" r="24.105" fill="#fee97d"/>
    <circle cx="84.547" cy="92.846" r="28.846" fill="#97da7b"/>
    <g>
      <path d="M101.638,48.167a21.805,21.805,0,1,1,21.8-21.805A21.83,21.83,0,0,1,101.638,48.167Zm0-40.11a18.305,18.305,0,1,0,18.3,18.305A18.326,18.326,0,0,0,101.638,8.057Z"/>
      <path d="M24.233,109.908A19.676,19.676,0,1,1,43.91,90.231,19.7,19.7,0,0,1,24.233,109.908Zm0-35.852A16.176,16.176,0,1,0,40.41,90.231,16.195,16.195,0,0,0,24.233,74.056Z"/>
      <path d="M39.412,59.963A25.855,25.855,0,1,1,62.2,21.882a1.75,1.75,0,0,1-3.083,1.658,22.36,22.36,0,1,0,2.652,10.568,22.769,22.769,0,0,0-.135-2.466,1.75,1.75,0,1,1,3.479-.381,26.215,26.215,0,0,1,.156,2.847A25.885,25.885,0,0,1,39.412,59.963Z"/>
      <path d="M33.031,49.382a1.744,1.744,0,0,1-.747-.168,16.78,16.78,0,0,1-9.571-15.106,1.75,1.75,0,0,1,3.5,0A13.268,13.268,0,0,0,33.779,46.05a1.75,1.75,0,0,1-.748,3.332Z"/>
      <path d="M57.913,105.693a1.749,1.749,0,0,1-1.616-1.076,30.525,30.525,0,0,1-1.457-4.42,1.75,1.75,0,0,1,3.4-.838,26.958,26.958,0,0,0,1.289,3.911,1.749,1.749,0,0,1-1.614,2.423Z"/>
      <path d="M84.547,123.443a30.54,30.54,0,0,1-23.456-10.95,1.75,1.75,0,0,1,2.682-2.248A27.1,27.1,0,1,0,57.513,91a1.75,1.75,0,0,1-3.493-.234,30.6,30.6,0,1,1,30.527,32.681Z"/>
      <path d="M103.09,94.6a1.749,1.749,0,0,1-1.75-1.75A16.885,16.885,0,0,0,89.294,76.733a1.75,1.75,0,0,1,.987-3.357A20.4,20.4,0,0,1,104.84,92.847,1.75,1.75,0,0,1,103.09,94.6Z"/>
    </g>
  </g>
</svg>
