<?xml version="1.0" encoding="iso-8859-1"?>
<!-- Generator: Adobe Illustrator 19.0.0, SVG Export Plug-In . SVG Version: 6.00 Build 0)  -->
<svg xmlns="http://www.w3.org/2000/svg" xmlns:xlink="http://www.w3.org/1999/xlink" version="1.1" id="Layer_1" x="0px" y="0px" viewBox="0 0 512 512" style="enable-background:new 0 0 512 512;" xml:space="preserve">
<path style="fill:#D5DCED;" d="M478.33,341.511h-42.756V170.489h42.756c14.168,0,25.653,11.485,25.653,25.653v119.716  C503.983,330.026,492.498,341.511,478.33,341.511z"/>
<path style="fill:#C7CFE2;" d="M486.881,290.205h-51.307v51.307h42.756c14.168,0,25.653-11.485,25.653-25.653v-42.756  C503.983,282.547,496.326,290.205,486.881,290.205z"/>
<path style="fill:#E4EAF8;" d="M418.472,401.37H42.221c-18.891,0-34.205-15.314-34.205-34.205v-222.33  c0-18.891,15.314-34.205,34.205-34.205h376.251c18.891,0,34.205,15.314,34.205,34.205v222.33  C452.676,386.055,437.362,401.37,418.472,401.37z"/>
<path style="fill:#D5DCED;" d="M127.733,341.511c-47.227,0-85.511-38.285-85.511-85.511v-85.511c0-9.446-7.656-17.102-17.102-17.102  l0,0c-9.446,0-17.102,7.656-17.102,17.102v196.676c0,18.891,15.314,34.205,34.205,34.205h376.251  c18.891,0,34.205-15.314,34.205-34.205v-25.653H127.733z"/>
<path style="fill:#FFDC64;" d="M195.136,144.835H59.324c-9.446,0-17.102,7.656-17.102,17.102v188.125  c0,9.446,7.656,17.102,17.102,17.102h240.438L195.136,144.835z"/>
<g>
	<path style="fill:#FFFFFF;" d="M397.094,170.489h8.551c7.084,0,12.827-5.743,12.827-12.827l0,0c0-7.084-5.743-12.827-12.827-12.827   h-8.551c-7.084,0-12.827,5.743-12.827,12.827l0,0C384.267,164.745,390.01,170.489,397.094,170.489z"/>
	<path style="fill:#FFFFFF;" d="M294.48,170.489h59.858c7.084,0,12.827-5.743,12.827-12.827l0,0c0-7.084-5.743-12.827-12.827-12.827   H294.48c-7.084,0-12.827,5.743-12.827,12.827l0,0C281.653,164.745,287.397,170.489,294.48,170.489z"/>
</g>
<path style="fill:#FFC850;" d="M42.221,256v94.063c0,9.446,7.656,17.102,17.102,17.102h240.439l-12.072-25.653H127.733  C80.506,341.511,42.221,303.227,42.221,256z"/>
<path d="M478.33,162.472h-17.637v-17.637c0-23.281-18.941-42.221-42.221-42.221H42.221C18.941,102.614,0,121.555,0,144.835v222.33  c0,23.28,18.941,42.221,42.221,42.221h376.251c23.28,0,42.221-18.941,42.221-42.221v-17.637h17.637  c18.566,0,33.67-15.105,33.67-33.67V196.142C512,177.576,496.895,162.472,478.33,162.472z M16.033,367.165v-222.33  c0-14.44,11.748-26.188,26.188-26.188h131.73l129.273,274.706H42.221C27.782,393.353,16.033,381.605,16.033,367.165z   M495.967,315.858c0,9.725-7.912,17.637-17.637,17.637h-17.637V221.795c0-4.427-3.589-8.017-8.017-8.017  c-4.427,0-8.017,3.589-8.017,8.017v145.37c0,14.44-11.748,26.188-26.188,26.188h-97.526L191.672,118.647h226.8  c14.44,0,26.188,11.748,26.188,26.188v42.749c0,4.427,3.589,8.017,8.017,8.017c4.427,0,8.017-3.589,8.017-8.017v-9.079h17.637  c9.725,0,17.637,7.912,17.637,17.637V315.858z"/>
<path d="M228.995,278.215l-40.219-85.467c-1.887-4.007-6.662-5.726-10.666-3.841c-4.006,1.886-5.725,6.661-3.841,10.667  l40.219,85.467c1.366,2.903,4.25,4.606,7.259,4.606c1.144,0,2.306-0.246,3.408-0.765  C229.161,286.997,230.881,282.22,228.995,278.215z"/>
<path d="M164.622,141.423c-1.886-4.008-6.662-5.724-10.666-3.841c-4.006,1.886-5.725,6.661-3.841,10.666l8.038,17.08  c1.366,2.903,4.25,4.606,7.259,4.606c1.144,0,2.306-0.246,3.408-0.765c4.006-1.886,5.725-6.661,3.841-10.666L164.622,141.423z"/>
<g>
</g>
<g>
</g>
<g>
</g>
<g>
</g>
<g>
</g>
<g>
</g>
<g>
</g>
<g>
</g>
<g>
</g>
<g>
</g>
<g>
</g>
<g>
</g>
<g>
</g>
<g>
</g>
<g>
</g>
</svg>
