<?xml version="1.0" encoding="iso-8859-1"?>
<!-- Generator: Adobe Illustrator 19.0.0, SVG Export Plug-In . SVG Version: 6.00 Build 0)  -->
<svg version="1.1" id="Layer_1" xmlns="http://www.w3.org/2000/svg" xmlns:xlink="http://www.w3.org/1999/xlink" x="0px" y="0px"
	 viewBox="0 0 512.001 512.001" style="enable-background:new 0 0 512.001 512.001;" xml:space="preserve">
<path style="fill:#B79C79;" d="M17.285,494.717c-3.395,3.395-0.991,9.201,3.811,9.201H51.2h32.337l150.905-150.905h-75.453
	L17.285,494.717z"/>
<path style="fill:#93795A;" d="M83.537,503.916H51.2l150.905-150.905h32.337L83.537,503.916z"/>
<path style="fill:#FFC4BC;" d="M337.893,391.991l-21.107,0.758l16.632,13.02c19.886,15.568,19.344,45.842-1.089,60.685
	l-26.713,19.408c-20.431,14.845-49.391,6.006-58.052-17.718l-7.242-19.841l-7.242,19.841c-8.661,23.723-37.62,32.563-58.052,17.718
	l-26.712-19.408c-20.431-14.845-20.975-45.118-1.089-60.685l16.632-13.02l-21.107-0.758c-25.239-0.905-42.594-25.716-34.79-49.735
	l10.203-31.403c7.804-24.019,36.429-33.89,57.38-19.788l17.521,11.794l-5.802-20.309c-6.938-24.284,11.295-48.457,36.55-48.457
	h33.019c25.255,0,43.489,24.173,36.55,48.457l-5.802,20.309l17.521-11.794c20.951-14.102,49.576-4.231,57.38,19.788l10.203,31.403
	C380.487,366.275,363.132,391.086,337.893,391.991z"/>
<path style="fill:#FF98B1;" d="M337.893,391.991l-21.107,0.758l16.632,13.02c19.886,15.568,19.344,45.842-1.089,60.685
	l-26.713,19.408c-11.839,8.601-26.532,9.238-38.489,3.649c2.113-1.001,4.174-2.211,6.153-3.649l26.712-19.408
	c20.431-14.845,20.975-45.118,1.089-60.685l-16.632-13.02l21.107-0.758c25.239-0.905,42.594-25.716,34.79-49.735l-10.203-31.403
	c-3.435-10.573-10.906-18.4-19.98-22.652c20.255-9.586,45.125,0.517,52.317,22.652l10.203,31.403
	C380.487,366.275,363.132,391.086,337.893,391.991z"/>
<path style="fill:#FFC4BC;" d="M455.986,8.375c27.463-3.175,50.815,20.177,47.64,47.64c-2.964,25.629-14.276,50.477-33.935,70.138
	c-31.033,31.033-74.986,41.264-114.541,30.702c-10.562-39.556-0.331-83.51,30.702-114.541
	C405.51,22.651,430.357,11.339,455.986,8.375z"/>
<path style="fill:#FF98B1;" d="M72.556,350.887c0,11.969-3.049,23.178-8.717,32.793s-13.752,17.635-23.417,23.226
	c-19.331-11.182-32.337-32.081-32.337-56.019c0-15.166,5.22-29.112,13.963-40.141c3.628-4.577,8.553-7.381,13.771-8.413
	c8.253-1.632,17.036,1.173,22.775,8.413C67.335,321.775,72.556,335.721,72.556,350.887z M276.334,105.231l-54.868-39.784
	c-23.058-16.719-55.709-6.72-65.45,20.045l-12.736,34.992c-9.741,26.764,8.843,55.411,37.253,57.425l67.603,4.792
	c19.093,1.354,36.769-10.114,43.315-28.101l0,0C298,136.613,291.83,116.467,276.334,105.231z M495.053,263.596
	c4.957-3.929,7.83-9.381,8.627-15.077c1.105-7.883-1.933-16.005-8.792-21.443c-11.028-8.742-24.975-13.963-40.141-13.963
	c-12.104,0-23.266,3.096-32.953,8.883c-9.47,5.658-17.374,13.669-22.901,23.224c11.182,19.331,32.081,32.337,56.019,32.337
	C470.078,277.559,484.025,272.338,495.053,263.596z M355.148,156.853c19.236,5.137,39.51,5.341,58.835,0.641
	c15.553-25.111,24.979-52.939,28.263-81.345c2.629-22.734-5.627-43.773-20.195-58.588c-13.136,5.758-25.448,13.996-36.202,24.75
	C354.817,73.343,344.586,117.297,355.148,156.853z"/>
<path style="fill:#FFC4BC;" d="M58.796,310.746c8.742,11.028,13.963,24.975,13.963,40.141c0,12.335-3.46,23.858-9.453,33.666
	c-0.004,0.003-0.009,0.005-0.013,0.008c-0.804,0.492-1.825,0.497-2.629,0.005c-18.603-11.358-31.022-31.846-31.022-55.237
	c0-9.611,2.102-18.727,5.863-26.927C43.843,300.636,52.984,303.414,58.796,310.746z M288.931,69.512
	c-2.014-28.41-30.661-46.995-57.425-37.253l-34.992,12.736c-26.764,9.741-36.764,42.391-20.045,65.45l39.784,54.868
	c11.236,15.496,31.383,21.666,49.369,15.12c17.986-6.546,29.453-24.224,28.101-43.315L288.931,69.512z M495.053,226.848
	c-11.028-8.742-24.975-13.963-40.141-13.963c-12.334,0-23.858,3.46-33.666,9.453c-0.003,0.004-0.005,0.009-0.008,0.013
	c-0.492,0.804-0.497,1.825-0.005,2.629c11.358,18.602,31.846,31.021,55.237,31.021c9.611,0,18.727-2.102,26.927-5.863
	C505.164,241.799,502.385,232.66,495.053,226.848z"/>
<path style="fill:#FF98B1;" d="M278.552,367.903c0,21.115-17.117,38.232-38.231,38.232s-38.232-17.117-38.232-38.232
	s17.117-38.232,38.232-38.232S278.552,346.789,278.552,367.903z"/>
<path style="fill:#FF728D;" d="M256.994,367.903c0,9.208-7.464,16.674-16.673,16.674s-16.674-7.465-16.674-16.674
	s7.464-16.674,16.674-16.674C249.53,351.229,256.994,358.695,256.994,367.903z"/>
<path d="M110.811,401.19c-3.157-3.157-8.276-3.157-11.432,0l-50.873,50.873v-40.674c20.06-13.436,32.337-36.2,32.337-60.501
	c0-16.579-5.434-32.196-15.711-45.163c-6.007-7.579-15.014-11.925-24.71-11.925s-18.703,4.346-24.71,11.925
	C5.434,318.69,0,334.308,0,350.887c0,24.301,12.277,47.066,32.337,60.501v56.843L2.368,498.2c-3.157,3.157-3.157,8.276,0,11.432
	c1.578,1.579,3.648,2.368,5.716,2.368s4.138-0.789,5.716-2.368l97.011-97.01C113.969,409.465,113.969,404.346,110.811,401.19z
	 M40.421,397.33c-15.068-10.526-24.253-27.911-24.253-46.443c0-12.895,4.223-25.039,12.214-35.119c2.922-3.685,7.31-5.8,12.039-5.8
	s9.117,2.114,12.039,5.8l0,0c7.99,10.079,12.214,22.224,12.214,35.119C64.674,369.419,55.49,386.804,40.421,397.33z
	 M450.021,319.058c-4.465,0-8.084-3.62-8.084-8.084v-1.078c0-4.465,3.62-8.084,8.084-8.084s8.084,3.62,8.084,8.084v1.078
	C458.105,315.438,454.486,319.058,450.021,319.058z M468.884,385.887v1.078c0,4.465-3.62,8.084-8.084,8.084
	c-4.465,0-8.084-3.62-8.084-8.084v-1.078c0-4.465,3.62-8.084,8.084-8.084C465.265,377.803,468.884,381.422,468.884,385.887z
	 M43.116,192.405v-1.078c0-4.465,3.62-8.084,8.084-8.084s8.084,3.62,8.084,8.084v1.078c0,4.465-3.62,8.084-8.084,8.084
	S43.116,196.87,43.116,192.405z M10.779,247.378V246.3c0-4.465,3.62-8.084,8.084-8.084s8.084,3.62,8.084,8.084v1.078
	c0,4.465-3.62,8.084-8.084,8.084S10.779,251.842,10.779,247.378z M61.979,259.234c4.465,0,8.084,3.62,8.084,8.084v1.078
	c0,4.465-3.62,8.084-8.084,8.084s-8.084-3.62-8.084-8.084v-1.078C53.895,262.854,57.514,259.234,61.979,259.234z M288.464,427.022
	c2.583,3.642,1.724,8.688-1.919,11.27c-1.419,1.007-3.053,1.49-4.669,1.49c-2.532,0-5.025-1.186-6.602-3.409l-17.966-25.339
	c-5.315,2.085-11.055,3.184-16.988,3.184c-7.095,0-13.967-1.606-20.172-4.608l-11.694,14.943c-2.752,3.517-7.833,4.135-11.348,1.384
	c-3.516-2.752-4.136-7.833-1.384-11.348l11.322-14.469c-0.852-0.881-1.673-1.799-2.461-2.753c-2.841-3.444-2.354-8.539,1.09-11.382
	c3.444-2.842,8.539-2.354,11.382,1.09c1.623,1.968,3.464,3.699,5.474,5.17c0.207,0.134,0.41,0.277,0.607,0.432
	c0.003,0.002,0.008,0.005,0.011,0.009c4.988,3.463,10.951,5.364,17.175,5.364c5.367,0,10.488-1.383,14.968-3.948
	c0.317-0.222,0.646-0.417,0.981-0.586c3.105-1.941,5.873-4.469,8.163-7.513c2.684-3.569,7.751-4.286,11.32-1.602
	c3.568,2.684,4.285,7.752,1.601,11.32c-1.883,2.504-3.979,4.782-6.251,6.813L288.464,427.022z M316.53,341.697
	c1.338,4.26-1.032,8.797-5.291,10.134l-25.315,7.949c0.469,2.638,0.714,5.353,0.714,8.123c0,4.465-3.62,8.084-8.084,8.084
	c-4.465,0-8.084-3.62-8.084-8.084c0-16.623-13.523-30.148-30.147-30.148c-3.157,0-6.264,0.484-9.234,1.438
	c-4.251,1.365-8.803-0.973-10.17-5.225s0.973-8.804,5.225-10.17c1.997-0.641,4.033-1.146,6.096-1.509v-23.174
	c0-4.465,3.62-8.084,8.084-8.084c4.465,0,8.084,3.62,8.084,8.084v23.177c13.608,2.405,25.184,10.771,31.925,22.296l26.066-8.184
	C310.657,335.07,315.193,337.437,316.53,341.697z M500.075,220.512c-12.967-10.279-28.584-15.711-45.163-15.711
	c-25.381,0-49.086,13.394-62.237,35.056l-49.18,39.96c-0.704-0.281-1.417-0.546-2.141-0.797c-13.484-4.65-27.982-2.898-39.937,4.79
	c3.086-11.723,1.494-23.87-4.371-34.255l9.268-32.434l51.326-51.326c19.112,4.343,39.151,4.201,58.254-0.445
	c2.062-0.501,3.845-1.795,4.963-3.598c16.015-25.858,25.915-54.345,29.421-84.673c2.323-20.09-2.991-39.955-14.722-56.061
	c6.874-2.214,14.015-3.761,21.36-4.61c10.625-1.229,21.07,2.423,28.664,10.016c7.594,7.594,11.245,18.042,10.016,28.663
	c-2.886,24.95-13.821,47.548-31.621,65.35c-5.589,5.589-11.757,10.572-18.333,14.812c-3.752,2.42-4.833,7.422-2.413,11.175
	c2.419,3.753,7.422,4.833,11.175,2.413c7.54-4.86,14.607-10.57,21.005-16.968c20.407-20.406,32.942-46.314,36.25-74.924
	c1.799-15.556-3.539-30.848-14.644-41.954C485.906,3.882,470.619-1.456,455.057,0.343c-28.545,3.302-54.402,15.789-74.788,36.113
	c-0.002,0.002-0.004,0.004-0.008,0.008c-0.019,0.019-0.037,0.037-0.055,0.055c-0.003,0.003-0.006,0.006-0.01,0.01
	c-0.022,0.022-0.043,0.043-0.065,0.065c-24.011,24.011-37.066,56.543-37.066,89.77c0,9.335,1.032,18.725,3.139,27.996
	l-45.834,45.834l-15.008-22.512c11.181-10.299,17.539-25.377,16.423-41.14l-4.792-67.603c-1.141-16.095-9.56-30.362-23.096-39.144
	c-13.535-8.781-29.996-10.653-45.158-5.134l-34.992,12.735c-15.162,5.519-26.568,17.533-31.292,32.961
	c-4.725,15.428-2.003,31.768,7.469,44.831l27.384,37.766c2.621,3.613,7.676,4.42,11.291,1.799c3.614-2.621,4.42-7.676,1.799-11.291
	l-27.384-37.766c-6.466-8.917-8.325-20.073-5.098-30.606s11.012-18.734,21.363-22.502l34.992-12.735
	c10.349-3.769,21.586-2.491,30.829,3.504c9.241,5.995,14.988,15.735,15.766,26.723l4.792,67.603
	c1.073,15.124-7.94,29.327-21.999,34.844c-10.772,1.337-21.715,1.625-32.537,0.858l-50.016-3.545
	c-10.988-0.779-20.728-6.527-26.723-15.767c-5.995-9.241-7.273-20.478-3.504-30.829c1.527-4.196-0.636-8.834-4.831-10.362
	c-4.197-1.527-8.834,0.636-10.362,4.832c-5.519,15.162-3.648,31.621,5.134,45.158c8.782,13.537,23.049,21.955,39.144,23.096
	l50.016,3.546c12.207,0.864,24.548,0.504,36.684-1.07c0.589-0.077,1.167-0.218,1.725-0.42c1.189-0.432,2.353-0.907,3.493-1.422
	l18.435,27.652l-5.953,20.837c-7.841-5.866-17.402-9.086-27.533-9.086h-33.019c-14.597,0-28.011,6.684-36.803,18.338
	c-8.591,11.388-11.405,25.716-7.786,39.463c-11.955-7.69-26.453-9.441-39.937-4.79c-13.8,4.759-24.302,15.452-28.812,29.334
	l-10.203,31.402c-4.511,13.883-2.3,28.705,6.067,40.668c8.176,11.69,20.935,18.794,35.126,19.599
	c-11.007,8.993-17.154,22.239-16.897,36.503c0.08,4.447,0.778,8.774,2.045,12.883l-46.424,46.426H51.2
	c-4.465,0-8.084,3.62-8.084,8.084c0,4.465,3.62,8.084,8.084,8.084h53.895c4.465,0,8.084-3.62,8.084-8.084
	c0-4.465-3.62-8.084-8.084-8.084h-2.042l31.465-31.464c2.569,3.22,5.598,6.122,9.042,8.625l26.712,19.408
	c11.809,8.58,26.591,11.057,40.553,6.796c13.644-4.164,24.342-14.103,29.494-27.35c5.151,13.248,15.85,23.187,29.494,27.35
	c13.962,4.262,28.743,1.785,40.553-6.796l26.712-19.408c11.81-8.58,18.733-21.872,18.995-36.467
	c0.255-14.263-5.89-27.51-16.897-36.503c14.192-0.806,26.95-7.91,35.126-19.599c8.368-11.961,10.578-26.785,6.067-40.668
	l-10.203-31.403c-2.458-7.564-6.693-14.18-12.272-19.405l39.222-31.868c13.664,17.813,35.057,28.563,57.794,28.563
	c16.579,0,32.196-5.434,45.163-15.711l0,0c7.579-6.008,11.925-15.014,11.925-24.71S507.654,226.519,500.075,220.512z
	 M391.566,48.026c0.018-0.018,0.037-0.037,0.055-0.055c0.004-0.004,0.008-0.008,0.012-0.012c0.015-0.015,0.03-0.03,0.045-0.045
	c0.002-0.002,0.005-0.005,0.008-0.008c0.017-0.017,0.035-0.034,0.052-0.052c8.366-8.329,17.874-15.184,28.329-20.434
	c11.026,13.35,16.152,30.473,14.148,47.798c-3.103,26.833-11.633,52.097-25.365,75.152c-15.493,3.279-31.592,3.207-47.017-0.206
	c-1.747-7.891-2.602-15.877-2.602-23.818C359.231,97.355,370.619,68.974,391.566,48.026z M364.995,344.753
	c2.929,9.013,1.493,18.637-3.94,26.403c-5.433,7.766-13.98,12.415-23.452,12.755l-21.108,0.758c-3.393,0.122-6.35,2.351-7.399,5.581
	c-1.05,3.229,0.031,6.77,2.706,8.864l16.632,13.02c7.462,5.842,11.646,14.627,11.475,24.103
	c-0.169,9.476-4.665,18.105-12.332,23.677l-26.712,19.408c-7.668,5.571-17.265,7.18-26.329,4.412
	c-9.065-2.766-16.127-9.46-19.377-18.362l-7.242-19.841c-1.165-3.19-4.198-5.312-7.594-5.312c-3.395,0-6.43,2.122-7.594,5.312
	l-7.243,19.841c-3.25,8.902-10.312,15.596-19.377,18.362c-9.063,2.767-18.661,1.159-26.329-4.413l-26.713-19.408
	c-7.667-5.571-12.162-14.201-12.332-23.677c-0.17-9.476,4.013-18.261,11.475-24.103l16.632-13.02
	c2.674-2.093,3.754-5.634,2.706-8.864c-1.049-3.23-4.004-5.46-7.399-5.581l-21.108-0.758c-9.471-0.34-18.019-4.988-23.452-12.755
	c-5.433-7.766-6.868-17.39-3.94-26.404l10.203-31.403c2.929-9.013,9.747-15.955,18.707-19.044c3.223-1.111,6.535-1.66,9.821-1.66
	c5.849,0,11.615,1.736,16.649,5.125l17.521,11.794c2.817,1.897,6.519,1.829,9.266-0.166c2.748-1.996,3.954-5.496,3.021-8.761
	l-5.802-20.309c-2.604-9.113-0.824-18.679,4.884-26.246c5.707-7.567,14.417-11.905,23.894-11.905h33.019
	c9.477,0,18.186,4.34,23.894,11.905c5.707,7.566,7.487,17.133,4.884,26.246l-5.802,20.309c-0.933,3.265,0.274,6.765,3.021,8.761
	c2.746,1.995,6.448,2.063,9.266,0.166l17.521-11.794c7.862-5.291,17.51-6.556,26.47-3.465c8.959,3.089,15.778,10.032,18.707,19.045
	L364.995,344.753z M490.031,257.261L490.031,257.261c-10.079,7.99-22.224,12.214-35.119,12.214
	c-18.532,0-35.919-9.185-46.443-24.253c10.526-15.069,27.911-24.253,46.443-24.253c12.895,0,25.038,4.223,35.119,12.214
	c3.685,2.922,5.8,7.31,5.8,12.039C495.832,249.95,493.718,254.339,490.031,257.261z M501.221,330.914v1.078
	c0,4.465-3.62,8.084-8.084,8.084c-4.465,0-8.084-3.62-8.084-8.084v-1.078c0-4.465,3.62-8.084,8.084-8.084
	C497.601,322.83,501.221,326.45,501.221,330.914z M232.237,272.708v-1.078c0-4.465,3.62-8.084,8.084-8.084
	c4.465,0,8.084,3.62,8.084,8.084v1.078c0,4.465-3.62,8.084-8.084,8.084C235.856,280.792,232.237,277.173,232.237,272.708z
	 M194.005,367.903c0-2.023,0.13-4.032,0.387-6.016l-20.412-6.976c-4.224-1.444-6.479-6.039-5.035-10.265
	c1.443-4.224,6.036-6.481,10.264-5.035l20.046,6.851c0.8-1.528,1.688-3.017,2.662-4.46c2.5-3.7,7.524-4.674,11.224-2.174
	s4.673,7.525,2.174,11.224c-3.365,4.981-5.143,10.807-5.143,16.849c0,4.465-3.62,8.084-8.084,8.084
	C197.623,375.985,194.005,372.368,194.005,367.903z M192.943,441.399v1.078c0,4.465-3.62,8.084-8.084,8.084
	c-4.465,0-8.084-3.62-8.084-8.084v-1.078c0-4.465,3.62-8.084,8.084-8.084C189.324,433.314,192.943,436.934,192.943,441.399z"/>
<g>
</g>
<g>
</g>
<g>
</g>
<g>
</g>
<g>
</g>
<g>
</g>
<g>
</g>
<g>
</g>
<g>
</g>
<g>
</g>
<g>
</g>
<g>
</g>
<g>
</g>
<g>
</g>
<g>
</g>
</svg>
