<?xml version="1.0" encoding="iso-8859-1"?>
<!-- Generator: Adobe Illustrator 19.0.0, SVG Export Plug-In . SVG Version: 6.00 Build 0)  -->
<svg xmlns="http://www.w3.org/2000/svg" xmlns:xlink="http://www.w3.org/1999/xlink" version="1.1" id="Layer_1" x="0px" y="0px" viewBox="0 0 511.998 511.998" style="enable-background:new 0 0 511.998 511.998;" xml:space="preserve">
<path style="fill:#029AE6;" d="M416.674,167.625c-14.031-2.324-29.088-3.503-44.754-3.503c-15.666,0-30.722,1.178-44.753,3.503  c-12.435,2.06-24.007,7.483-33.523,15.564c-11.152-2.889-24.166-4.45-37.643-4.45s-26.49,1.561-37.643,4.45  c-9.516-8.081-21.088-13.503-33.523-15.564c-14.03-2.324-29.087-3.503-44.753-3.503s-30.723,1.178-44.754,3.503  c-91.159,0-88.49-1.162-87.592,32.113c0.13,4.832,4.091,8.684,8.925,8.684h26.419c-3.887,8.92-5.912,18.618-5.818,28.478  c0.234,24.631,3.394,45.497,9.392,62.012c4.845,13.342,11.7,24.217,20.376,32.321c11.653,10.887,26.343,16.641,42.48,16.641h61.147  c16.137,0,30.826-5.755,42.48-16.641c8.675-8.103,15.531-18.979,20.376-32.321c5.998-16.516,9.158-37.38,9.392-62.012  c0.06-6.302-0.744-12.539-2.344-18.55c4.554-0.554,9.692-0.908,15.443-0.908c5.75,0,10.888,0.353,15.443,0.908  c-1.599,6.011-2.405,12.248-2.344,18.55c0.234,24.631,3.394,45.497,9.392,62.012c4.845,13.342,11.7,24.217,20.376,32.321  c11.652,10.887,26.343,16.641,42.48,16.641h61.147c16.137,0,30.826-5.755,42.48-16.641c8.675-8.103,15.531-18.979,20.376-32.321  c5.998-16.516,9.158-37.38,9.392-62.012c0.094-9.86-1.93-19.559-5.818-28.478h26.419c4.834,0,8.794-3.852,8.925-8.684  C505.164,166.463,507.834,167.625,416.674,167.625z"/>
<path style="fill:#4FC2F8;" d="M179.468,200.03c-11.814-1.957-25.201-3.061-39.385-3.061c-14.184,0-27.571,1.104-39.385,3.061  c-17.795,2.948-30.762,18.522-30.591,36.559c0.301,31.714,6.353,78.44,39.402,78.44h61.147c33.049,0,39.101-46.726,39.402-78.44  C210.23,218.552,197.263,202.978,179.468,200.03z"/>
<path style="opacity:0.1;enable-background:new    ;" d="M100.125,236.589c-0.171-18.037,12.795-33.611,30.591-36.559  c7.549-1.251,15.745-2.148,24.375-2.637c-4.876-0.276-9.888-0.424-15.009-0.424c-14.184,0-27.571,1.104-39.385,3.061  c-17.795,2.948-30.762,18.522-30.591,36.559c0.301,31.714,6.353,78.439,39.402,78.439h30.019  C106.478,315.029,100.426,268.303,100.125,236.589z"/>
<path style="fill:#4FC2F8;" d="M332.535,200.03c11.814-1.957,25.201-3.061,39.385-3.061c14.184,0,27.571,1.104,39.385,3.061  c17.795,2.948,30.762,18.522,30.591,36.559c-0.301,31.714-6.353,78.44-39.402,78.44h-61.148c-33.049,0-39.101-46.726-39.402-78.44  C301.772,218.552,314.739,202.978,332.535,200.03z"/>
<path style="opacity:0.1;enable-background:new    ;" d="M331.963,236.589c-0.171-18.037,12.796-33.611,30.591-36.559  c7.549-1.251,15.745-2.148,24.376-2.637c-4.877-0.276-9.889-0.424-15.009-0.424c-14.184,0-27.571,1.104-39.385,3.061  c-17.795,2.948-30.762,18.522-30.591,36.559c0.301,31.714,6.353,78.439,39.402,78.439h30.019  C338.316,315.029,332.264,268.303,331.963,236.589z"/>
<path d="M101.923,207.434c11.691-1.937,24.886-2.961,38.159-2.961c13.273,0,26.468,1.024,38.159,2.961  c0.718,0.119,1.465,0.276,2.281,0.479c4.025,1.004,8.095-1.445,9.097-5.467c1.003-4.022-1.445-8.094-5.467-9.097  c-1.21-0.302-2.341-0.538-3.458-0.723c-12.666-2.098-26.33-3.162-40.612-3.162c-14.282,0-27.946,1.064-40.612,3.162  c-21.573,3.573-37.078,22.093-36.869,44.034c0.207,21.755,2.856,39.79,7.871,53.603c9.686,26.672,26.574,32.27,39.036,32.27h61.147  c12.462,0,29.349-5.599,39.036-32.27c5.016-13.813,7.665-31.847,7.872-53.604c0.066-7.161-1.628-14.307-4.9-20.667  c-1.897-3.685-6.421-5.134-10.107-3.239c-3.686,1.896-5.136,6.421-3.239,10.107c2.162,4.202,3.282,8.925,3.237,13.657  c-0.588,61.782-20.238,71.007-31.898,71.007h-61.147c-27.167,0-31.646-44.488-31.897-71.007  C77.475,222.256,87.927,209.753,101.923,207.434z"/>
<path d="M402.493,307.524H350.62c-4.146,0-7.505,3.36-7.505,7.505c0,4.145,3.359,7.505,7.505,7.505h51.874  c12.462,0,29.349-5.599,39.036-32.27c5.016-13.813,7.665-31.847,7.872-53.604c0.208-21.941-15.298-40.46-36.87-44.034  c-12.664-2.098-26.329-3.162-40.612-3.162c-14.282,0-27.946,1.064-40.612,3.162c-21.572,3.573-37.077,22.092-36.869,44.034  c0.331,34.897,6.769,59.592,19.135,73.399c2.766,3.087,7.51,3.349,10.598,0.583c3.087-2.765,3.349-7.51,0.583-10.598  c-9.584-10.7-15.02-33.261-15.307-63.527c-0.136-14.262,10.318-26.766,24.312-29.083c11.691-1.937,24.886-2.961,38.159-2.961  c13.274,0,26.469,1.024,38.159,2.961c13.996,2.318,24.449,14.822,24.313,29.083C433.803,298.299,414.155,307.524,402.493,307.524z"/>
<path d="M32.484,215.927c-1.879,6.841-2.794,13.885-2.727,21.045c0.243,25.485,3.554,47.188,9.842,64.503  c3.677,10.123,8.507,19.048,14.356,26.528c1.48,1.893,3.687,2.882,5.917,2.882c1.617,0,3.246-0.52,4.618-1.593  c3.265-2.554,3.842-7.27,1.289-10.535c-4.874-6.232-8.936-13.771-12.071-22.405c-5.707-15.714-8.715-35.74-8.942-59.522  c-0.084-8.761,1.663-17.31,5.192-25.41c1.011-2.319,0.783-4.993-0.603-7.109c-1.387-2.116-3.746-3.392-6.277-3.392  c0,0-26.39,0-26.418,0c-1.896,0-1.467-2.972-1.503-4.191c-0.243-8.282-0.436-14.823,1.522-16.84  c4.652-4.789,29.136-4.777,69.727-4.761l8.921,0.003c0.411,0,0.821-0.034,1.227-0.101c13.626-2.257,28.271-3.402,43.528-3.402  s29.903,1.145,43.527,3.402c11.009,1.824,21.345,6.624,29.892,13.881c1.861,1.581,4.378,2.156,6.739,1.544  c10.633-2.754,22.998-4.21,35.759-4.21c12.762,0,25.128,1.456,35.76,4.21c2.364,0.611,4.877,0.036,6.739-1.544  c8.546-7.257,18.883-12.057,29.892-13.881c13.625-2.257,28.269-3.402,43.526-3.402c15.258,0,29.903,1.145,43.528,3.402  c0.405,0.067,0.815,0.101,1.227,0.101l8.781-0.002c5.654-0.003,10.907-0.004,15.805,0.004c4.139,0,7.498-3.352,7.505-7.492  c0.007-4.145-3.347-7.511-7.492-7.518c-4.895-0.008-10.156-0.006-15.824-0.004l-8.162,0.002  c-14.259-2.324-29.518-3.502-45.367-3.502c-16.076,0-31.546,1.213-45.979,3.603c-12.412,2.056-24.131,7.15-34.124,14.803  c-10.949-2.484-23.244-3.789-35.816-3.789c-12.571,0-24.866,1.305-35.815,3.789c-9.992-7.652-21.712-12.746-34.124-14.803  c-14.433-2.391-29.903-3.603-45.98-3.603c-15.849,0-31.108,1.178-45.367,3.502l-8.302-0.002c-53.408-0.023-71.422-0.032-80.5,9.312  c-6.381,6.569-6.12,15.449-5.759,27.738l0.079,2.774c0.242,8.964,7.458,15.986,16.426,15.986h15.824V215.927z"/>
<path d="M80.499,349.198c9.008,4.102,18.768,6.181,29.009,6.181h61.147c18.074,0,34.536-6.453,47.603-18.662  c9.548-8.92,17.053-20.778,22.306-35.243c6.289-17.318,9.6-39.02,9.842-64.502c0.038-3.967-0.233-7.934-0.811-11.864  c4.217-0.212,8.594-0.212,12.807,0c-0.575,3.93-0.848,7.898-0.811,11.864c0.243,25.484,3.555,47.186,9.843,64.503  c5.253,14.467,12.758,26.326,22.306,35.243c13.068,12.209,29.529,18.662,47.602,18.662h61.147c18.074,0,34.536-6.453,47.602-18.662  c9.549-8.919,17.054-20.776,22.307-35.244c6.288-17.317,9.6-39.019,9.843-64.504c0.067-7.161-0.848-14.204-2.728-21.044h15.823  c8.97,0,16.185-7.022,16.425-15.986l0.079-2.773c0.36-12.237,0.62-21.077-5.666-27.642c-6.333-6.614-17.484-8.299-34.606-8.977  c-4.149-0.166-7.632,3.062-7.795,7.203c-0.164,4.142,3.061,7.632,7.203,7.795c5.737,0.227,20.977,0.829,24.356,4.359  c1.939,2.026,1.748,8.555,1.505,16.822c-0.035,1.219,0.461,4.191-1.502,4.191H468.92c-2.531,0-4.891,1.276-6.277,3.392  c-1.388,2.117-1.613,4.79-0.602,7.11c3.528,8.097,5.275,16.645,5.192,25.409c-0.226,23.78-3.234,43.807-8.943,59.522  c-4.438,12.221-10.643,22.111-18.445,29.398c-10.237,9.565-23.156,14.62-37.357,14.62h-61.143c-14.2,0-27.118-5.055-37.356-14.621  c-7.801-7.287-14.006-17.178-18.444-29.398c-5.708-15.716-8.716-35.741-8.943-59.521c-0.053-5.563,0.65-11.132,2.092-16.549  c0.558-2.098,0.18-4.336-1.037-6.134c-1.217-1.799-3.153-2.982-5.309-3.244c-5.245-0.638-10.747-0.963-16.349-0.963  c-5.602,0-11.102,0.324-16.349,0.963c-2.155,0.262-4.093,1.446-5.309,3.245c-1.217,1.799-1.595,4.037-1.037,6.135  c1.442,5.417,2.146,10.985,2.092,16.548c-0.225,23.779-3.233,43.806-8.942,59.522c-4.437,12.219-10.643,22.11-18.445,29.398  c-10.237,9.565-23.156,14.62-37.356,14.62h-61.147c-8.081,0-15.748-1.626-22.788-4.832c-3.773-1.719-8.224-0.052-9.94,3.72  C75.062,343.031,76.727,347.48,80.499,349.198z"/>
<g>
</g>
<g>
</g>
<g>
</g>
<g>
</g>
<g>
</g>
<g>
</g>
<g>
</g>
<g>
</g>
<g>
</g>
<g>
</g>
<g>
</g>
<g>
</g>
<g>
</g>
<g>
</g>
<g>
</g>
</svg>
