<?xml version="1.0" encoding="iso-8859-1"?>
<!-- Generator: Adobe Illustrator 19.0.0, SVG Export Plug-In . SVG Version: 6.00 Build 0)  -->
<svg xmlns="http://www.w3.org/2000/svg" xmlns:xlink="http://www.w3.org/1999/xlink" version="1.1" id="Layer_1" x="0px" y="0px" viewBox="0 0 512 512" style="enable-background:new 0 0 512 512;" xml:space="preserve">
<circle style="fill:#AFB9D2;" cx="256" cy="256" r="247.409"/>
<path style="fill:#959CB5;" d="M81.897,256c0-124.183,91.501-226.975,210.756-244.689c-11.963-1.777-24.197-2.72-36.653-2.72  C119.36,8.591,8.591,119.36,8.591,256S119.36,503.409,256,503.409c12.456,0,24.691-0.944,36.653-2.72  C173.398,482.975,81.897,380.183,81.897,256z"/>
<circle style="fill:#E4EAF8;" cx="256" cy="256" r="210.756"/>
<circle style="fill:#FFFFFF;" cx="256" cy="256" r="183.266"/>
<circle style="fill:#E4EAF8;" cx="256" cy="256" r="91.633"/>
<circle style="fill:#959CB5;" cx="256" cy="256" r="27.49"/>
<path d="M437.02,74.98C388.668,26.629,324.38,0,256,0S123.332,26.629,74.98,74.98C26.629,123.332,0,187.62,0,256  s26.629,132.668,74.98,181.02C123.332,485.371,187.62,512,256,512s132.668-26.629,181.02-74.98C485.371,388.668,512,324.38,512,256  S485.371,123.332,437.02,74.98z M256,494.819C124.315,494.819,17.181,387.685,17.181,256S124.315,17.181,256,17.181  S494.819,124.315,494.819,256S387.685,494.819,256,494.819z"/>
<path d="M54.002,247.767c2.059-50.858,23.029-98.703,59.046-134.719c36.016-36.018,83.861-56.987,134.719-59.046  c50.576-2.053,99.652,14.695,138.217,47.143c3.631,3.055,9.05,2.587,12.104-1.042c3.055-3.63,2.587-9.049-1.042-12.104  c-41.853-35.216-95.122-53.384-149.974-51.163c-55.183,2.235-107.095,24.986-146.173,64.065  C61.82,139.979,39.069,191.89,36.833,247.074c-2.221,54.857,15.95,108.119,51.165,149.971c1.699,2.019,4.129,3.059,6.578,3.059  c1.953,0,3.915-0.662,5.527-2.017c3.63-3.055,4.097-8.474,1.042-12.104C68.696,347.419,51.953,298.332,54.002,247.767z"/>
<path d="M424.002,114.955c-3.055-3.631-8.474-4.098-12.104-1.042c-3.63,3.055-4.097,8.474-1.042,12.104  c32.448,38.565,49.191,87.651,47.143,138.217c-2.059,50.858-23.029,98.703-59.046,134.719  c-36.016,36.018-83.861,56.987-134.719,59.046c-50.573,2.058-99.652-14.695-138.217-47.143c-3.631-3.055-9.049-2.586-12.104,1.042  c-3.055,3.63-2.587,9.049,1.042,12.104c39.564,33.289,89.318,51.348,140.983,51.347c2.99,0,5.989-0.061,8.99-0.182  c55.183-2.235,107.095-24.986,146.173-64.065c39.078-39.078,61.829-90.989,64.065-146.173  C477.388,210.069,459.217,156.807,424.002,114.955z"/>
<path d="M291.039,264.591h120.737c4.744,0,8.591-3.846,8.591-8.591c0-4.744-3.846-8.591-8.591-8.591H291.039  c-3.189-13.005-13.444-23.259-26.449-26.449V100.224c0-4.744-3.846-8.591-8.591-8.591c-4.744,0-8.591,3.846-8.591,8.591v120.737  c-15.76,3.865-27.49,18.104-27.49,35.039c0,19.895,16.186,36.081,36.081,36.081C272.935,292.081,287.174,280.35,291.039,264.591z   M256,274.899c-10.421,0-18.899-8.478-18.899-18.899s8.478-18.899,18.899-18.899s18.899,8.478,18.899,18.899  S266.421,274.899,256,274.899z"/>
<path d="M100.224,247.409c-4.744,0-8.591,3.846-8.591,8.591c0,4.744,3.846,8.591,8.591,8.591h18.327  c4.744,0,8.591-3.846,8.591-8.591c0-4.744-3.846-8.591-8.591-8.591H100.224z"/>
<path d="M247.409,393.45v18.327c0,4.744,3.846,8.591,8.591,8.591c4.744,0,8.591-3.846,8.591-8.591V393.45  c0-4.744-3.846-8.591-8.591-8.591C251.256,384.859,247.409,388.705,247.409,393.45z"/>
<g>
</g>
<g>
</g>
<g>
</g>
<g>
</g>
<g>
</g>
<g>
</g>
<g>
</g>
<g>
</g>
<g>
</g>
<g>
</g>
<g>
</g>
<g>
</g>
<g>
</g>
<g>
</g>
<g>
</g>
</svg>
