<?xml version="1.0" encoding="iso-8859-1"?>
<!-- Generator: Adobe Illustrator 19.0.0, SVG Export Plug-In . SVG Version: 6.00 Build 0)  -->
<svg xmlns="http://www.w3.org/2000/svg" xmlns:xlink="http://www.w3.org/1999/xlink" version="1.1" id="Layer_1" x="0px" y="0px" viewBox="0 0 512 512" style="enable-background:new 0 0 512 512;" xml:space="preserve">
<path id="SVGCleanerId_0" style="fill:#C7CFE2;" d="M485.556,355.024h-27.007V156.976h27.007c9.944,0,18.004,8.06,18.004,18.004  v162.04C503.56,346.964,495.5,355.024,485.556,355.024z"/>
<polygon style="fill:#AFB9D2;" points="386.532,301.011 458.549,355.024 458.549,156.976 386.532,210.989 "/>
<g>
	<path id="SVGCleanerId_0_1_" style="fill:#C7CFE2;" d="M485.556,355.024h-27.007V156.976h27.007c9.944,0,18.004,8.06,18.004,18.004   v162.04C503.56,346.964,495.5,355.024,485.556,355.024z"/>
</g>
<polygon style="fill:#959CB5;" points="422.541,183.982 386.532,210.989 386.532,301.011 422.541,328.018 "/>
<path style="fill:#C7CFE2;" d="M368.527,418.04H35.446c-14.916,0-27.007-12.091-27.007-27.007V120.967  c0-14.916,12.091-27.007,27.007-27.007h333.081c14.916,0,27.007,12.091,27.007,27.007v270.066  C395.534,405.949,383.443,418.04,368.527,418.04z"/>
<circle style="fill:#FF507D;" cx="323.517" cy="165.978" r="27.007"/>
<path style="fill:#AFB9D2;" d="M134.47,382.031c-49.718,0-90.022-40.304-90.022-90.022V93.96h-9.002  c-14.916,0-27.007,12.091-27.007,27.007v270.066c0,14.916,12.091,27.007,27.007,27.007h333.081  c14.916,0,27.007-12.091,27.007-27.007v-9.002H134.47z"/>
<path style="fill:#D23C69;" d="M337.02,179.481c-14.916,0-27.007-12.091-27.007-27.007c0-3.958,0.898-7.689,2.428-11.075  c-9.377,4.234-15.932,13.62-15.932,24.578c0,14.916,12.091,27.007,27.007,27.007c10.958,0,20.344-6.554,24.578-15.932  C344.709,178.583,340.977,179.481,337.02,179.481z"/>
<path d="M485.556,148.536h-21.237c-5.544,0-10.86,1.704-15.37,4.925l-44.975,32.125v-64.62c0-19.545-15.901-35.446-35.446-35.446  H35.446C15.901,85.521,0,101.422,0,120.967v270.066c0,19.545,15.901,35.446,35.446,35.446h333.081  c19.545,0,35.446-15.901,35.446-35.446v-64.622l44.975,32.127c4.511,3.223,9.826,4.926,15.371,4.926h21.236  c14.581,0,26.444-11.863,26.444-26.444V174.98C512,160.399,500.137,148.536,485.556,148.536z M387.095,391.033  c0,10.238-8.329,18.567-18.567,18.567H35.446c-10.238,0-18.567-8.329-18.567-18.567V120.967c0-10.238,8.329-18.567,18.567-18.567  h333.081c10.238,0,18.567,8.329,18.567,18.567V391.033z M495.121,337.02c0,5.274-4.291,9.565-9.565,9.565H464.32  c-2.005,0-3.928-0.616-5.56-1.781l-54.786-39.136V206.33l54.787-39.134c1.632-1.166,3.554-1.781,5.559-1.781h21.236  c5.274,0,9.565,4.291,9.565,9.565V337.02z"/>
<path d="M458.549,193.547c-4.661,0-8.44,3.779-8.44,8.44v108.026c0,4.661,3.779,8.44,8.44,8.44s8.44-3.779,8.44-8.44V201.987  C466.989,197.326,463.21,193.547,458.549,193.547z"/>
<path d="M350.523,157.538c-4.661,0-8.44,3.779-8.44,8.44c0,10.238-8.329,18.567-18.567,18.567c-10.238,0-18.567-8.329-18.567-18.567  s8.329-18.567,18.567-18.567c4.661,0,8.44-3.779,8.44-8.44s-3.779-8.44-8.44-8.44c-19.545,0-35.446,15.901-35.446,35.446  s15.901,35.446,35.446,35.446c19.545,0,35.446-15.901,35.446-35.446C358.963,161.317,355.184,157.538,350.523,157.538z"/>
<g>
</g>
<g>
</g>
<g>
</g>
<g>
</g>
<g>
</g>
<g>
</g>
<g>
</g>
<g>
</g>
<g>
</g>
<g>
</g>
<g>
</g>
<g>
</g>
<g>
</g>
<g>
</g>
<g>
</g>
</svg>
