<?xml version="1.0" encoding="iso-8859-1"?>
<!-- Generator: Adobe Illustrator 19.0.0, SVG Export Plug-In . SVG Version: 6.00 Build 0)  -->
<svg xmlns="http://www.w3.org/2000/svg" xmlns:xlink="http://www.w3.org/1999/xlink" version="1.1" id="Layer_1" x="0px" y="0px" viewBox="0 0 512 512" style="enable-background:new 0 0 512 512;" xml:space="preserve">
<path style="fill:#FFDC64;" d="M301.975,97.273c37.993-37.993,99.814-37.993,137.808,0s37.993,99.814,0,137.808L278.431,396.432  c-6.919,6.919-6.919,18.137,0,25.055c6.919,6.919,18.137,6.919,25.055,0l161.352-161.351c51.809-51.809,51.809-136.11,0-187.92  s-136.11-51.809-187.919,0L36.8,312.337c-37.993,37.993-37.993,99.814,0,137.808s99.814,37.993,137.808,0l202.535-202.536  c24.178-24.178,24.178-63.517,0-87.696s-63.517-24.178-87.696,0L149.552,299.809c-6.919,6.919-6.919,18.137,0,25.055  s18.137,6.919,25.055,0l139.896-139.896c10.362-10.362,27.221-10.362,37.584,0s10.362,27.221,0,37.584L149.552,425.088  c-24.178,24.178-63.517,24.178-87.696,0s-24.178-63.517,0-87.696L301.975,97.273z"/>
<path d="M283.175,127.819c3.243-3.243,3.243-8.502,0-11.744c-3.243-3.243-8.502-3.243-11.744,0L55.984,331.52  c-13.262,13.262-20.566,30.92-20.566,49.721c0,18.8,7.304,36.458,20.566,49.72c13.262,13.262,30.92,20.566,49.72,20.566  c18.801,0,36.459-7.304,49.72-20.566l179.121-179.122c3.243-3.243,3.243-8.502,0-11.744c-3.243-3.243-8.502-3.243-11.744,0  L143.68,419.216c-10.125,10.125-23.611,15.701-37.976,15.701c-14.363,0-27.85-5.576-37.975-15.701  c-10.125-10.125-15.702-23.611-15.702-37.976c0-14.364,5.576-27.85,15.702-37.976L283.175,127.819z"/>
<path d="M470.71,66.345c-26.626-26.626-62.08-41.29-99.832-41.29s-73.206,14.663-99.832,41.29L30.928,306.464  C10.984,326.408,0,352.964,0,381.24c0,28.277,10.984,54.832,30.928,74.776c19.944,19.944,46.5,30.929,74.775,30.929  c28.277,0,54.832-10.984,74.776-30.929l202.535-202.535c27.415-27.416,27.415-72.025,0-99.44  c-13.262-13.262-30.92-20.566-49.72-20.566c-18.801,0-36.459,7.304-49.72,20.566L143.679,293.936  c-4.914,4.914-7.622,11.45-7.622,18.4s2.706,13.486,7.622,18.4c10.145,10.145,26.656,10.146,36.801,0l139.896-139.896  c3.443-3.443,8.031-5.34,12.919-5.34s9.477,1.896,12.919,5.34c7.123,7.123,7.123,18.715,0,25.839c-3.243,3.243-3.243,8.502,0,11.745  c3.243,3.243,8.502,3.243,11.744,0c13.6-13.6,13.6-35.729,0-49.329c-6.58-6.581-15.34-10.204-24.663-10.204  c-9.325,0-18.085,3.624-24.665,10.204L168.735,318.992c-3.671,3.67-9.641,3.67-13.311,0c-1.777-1.777-2.756-4.141-2.756-6.655  c0-2.515,0.979-4.878,2.756-6.655L295.32,165.786c10.125-10.125,23.611-15.701,37.976-15.701c14.363,0,27.85,5.576,37.975,15.701  c20.94,20.939,20.94,55.011,0,75.951L168.735,444.271c-16.807,16.807-39.193,26.063-63.031,26.063s-46.224-9.256-63.031-26.063  C25.865,427.464,16.61,405.08,16.61,381.24s9.255-46.224,26.063-63.031l240.119-240.12c23.489-23.489,54.772-36.424,88.088-36.424  c33.315,0,64.598,12.936,88.087,36.424s36.425,54.772,36.425,88.088s-12.936,64.598-36.425,88.088L297.613,415.616  c-1.777,1.777-4.14,2.756-6.655,2.756c-2.515,0-4.878-0.979-6.656-2.756c-3.67-3.67-3.67-9.641,0-13.311l161.353-161.351  c19.944-19.944,30.928-46.5,30.928-74.776s-10.984-54.832-30.928-74.776c-19.944-19.944-46.5-30.928-74.775-30.928  c-28.276,0-54.832,10.984-74.776,30.928c-3.243,3.243-3.243,8.502,0,11.745c3.243,3.243,8.502,3.243,11.744,0  c16.807-16.807,39.193-26.063,63.031-26.063s46.224,9.256,63.031,26.063s26.063,39.192,26.063,63.031s-9.255,46.224-26.063,63.031  L272.558,390.559c-10.145,10.146-10.145,26.655,0,36.801c4.914,4.914,11.45,7.622,18.4,7.622c6.951,0,13.486-2.707,18.4-7.622  L470.71,266.009c26.626-26.626,41.29-62.08,41.29-99.832S497.337,92.97,470.71,66.345z"/>
<g>
</g>
<g>
</g>
<g>
</g>
<g>
</g>
<g>
</g>
<g>
</g>
<g>
</g>
<g>
</g>
<g>
</g>
<g>
</g>
<g>
</g>
<g>
</g>
<g>
</g>
<g>
</g>
<g>
</g>
</svg>
