<?xml version="1.0" encoding="iso-8859-1"?>
<!-- Generator: Adobe Illustrator 19.0.0, SVG Export Plug-In . SVG Version: 6.00 Build 0)  -->
<svg xmlns="http://www.w3.org/2000/svg" xmlns:xlink="http://www.w3.org/1999/xlink" version="1.1" id="Capa_1" x="0px" y="0px" viewBox="0 0 512 512" style="enable-background:new 0 0 512 512;" xml:space="preserve">
<path style="fill:#7A8391;" d="M369.364,41.531H142.633c-74.428,0-134.981,60.591-134.981,135.068v166.721  c0,6.889,5.6,12.492,12.484,12.492s12.484-5.603,12.484-12.492V176.598c0-60.701,49.351-110.084,110.013-110.084h226.732  c60.662,0,110.013,49.383,110.013,110.084V344.67c0,6.889,5.6,12.492,12.484,12.492c6.884,0,12.484-5.603,12.484-12.492V176.598  C504.345,102.122,443.793,41.531,369.364,41.531z"/>
<path style="fill:#FA9450;" d="M214.012,228.315c32.83,44.337,63.188,118.264,43.774,132.658  c-19.414,14.394-81.252-36.195-114.081-80.533s-24.219-65.635-4.805-80.028C158.315,186.019,181.182,183.978,214.012,228.315z"/>
<path style="fill:#71DB9E;" d="M139.466,122.875c10.429,26.353-7.801,42.63,7.721,72.364l-8.283,5.176l-7.36,6.423  c-23.909-23.518-44.778-10.806-66.936-28.464c-21.942-17.489,18.442-20.989,19.222-21.056c-0.548-0.356-23.016-14.693-18.469-25.971  c4.595-11.429,21.338-1.436,21.338-1.436s-4.685-18.932,7.579-20.003c12.114-1.074,19.278,24.61,19.458,25.238  C114.028,134.418,129.135,96.779,139.466,122.875z"/>
<path style="fill:#E37749;" d="M214.012,228.315c-25.286-34.149-44.66-40.783-61.101-35.453  c11.814,3.759,25.182,14.35,40.808,35.453c32.83,44.337,63.188,118.265,43.774,132.658c-0.039,0.029-0.081,0.052-0.12,0.08  c8.597,3.076,15.738,3.386,20.413-0.08C277.2,346.58,246.841,272.654,214.012,228.315z"/>
<g>
	<path style="fill:#62C473;" d="M93.445,135.144c0.168-0.421,5.294-13.19,11.585-18.833c-2.929-3.915-6.54-6.778-10.75-6.404   c-5.298,0.463-7.429,4.258-8.146,8.421C90.757,125.528,93.337,134.772,93.445,135.144z"/>
	<path style="fill:#62C473;" d="M139.466,122.875c-6.376-16.108-14.571-7.934-19.979,0.854c9.703,25.849-7.945,42.1,7.408,71.51   l-5.56,3.474c3.349,2.089,6.747,4.717,10.21,8.124l7.36-6.423l8.283-5.175C131.664,165.506,149.895,149.228,139.466,122.875z"/>
</g>
<path style="fill:#55A84E;" d="M348.686,303.73c52.899-12.145,88.285-57.444,79.669-101.599c-0.081-0.412-0.168-0.831-0.254-1.252  c-2.801-13.097-9.185-24.6-18.162-34.005c-0.988-1.03-1.998-2.038-3.037-3.017c-21.85-20.5-56.765-29.694-92.747-21.431  c-45.88,10.536-78.584,46.014-80.828,84.048c-0.222,3.615-0.159,7.248,0.193,10.888c0.25,2.636,0.656,5.287,1.225,7.923  c0.273,1.286,0.585,2.56,0.923,3.822C247.233,291.31,296.837,315.645,348.686,303.73z"/>
<path style="fill:#62C473;" d="M428.353,202.136c-5.134,6.456-11.664,12.542-18.846,17.948  c-20.534,15.51-46.43,25.594-60.372,23.495c-26.656-3.997-45.622-36.067-81.256-9.154c-12.074,9.114-23.97,16.389-32.208,14.681  c-0.34-1.259-0.65-2.538-0.928-3.828c-9.538-44.531,26.016-90.592,79.418-102.854c35.984-8.265,70.888,0.929,92.74,21.436  c10.576,9.924,18.096,22.495,21.202,37.016C428.183,201.297,428.273,201.716,428.353,202.136z"/>
<path style="fill:#71DB9E;" d="M406.901,163.861c-1.848,5.686-4.464,10.663-7.67,14.98c-19.146,25.833-59.154,28.122-78.368,18.168  c-24.308-12.602-42.974-4.387-65.326,20.946c-8.688,9.854-16.14,15.81-22.012,19.408c-0.36-3.638-0.42-7.275-0.2-10.893  c2.248-38.025,34.954-73.513,80.836-84.046c5.472-1.259,10.936-2.109,16.318-2.578h0.01c0.08-0.01,0.16-0.01,0.24-0.02  C360.621,137.278,388.425,146.522,406.901,163.861z"/>
<path style="fill:#62C473;" d="M406.901,163.861c-1.848,5.686-4.464,10.663-7.67,14.98c-2.646-4.287-5.762-8.295-9.268-11.962  c-0.988-1.039-1.998-2.039-3.036-3.018c-14.322-13.441-34.256-22.026-56.438-24.015c0.08-0.01,0.16-0.01,0.24-0.02  C360.621,137.278,388.425,146.522,406.901,163.861z"/>
<path style="fill:#55A84E;" d="M428.353,202.136c-5.134,6.456-11.664,12.542-18.846,17.948c0.4-5.946,0.04-11.962-1.128-17.948  c-0.08-0.42-0.17-0.839-0.25-1.259c-1.708-7.975-4.744-15.36-8.898-22.036c3.206-4.317,5.822-9.294,7.67-14.98  c10.576,9.924,18.096,22.495,21.202,37.016C428.183,201.297,428.273,201.716,428.353,202.136z"/>
<path style="fill:#FA9450;" d="M290.094,249.348c16.913,52.522,22.018,132.284-0.981,139.699  c-22.998,7.415-65.392-60.323-82.305-112.845s-1.942-69.939,21.057-77.354C250.864,191.432,273.181,196.826,290.094,249.348z"/>
<path style="fill:#71DB9E;" d="M253.213,125.574c1.447,28.307-21.031,37.886-15.842,71.028l-9.503,2.249l-9.027,3.726  c-15.124-29.94-38.963-24.584-54.303-48.412c-15.19-23.598,24.187-13.976,24.948-13.789c-0.405-0.513-17.103-21.293-9.186-30.521  c8.011-9.354,20.675,5.476,20.675,5.476s1.62-19.436,13.581-16.521c11.82,2.864,10.388,29.491,10.358,30.144  C225.421,128.358,251.778,97.541,253.213,125.574z"/>
<path style="fill:#E37749;" d="M290.094,249.348c-15.801-49.068-36.318-57.001-57.701-51.786  c13.836,4.186,26.705,18.545,37.408,51.786c15.481,48.074,21.063,118.957,4.263,136.307c5.517,3.465,10.64,4.813,15.049,3.392  C312.112,381.632,307.007,301.87,290.094,249.348z"/>
<g>
	<path style="fill:#62C473;" d="M204.62,128.953c0.325-0.382,11.248-13.153,19.439-14.932c-1.174-6.878-3.787-13.825-9.506-15.211   c-7.035-1.715-10.491,4.303-12.146,9.55C205.252,117.081,204.64,128.529,204.62,128.953z"/>
	<path style="fill:#62C473;" d="M253.213,125.574c-0.946-18.475-12.716-11.389-20.778-4.238c0.236,1.234,0.403,2.635,0.485,4.238   c1.447,28.307-21.031,37.886-15.842,71.028l-1.446,0.343c1.105,1.732,2.179,3.594,3.209,5.632l9.027-3.727l9.503-2.249   C232.181,163.459,254.66,153.881,253.213,125.574z"/>
</g>
<g>
	<rect x="27.959" y="306.903" style="fill:#AAB0B8;" width="36.453" height="19.987"/>
	<rect x="447.921" y="306.903" style="fill:#AAB0B8;" width="36.453" height="19.987"/>
</g>
<path style="fill:#8FB8F9;" d="M424.684,477.858H87.646c-12.832,0-23.234-10.402-23.234-23.234V283.982h383.506v170.641  C447.917,467.455,437.515,477.858,424.684,477.858z"/>
<path style="fill:#74A1E2;" d="M427.943,283.982v170.634c0,12.836-10.398,23.241-23.226,23.241h19.974  c12.828,0,23.226-10.405,23.226-23.241V283.982H427.943z"/>
<rect x="51.427" y="246.002" style="fill:#FACB57;" width="409.476" height="37.976"/>
<rect x="440.926" y="246.002" style="fill:#F0AF46;" width="19.974" height="37.976"/>
<g>
	<path style="fill:#7A8391;" d="M121.37,450.875L121.37,450.875c-8.274,0-14.98-6.707-14.98-14.98V325.945   c0-8.274,6.707-14.98,14.98-14.98l0,0c8.274,0,14.98,6.707,14.98,14.98v109.948C136.35,444.168,129.643,450.875,121.37,450.875z"/>
	<path style="fill:#7A8391;" d="M188.767,450.875L188.767,450.875c-8.274,0-14.98-6.707-14.98-14.98V325.945   c0-8.274,6.707-14.98,14.98-14.98l0,0c8.274,0,14.98,6.707,14.98,14.98v109.948C203.748,444.168,197.041,450.875,188.767,450.875z"/>
	<path style="fill:#7A8391;" d="M256.165,450.875L256.165,450.875c-8.274,0-14.98-6.707-14.98-14.98V325.945   c0-8.274,6.707-14.98,14.98-14.98l0,0c8.274,0,14.98,6.707,14.98,14.98v109.948C271.145,444.168,264.439,450.875,256.165,450.875z"/>
	<path style="fill:#7A8391;" d="M323.562,450.875L323.562,450.875c-8.274,0-14.98-6.707-14.98-14.98V325.945   c0-8.274,6.707-14.98,14.98-14.98l0,0c8.274,0,14.98,6.707,14.98,14.98v109.948C338.543,444.168,331.836,450.875,323.562,450.875z"/>
	<path style="fill:#7A8391;" d="M390.96,450.875L390.96,450.875c-8.274,0-14.98-6.707-14.98-14.98V325.945   c0-8.274,6.707-14.98,14.98-14.98l0,0c8.274,0,14.98,6.707,14.98,14.98v109.948C405.94,444.168,399.234,450.875,390.96,450.875z"/>
</g>
<path style="fill:#FACB57;" d="M350.651,74.118H161.679c-2.974,0-5.386-2.411-5.386-5.386V39.529c0-2.974,2.411-5.386,5.386-5.386  H350.65c2.974,0,5.386,2.411,5.386,5.386v29.203C356.036,71.706,353.625,74.118,350.651,74.118z"/>
<path style="fill:#F0AF46;" d="M350.652,34.144h-19.974c2.973,0,5.384,2.412,5.384,5.388v29.2c0,2.975-2.41,5.388-5.384,5.388  h19.974c2.973,0,5.384-2.412,5.384-5.388v-29.2C356.036,36.556,353.626,34.144,350.652,34.144z"/>
<path d="M448.041,437.352c-4.139,0-7.495,3.356-7.495,7.495v9.769c0,8.682-7.063,15.746-15.746,15.746H87.53  c-8.682,0-15.746-7.063-15.746-15.746v-70.398c0-4.139-3.356-7.495-7.495-7.495s-7.495,3.356-7.495,7.495v70.398  c0,16.948,13.788,30.736,30.736,30.736h337.27c16.948,0,30.736-13.788,30.736-30.736v-9.769  C455.536,440.707,452.181,437.352,448.041,437.352z"/>
<path d="M143.768,435.885V325.955c0-12.399-10.087-22.486-22.486-22.486s-22.486,10.086-22.486,22.486v109.929  c0,12.399,10.087,22.486,22.486,22.486S143.768,448.284,143.768,435.885z M113.788,435.885V325.955c0-4.133,3.362-7.495,7.495-7.495  c4.133,0,7.495,3.362,7.495,7.495v109.929c0,4.133-3.362,7.495-7.495,7.495C117.149,443.38,113.788,440.018,113.788,435.885z"/>
<path d="M211.21,435.885V325.955c0-12.399-10.087-22.486-22.486-22.486s-22.486,10.086-22.486,22.486v109.929  c0,12.399,10.087,22.486,22.486,22.486S211.21,448.284,211.21,435.885z M181.229,435.885V325.955c0-4.133,3.362-7.495,7.495-7.495  c4.133,0,7.495,3.362,7.495,7.495v109.929c0,4.133-3.362,7.495-7.495,7.495C184.591,443.38,181.229,440.018,181.229,435.885z"/>
<path d="M278.65,435.885V325.955c0-12.399-10.086-22.486-22.486-22.486c-12.399,0-22.486,10.086-22.486,22.486v109.929  c0,12.399,10.087,22.486,22.486,22.486S278.65,448.284,278.65,435.885z M248.67,435.885V325.955c0-4.133,3.362-7.495,7.495-7.495  c4.133,0,7.495,3.362,7.495,7.495v109.929c0,4.133-3.362,7.495-7.495,7.495C252.032,443.38,248.67,440.018,248.67,435.885z"/>
<path d="M346.091,435.885V325.955c0-12.399-10.086-22.486-22.486-22.486s-22.486,10.086-22.486,22.486v109.929  c0,12.399,10.086,22.486,22.486,22.486S346.091,448.284,346.091,435.885z M316.11,435.885V325.955c0-4.133,3.362-7.495,7.495-7.495  s7.495,3.362,7.495,7.495v109.929c0,4.133-3.362,7.495-7.495,7.495S316.11,440.018,316.11,435.885z"/>
<path d="M413.532,435.885V325.955c0-12.399-10.086-22.486-22.486-22.486s-22.486,10.086-22.486,22.486v109.929  c0,12.399,10.086,22.486,22.486,22.486S413.532,448.284,413.532,435.885z M383.552,435.885V325.955c0-4.133,3.362-7.495,7.495-7.495  c4.133,0,7.495,3.362,7.495,7.495v109.929c0,4.133-3.362,7.495-7.495,7.495C386.914,443.38,383.552,440.018,383.552,435.885z"/>
<path d="M369.442,34.035h-7.095c-2.068-4.358-6.498-7.386-11.633-7.386H216.857c-4.139,0-7.495,3.356-7.495,7.495  c0,4.139,3.356,7.495,7.495,7.495h131.748v24.984H163.724V41.639h16.822c4.139,0,7.495-3.356,7.495-7.495s-3.356-7.495-7.495-7.495  h-18.93c-5.136,0-9.566,3.028-11.634,7.386h-7.425C63.952,34.035,0,97.99,0,176.603v166.713c0,11.021,8.966,19.987,19.987,19.987  s19.987-8.966,19.987-19.987v-8.934h16.819v14.86c0,4.139,3.356,7.495,7.495,7.495s7.495-3.356,7.495-7.495v-22.356v-19.987v-15.421  h368.762v15.421v19.987v82.317c0,4.139,3.356,7.495,7.495,7.495c4.139,0,7.495-3.356,7.495-7.495v-74.822h16.489v10.293  c0,11.021,8.966,19.987,19.987,19.987S512,355.695,512,344.674V176.603C512,97.99,448.048,34.035,369.442,34.035z M24.984,343.315  c0,2.755-2.242,4.997-4.997,4.997s-4.997-2.242-4.997-4.997V176.603c0-70.347,57.227-127.578,127.568-127.578h6.176v9.994h-6.176  c-64.831,0-117.574,52.748-117.574,117.584V343.315z M39.974,319.391v-4.997h16.819v4.997H39.974z M63.789,276.487v-22.985h60.503  c0.013,0,0.025,0.003,0.037,0.003s0.025-0.003,0.037-0.003h75.529c0.031,0,0.061,0,0.092,0h88.99c0.013,0,0.025,0.003,0.037,0.003  c0.012,0,0.024-0.003,0.036-0.003h134.008c0.019,0,0.038,0.003,0.057,0.003c0.014,0,0.027-0.003,0.041-0.003h25.387v22.985H63.789z   M87.753,151.002c-11.48-7.411-16.303-15.019-15.562-16.857c0.234-0.583,0.369-0.628,0.449-0.656  c1.671-0.572,5.771,0.63,8.909,2.208l26.026,35.127c1.471,1.985,3.735,3.034,6.028,3.034c1.551,0,3.115-0.48,4.456-1.473  c3.326-2.464,4.024-7.158,1.561-10.484l-26.026-35.127c-0.6-3.473-0.556-7.73,0.476-9.163c0.049-0.068,0.132-0.183,0.767-0.238  c1.937-0.176,7.844,6.654,11.609,19.849c0.887,3.076,3.631,5.249,6.829,5.409c3.193,0.16,6.143-1.73,7.332-4.702  c2.734-6.836,7.148-14.046,9.809-16.246c0.485,0.682,1.192,1.891,2.009,3.952c4.072,10.284,3.031,18.696,1.824,28.436  c-1.348,10.882-2.85,23.038,3.231,38.153c-1.039,0.687-2.079,1.399-3.118,2.17c-1.036,0.768-2.025,1.548-2.981,2.337  c-12.686-10.213-24.751-12.316-35.551-14.196c-9.669-1.682-18.019-3.134-26.672-10.025c-1.735-1.382-2.686-2.411-3.197-3.073  c2.879-1.906,11.062-4.028,18.396-4.652c3.195-0.272,5.847-2.555,6.622-5.666C91.752,156.009,90.447,152.741,87.753,151.002z   M136.785,212.143l6.519-5.685l7.782-4.859c0.014-0.009,0.026-0.019,0.04-0.028c11.264-5.436,24.903-4.639,44.325,16.08  c-2.345,6.035-3.484,12.978-3.42,20.863h-62.01C127.683,227.95,129.792,219.605,136.785,212.143z M192.837,168.144  c-8.621-4.689-16.068-8.739-22.058-18.036c-1.201-1.865-1.772-3.144-2.044-3.935c3.338-0.882,11.769-0.274,18.918,1.483  c3.113,0.766,6.358-0.549,8.088-3.248c1.73-2.699,1.541-6.213-0.454-8.723c-7.623-9.59-10.877-19.169-9.345-20.952  c0.416-0.484,0.563-0.464,0.64-0.477c1.771,0,5.265,2.447,7.728,4.945l13.408,41.612c1.023,3.176,3.966,5.199,7.132,5.199  c0.762,0,1.536-0.117,2.301-0.363c3.939-1.27,6.104-5.493,4.835-9.433l-13.41-41.618c0.501-3.175,1.845-7.41,3.383-8.519  c0.069-0.051,0.185-0.134,0.805,0.018c1.56,0.378,5.351,7.856,4.642,22.516c-0.146,3.199,1.757,6.137,4.735,7.313  c2.979,1.176,6.376,0.331,8.454-2.106c4.78-5.6,11.269-11.017,14.494-12.249c0.241,0.8,0.524,2.173,0.638,4.387  c0.565,11.047-3.116,18.681-7.377,27.522c-4.761,9.876-10.075,20.911-9.156,37.173c-1.203,0.32-2.415,0.665-3.648,1.062  c-1.228,0.396-2.412,0.822-3.572,1.265C213.225,179.238,202.467,173.383,192.837,168.144z M394.697,238.512  c9.747-5.238,19.272-11.761,27.413-18.983c-0.407,6.358-1.759,12.739-4.047,18.983H394.697z M206.967,238.512  c-0.149-6.464,0.668-12.699,3.651-18.141c0.177-0.273,0.341-0.552,0.479-0.84c2.379-3.971,5.984-7.491,11.312-10.326l7.748-3.196  l8.886-2.102c0.787-0.099,1.576-0.17,2.365-0.212c0.391,0.015,0.781,0.004,1.165-0.042c6.293-0.094,12.598,1.829,18.766,7.497  c0.031,0.036,0.057,0.074,0.089,0.109c0.289,0.321,0.604,0.602,0.931,0.86c4.009,3.967,7.958,9.571,11.802,17.283  c0.014,0.036,0.023,0.073,0.038,0.108c0.141,0.345,0.311,0.667,0.495,0.978c1.195,2.464,2.379,5.132,3.553,8.025L206.967,238.512  L206.967,238.512z M409.171,177.424c4.626,6.006,8.134,12.663,10.336,19.763c0.005,0.015,0.01,0.031,0.014,0.046  c0.297,0.96,0.571,1.93,0.82,2.905c0.002,0.007,0.004,0.014,0.006,0.021c-20,22.942-55.948,38.118-70.044,36.007  c-7.284-1.09-14.291-4.862-21.71-8.855c-12.408-6.679-26.297-14.142-43.779-9.714c-2.228-3.932-4.565-7.447-7.012-10.568  c13.479-10.085,25.074-10.916,39.653-3.364c15.993,8.282,40.949,8.401,60.688,0.293C391.943,198.29,402.48,189.222,409.171,177.424z   M294.301,238.512c-0.888-2.406-1.795-4.737-2.725-6.966c9.287-1.257,17.42,2.349,26.173,6.966H294.301z M315.874,149.73  c0.049-0.011,0.099-0.021,0.149-0.032c0.887-0.203,1.776-0.393,2.664-0.573c0.21-0.043,0.421-0.081,0.631-0.122  c0.179-0.035,0.358-0.067,0.537-0.101c0.587-0.112,1.172-0.225,1.759-0.328c0.132-0.023,0.264-0.045,0.396-0.067  c0.328-0.056,0.656-0.106,0.983-0.159c0.565-0.092,1.13-0.185,1.695-0.268c0.446-0.065,0.891-0.121,1.336-0.181  c0.533-0.071,1.065-0.144,1.597-0.207c0.46-0.055,0.919-0.102,1.379-0.15c0.519-0.055,1.036-0.111,1.554-0.158  c0.466-0.043,0.931-0.079,1.396-0.115c0.51-0.04,1.019-0.08,1.528-0.113c0.472-0.03,0.942-0.055,1.413-0.08  c0.5-0.026,0.999-0.05,1.498-0.069c0.476-0.018,0.95-0.031,1.425-0.043c0.494-0.012,0.987-0.021,1.48-0.027  c0.477-0.005,0.952-0.007,1.428-0.006c0.488,0.001,0.974,0.006,1.461,0.014c0.477,0.008,0.953,0.018,1.429,0.032  c0.482,0.014,0.962,0.034,1.443,0.054c0.479,0.021,0.956,0.043,1.433,0.07c0.475,0.027,0.948,0.06,1.422,0.094  c0.477,0.034,0.953,0.068,1.429,0.108c0.47,0.04,0.938,0.087,1.407,0.133c0.476,0.047,0.952,0.093,1.426,0.146  c0.462,0.052,0.92,0.112,1.38,0.17c0.477,0.06,0.953,0.118,1.428,0.185c0.454,0.064,0.904,0.137,1.357,0.207  c0.475,0.074,0.951,0.144,1.424,0.224c0.443,0.075,0.881,0.16,1.321,0.241c0.479,0.088,0.958,0.171,1.434,0.266  c0.406,0.081,0.806,0.172,1.21,0.257c1.18,0.25,2.352,0.519,3.514,0.81c0.198,0.05,0.398,0.094,0.596,0.145  c0.506,0.131,1.006,0.274,1.509,0.412c0.382,0.105,0.767,0.206,1.145,0.316c0.487,0.141,0.968,0.293,1.452,0.441  c0.388,0.119,0.779,0.235,1.164,0.359c0.477,0.154,0.949,0.317,1.422,0.478c0.386,0.131,0.773,0.26,1.156,0.396  c0.469,0.166,0.932,0.341,1.397,0.515c0.381,0.142,0.763,0.283,1.14,0.43c0.46,0.179,0.915,0.365,1.37,0.551  c0.377,0.154,0.754,0.307,1.127,0.466c0.45,0.191,0.895,0.388,1.34,0.586c0.372,0.166,0.743,0.331,1.111,0.501  c0.441,0.204,0.878,0.413,1.314,0.623c0.365,0.176,0.729,0.354,1.09,0.535c0.431,0.216,0.859,0.436,1.286,0.659  c0.359,0.188,0.717,0.378,1.072,0.571c0.421,0.228,0.839,0.459,1.255,0.694c0.353,0.199,0.704,0.402,1.053,0.606  c0.364,0.213,0.727,0.428,1.086,0.646c0.261,0.158,0.52,0.319,0.779,0.48c0.132,0.082,0.265,0.164,0.396,0.247  c0.221,0.139,0.44,0.28,0.659,0.421c0.749,0.482,1.487,0.973,2.212,1.477c0.109,0.075,0.219,0.149,0.327,0.224  c0.862,0.606,1.71,1.224,2.538,1.859c0.026,0.02,0.052,0.04,0.078,0.06c0.618,0.474,1.214,0.964,1.813,1.454  c-5.992,13.468-17.044,20.457-25.682,24.005c-17.794,7.309-37.666,5.663-48.098,0.263c-20.225-10.475-38.574-8.57-57.299,6.066  c-4.07-2.97-8.406-5.065-13.013-6.324c5.737-8.331,13.061-15.787,21.577-22.062C287.186,159.51,300.943,153.157,315.874,149.73z   M456.036,291.478c4.139,0,7.495-3.356,7.495-7.495v-37.976c0-4.139-3.356-7.495-7.495-7.495h-22.198  c3.706-12.498,4.412-25.38,1.989-37.78l-0.002-0.009c-0.002-0.011-0.003-0.022-0.005-0.033l-0.244-1.217  c-0.011-0.056-0.022-0.111-0.034-0.167c0-0.001-0.001-0.002-0.001-0.004c-0.245-1.14-0.525-2.271-0.821-3.397  c-0.084-0.319-0.17-0.636-0.258-0.953c-0.275-0.989-0.566-1.975-0.879-2.952c-0.047-0.145-0.088-0.292-0.135-0.438  c-0.352-1.073-0.737-2.136-1.135-3.193c-0.122-0.323-0.248-0.645-0.374-0.965c-0.37-0.939-0.756-1.873-1.161-2.798  c-0.062-0.142-0.119-0.285-0.183-0.427c-0.485-1.084-1-2.156-1.535-3.219c-0.099-0.196-0.2-0.391-0.3-0.586  c-3.466-6.753-7.929-13.049-13.295-18.666c-1.062-1.115-2.151-2.197-3.339-3.317c-0.984-0.923-2-1.816-3.028-2.693  c-0.078-0.066-0.157-0.131-0.235-0.197c-0.878-0.745-1.773-1.471-2.681-2.183c-0.225-0.177-0.449-0.354-0.676-0.528  c-0.862-0.661-1.737-1.308-2.624-1.939c-0.324-0.231-0.651-0.46-0.978-0.688c-0.801-0.554-1.61-1.097-2.43-1.627  c-0.194-0.126-0.379-0.26-0.575-0.385c-21.356-13.599-48.503-18.872-75.825-14.986c-0.101,0.014-0.202,0.03-0.303,0.044  c-0.953,0.138-1.907,0.287-2.859,0.447c-0.262,0.044-0.523,0.087-0.783,0.133c-0.829,0.145-1.659,0.3-2.487,0.461  c-0.292,0.057-0.585,0.111-0.876,0.17c-1.08,0.219-2.161,0.448-3.24,0.696c-16.359,3.755-31.511,10.646-44.438,19.895  c-8.732,6.247-16.446,13.572-22.83,21.741c1.405-5.959,3.9-11.166,6.601-16.767c4.502-9.34,9.606-19.926,8.845-34.798l0,0  c-0.509-9.921-3.955-16.035-10.244-18.172c-6.226-2.116-13.132,1.04-19.057,5.428c-1.656-9.159-5.686-18.64-15.093-20.918  c-4.789-1.166-9.321-0.341-13.106,2.387c-2.972,2.142-5.045,5.183-6.489,8.296c-2.992-1.684-6.453-2.943-10.116-2.945  c-0.004,0-0.007,0-0.011,0c-4.661,0-8.818,1.976-12.016,5.707c-6.303,7.342-4.041,17.391-0.038,25.795  c-7.352-0.104-14.82,1.367-18.64,6.721c-3.859,5.408-3.088,12.384,2.292,20.737c8.065,12.518,18.388,18.133,27.497,23.088  c8.782,4.777,16.543,9.023,23.062,18.821c-1.836,1.385-3.52,2.879-5.051,4.483c-17.989-18.008-35.389-24.298-52.674-18.962  c-4.187-11.02-3.12-19.81-1.89-29.742c1.274-10.289,2.719-21.953-2.763-35.798l0,0c-3.659-9.235-8.881-13.924-15.524-13.935  c-0.008,0-0.015,0-0.023,0c-5.761,0-11.108,3.696-16.279,11.274c-4.502-8.159-11.36-15.861-21.01-15.014  c-4.909,0.429-8.938,2.662-11.651,6.458c-2.13,2.98-3.12,6.525-3.491,9.937c-3.373-0.637-7.054-0.722-10.527,0.449  c-4.421,1.491-7.731,4.695-9.568,9.259c-3.624,8.983,1.755,17.791,8.25,24.473c-8.766,2.743-13.86,6.788-15.532,12.311  c-1.925,6.358,1.04,12.721,8.81,18.91c11.648,9.277,23.227,11.291,33.442,13.068c9.845,1.712,18.554,3.249,27.862,10.436  c-6.146,8.991-8.252,19.19-6.36,30.77H56.294c-4.139,0-7.495,3.356-7.495,7.495v37.976c0,4.139,3.356,7.495,7.495,7.495h0.5v7.926  H39.974V176.6c0-56.571,46.018-102.594,102.584-102.594h7.319c2.021,4.476,6.517,7.604,11.739,7.604h189.097  c5.222,0,9.718-3.128,11.739-7.604h6.989c56.566,0,102.584,46.023,102.584,102.594V299.4h-16.489v-7.926h0.499V291.478z   M455.536,319.391v-4.997h16.489v4.997H455.536z M497.01,344.674c0,2.755-2.242,4.997-4.997,4.997s-4.997-2.242-4.997-4.997V176.603  c0-64.836-52.743-117.584-117.574-117.584h-5.846v-9.994h5.846c70.341,0,127.568,57.231,127.568,127.578V344.674z"/>
<g>
</g>
<g>
</g>
<g>
</g>
<g>
</g>
<g>
</g>
<g>
</g>
<g>
</g>
<g>
</g>
<g>
</g>
<g>
</g>
<g>
</g>
<g>
</g>
<g>
</g>
<g>
</g>
<g>
</g>
</svg>
