<?xml version="1.0" encoding="UTF-8"?>
<!DOCTYPE svg PUBLIC "-//W3C//DTD SVG 1.1//EN" "http://www.w3.org/Graphics/SVG/1.1/DTD/svg11.dtd">
<!-- Creator: CorelDRAW -->
<svg xmlns="http://www.w3.org/2000/svg" xml:space="preserve" width="6.82666in" height="6.82666in" style="shape-rendering:geometricPrecision; text-rendering:geometricPrecision; image-rendering:optimizeQuality; fill-rule:evenodd; clip-rule:evenodd"
viewBox="0 0 6.82666 6.82666"
 xmlns:xlink="http://www.w3.org/1999/xlink">
 <defs>
  <style type="text/css">
   <![CDATA[
    .fil0 {fill:none}
    .fil14 {fill:#092F6A}
    .fil13 {fill:#0B3A83}
    .fil12 {fill:#0D47A1}
    .fil6 {fill:#1B7ACE}
    .fil4 {fill:#1E88E5}
    .fil11 {fill:#4C342D}
    .fil9 {fill:#5D4037}
    .fil7 {fill:#74B377}
    .fil5 {fill:#81C784}
    .fil3 {fill:#FFA000}
    .fil2 {fill:#FFB300}
    .fil1 {fill:#263238;fill-rule:nonzero}
    .fil10 {fill:#725950;fill-rule:nonzero}
    .fil8 {fill:#8D6E63;fill-rule:nonzero}
   ]]>
  </style>
 </defs>
 <g id="Layer_x0020_1">
  <metadata id="CorelCorpID_0Corel-Layer"/>
  <g id="_276262664">
   <rect id="_276263144" class="fil0" width="6.82666" height="6.82666"/>
   <rect id="_276262832" class="fil0" x="0.853331" y="0.853331" width="5.12" height="5.12"/>
  </g>
  <path class="fil1" d="M3.27396 0.931059c-0.0827717,0.00283858 -0.130965,0.0943504 -0.0863937,0.164248 0.0206181,0.0317402 0.0552835,0.050063 0.0931575,0.0489803l0.0134409 -0.000385827 0.0148701 -0.000326772 0.0148937 -0.000240157 0.0149252 -0.000137795 0.0149449 -4.72441e-005 0.00879134 1.1811e-005 0.00876378 5.11811e-005 0.00877559 8.26772e-005 0.00876772 0.000114173 0.00873622 0.000145669 0.00874803 0.000181102 0.00874016 0.000208661 0.00873622 0.000244094 0.00872047 0.000275591 0.0087126 0.000311024 0.00870472 0.000338583 0.00866929 0.000370079 0.0087126 0.000409449 0.00867323 0.000433071 0.00864173 0.000468504 0.0086811 0.000503937 0.00864961 0.000527559 0.00864173 0.000566929 0.00864961 0.000594488 0.00861811 0.000625984 0.00861024 0.00065748 0.00859843 0.000688976 0.00859055 0.000720472 0.00400394 0.000350394c0.0841654,0.00673228 0.142413,-0.0807913 0.103579,-0.15587 -0.0173937,-0.0325315 -0.0485512,-0.0533189 -0.0853268,-0.0566811l-0.00400394 -0.000350394 -0.0093937 -0.000791339 -0.00940157 -0.000751969 -0.00941339 -0.000720472 -0.00942126 -0.000681102 -0.00940551 -0.000649606 -0.00943701 -0.000614173 -0.00944488 -0.000582677 -0.00942913 -0.000543307 -0.00948425 -0.000515748 -0.00947638 -0.000472441 -0.00945276 -0.000440945 -0.00951181 -0.000409449 -0.00949213 -0.000370079 -0.0095 -0.000334646 -0.00951575 -0.000299213 -0.00951575 -0.000267717 -0.00952756 -0.000232283 -0.00953543 -0.00019685 -0.00956299 -0.000161417 -0.00954724 -0.000122047 -0.00955512 -9.05512e-005 -0.00959055 -5.11811e-005 -0.00957087 -1.9685e-005 -0.0162913 5.51181e-005 -0.0162717 0.000153543 -0.016248 0.000255906 -0.0162244 0.000358268 -0.0148031 0.000425197zm-0.594579 0.312138c0.0756614,-0.0240118 0.0999488,-0.117681 0.0454921,-0.175512 -0.0282717,-0.0292638 -0.0699094,-0.0403189 -0.10887,-0.028189l-0.0120669 0.0037126 -0.0147756 0.00464567 -0.0147598 0.00473622 -0.0147165 0.00483071 -0.0146614 0.00491339 -0.0146417 0.00500394 -0.0145827 0.00508661 -0.0145551 0.00517323 -0.0145236 0.00527165 -0.0144567 0.00534252 -0.0144134 0.00542913 -0.0143898 0.00551969 -0.0143386 0.0056063 -0.0143031 0.00568898 -0.00847244 0.00343307c-0.0773071,0.0319724 -0.0899252,0.135906 -0.0221339,0.185209 0.0301693,0.0215512 0.0684331,0.0262874 0.102835,0.0122717l0.00724409 -0.00293701 0.0130748 -0.00520079 0.013126 -0.00512598 0.0131535 -0.00504724 0.0132087 -0.00497244 0.0132441 -0.00490157 0.0132559 -0.00480709 0.013311 -0.00473228 0.0133543 -0.00466142 0.013374 -0.00457087 0.0134331 -0.00449606 0.0134488 -0.00441339 0.0134921 -0.00433465 0.0135472 -0.00425984 0.0120669 -0.0037126zm-0.722126 0.370157c0.0637717,-0.0490906 0.0524685,-0.14835 -0.0208228,-0.181799 -0.0362205,-0.0161772 -0.0773976,-0.0115827 -0.108988,0.0125079l-0.00667717 0.00508661 -0.0119882 0.00924409 -0.0119331 0.00932283 -0.011878 0.00938976 -0.0118268 0.0094685 -0.011752 0.00952362 -0.0117047 0.00959843 -0.0116535 0.00967717 -0.0115748 0.00972835 -0.0115276 0.00980315 -0.0114724 0.00987795 -0.0114134 0.00994882 -0.0113346 0.01 -0.0112795 0.0100669 -0.0112205 0.0101378 -0.00193307 0.00176772c-0.026378,0.0243346 -0.0386614,0.059685 -0.0331575,0.0951299 0.0135866,0.0841339 0.114764,0.119346 0.177591,0.061878l0.000972441 -0.000893701 0.0102835 -0.0092874 0.0103425 -0.00923228 0.0103976 -0.00917323 0.010437 -0.00909843 0.0104961 -0.00903543 0.0105512 -0.00897638 0.010622 -0.0089252 0.0106535 -0.00885039 0.0107205 -0.0087874 0.0107756 -0.00873622 0.0108189 -0.00865748 0.010878 -0.00860236 0.0109331 -0.00853543 0.0109882 -0.00848031 0.00667717 -0.00508661zm-0.549984 0.59676c0.040563,-0.0645512 0.00299606,-0.148831 -0.0720394,-0.162181 -0.0427756,-0.00708661 -0.0849488,0.011437 -0.108244,0.0481181l-0.00576378 0.00905512 -0.00808268 0.0128583 -0.00802362 0.012937 -0.00793307 0.0129764 -0.0078622 0.0130197 -0.00777953 0.0130787 -0.00770472 0.0131181 -0.00762992 0.0131772 -0.00755512 0.0132323 -0.0074685 0.0132677 -0.00740157 0.0133228 -0.00732283 0.0133898 -0.00723622 0.0134173 -0.00716535 0.0134803 -0.00634252 0.0121102c-0.0304646,0.0594055 -0.000732283,0.130894 0.0629606,0.151071 0.0494685,0.0152677 0.102339,-0.00677165 0.126323,-0.0526693l0.00574409 -0.0109685 0.00655118 -0.0123228 0.00662992 -0.0122913 0.00669291 -0.0122323 0.00677165 -0.0121969 0.00684646 -0.0121654 0.00690945 -0.0120984 0.00698425 -0.0120591 0.00705906 -0.0120236 0.00712598 -0.0119685 0.00719291 -0.0119252 0.00726378 -0.011874 0.00732283 -0.011811 0.00741339 -0.0117874 0.00576378 -0.00905512zm-0.309437 0.749724c0.0167362,-0.0799646 -0.0585079,-0.148102 -0.136591,-0.123732 -0.0369724,0.0119252 -0.0639252,0.0416969 -0.0721417,0.0796693l-0.0026378 0.012315 -0.00319685 0.015374 -0.00310236 0.0154055 -0.00300787 0.0154449 -0.00291732 0.0154764 -0.0028189 0.0155118 -0.00272835 0.0155433 -0.00262992 0.0155827 -0.0025315 0.0156024 -0.00244094 0.015626 -0.00234646 0.0156772 -0.00224803 0.0157008 -0.00215354 0.0157402 -0.00205118 0.0157598 -0.000582677 0.00470866c-0.00623228,0.0542205 0.0280315,0.10352 0.0810315,0.116531 0.0624094,0.0146614 0.122728,-0.0274055 0.130764,-0.0909488l0.000425197 -0.00340945 0.00187795 -0.0144291 0.00196457 -0.0143858 0.00205906 -0.0143701 0.00214173 -0.0143386 0.00223622 -0.0143189 0.0023189 -0.0142874 0.00240945 -0.0142441 0.00249213 -0.0142283 0.00258268 -0.014189 0.00266535 -0.0141614 0.00275591 -0.0141299 0.00284252 -0.0141063 0.00292126 -0.0140748 0.0026378 -0.012315zm-0.0304882 0.811579c-0.0112008,-0.0775079 -0.0984843,-0.117256 -0.16422,-0.0743858 -0.0345354,0.022937 -0.0527283,0.0628228 -0.0470551,0.103953l0.000425197 0.00312205 0.00224803 0.0157008 0.00234252 0.0156732 0.00244094 0.0156339 0.00253543 0.0156024 0.00262992 0.0155827 0.00272835 0.0155394 0.0028189 0.0155118 0.00291732 0.0154764 0.00300787 0.0154449 0.00310236 0.0154055 0.00319685 0.015374 0.00329134 0.0153504 0.00338189 0.0153071 0.00324016 0.0142283c0.0195866,0.0837323 0.124642,0.11128 0.182807,0.0478268 0.0236772,-0.0260472 0.0328819,-0.0615197 0.0250591,-0.0958189l-0.00294094 -0.0129213 -0.00309843 -0.0140079 -0.00300787 -0.0140276 -0.00292126 -0.0140748 -0.00284252 -0.0141063 -0.00275591 -0.0141299 -0.00266535 -0.0141614 -0.00258268 -0.014189 -0.00249213 -0.0142244 -0.00240945 -0.0142441 -0.00231496 -0.0142874 -0.00223622 -0.0143189 -0.00214567 -0.0143425 -0.00205906 -0.0143701 -0.000425197 -0.00312205zm0.251409 0.770831c-0.0402008,-0.0737047 -0.145602,-0.0743425 -0.186835,-0.00115748 -0.0178661,0.0323425 -0.0181693,0.0704449 -0.000622047,0.103l0.00516535 0.00957874 0.0073189 0.013378 0.00739764 0.0133189 0.00747244 0.0132756 0.00755512 0.0132323 0.00762992 0.0131772 0.00770472 0.0131181 0.00777953 0.0130787 0.00786614 0.0130276 0.00793307 0.0129685 0.00801575 0.0129252 0.00808268 0.0128622 0.00816142 0.0128228 0.00824016 0.0127598 0.00746063 0.0114094c0.0467835,0.0704173 0.152492,0.0616654 0.186791,-0.0157717 0.0145079,-0.0334764 0.011374,-0.0709488 -0.00858661,-0.101512l-0.00676772 -0.0103465 -0.00753937 -0.0116811 -0.0074685 -0.0117283 -0.00741339 -0.0117913 -0.00733071 -0.0118228 -0.00726378 -0.011874 -0.00718898 -0.0119173 -0.00712598 -0.0119685 -0.00705906 -0.0120236 -0.00698425 -0.0120591 -0.00690945 -0.0120984 -0.00684252 -0.0121575 -0.00677559 -0.0122087 -0.00669685 -0.0122362 -0.00516535 -0.00957874zm0.503382 0.636449c-0.0286457,-0.0249567 -0.0668937,-0.0326929 -0.103067,-0.0213307 -0.0788976,0.0259606 -0.0997126,0.12672 -0.0375787,0.18174l0.0105591 0.00931496 0.0114134 0.00994488 0.0114567 0.0098622 0.0115236 0.00980709 0.0115945 0.00974409 0.0116457 0.00966535 0.0116969 0.00959449 0.0117598 0.0095315 0.0118268 0.0094685 0.011878 0.00938976 0.0119331 0.00932283 0.0119882 0.00924409 0.0120551 0.00918898 0.0121063 0.0091063 0.00912598 0.0067874c0.0647598,0.0477638 0.15713,0.00930709 0.168929,-0.0703425 0.00579134,-0.0390827 -0.0105748,-0.0777205 -0.042189,-0.101264l-0.00810236 -0.00602362 -0.0110906 -0.00834252 -0.0110236 -0.00840157 -0.0109882 -0.00848031 -0.0109331 -0.00853543 -0.010878 -0.00860236 -0.0108189 -0.00865748 -0.0107677 -0.00872835 -0.0107283 -0.00879921 -0.0106614 -0.00885433 -0.0106024 -0.00890945 -0.0105551 -0.00898031 -0.0105118 -0.00905118 -0.010437 -0.00909449 -0.0105591 -0.00931496zm0.692213 0.423945c-0.0458661,-0.0176181 -0.0971024,-0.00212992 -0.125614,0.0378465 -0.0398622,0.0572992 -0.0164173,0.135579 0.0485827,0.161098l0.00614173 0.00239764 0.0143898 0.00551969 0.0144134 0.00542913 0.0144567 0.00534252 0.0145236 0.00527165 0.0145551 0.00517323 0.0145827 0.00508661 0.0146417 0.00500394 0.0146614 0.00491339 0.0147165 0.00483071 0.0147598 0.00473622 0.0147756 0.00464567 0.0148425 0.00457087 0.0148661 0.0044685 0.014311 0.00421654c0.0827559,0.0236457 0.157909,-0.0543465 0.130972,-0.136213 -0.0112598,-0.0333465 -0.0375709,-0.0587717 -0.0713976,-0.0686378l-0.0130591 -0.00384646 -0.0136063 -0.00409055 -0.0135512 -0.00416929 -0.0135472 -0.00425984 -0.0134921 -0.00433465 -0.0134488 -0.00441339 -0.0134331 -0.00449606 -0.013374 -0.00457087 -0.0133543 -0.00466142 -0.013311 -0.00473228 -0.0132559 -0.00480709 -0.0132441 -0.00490157 -0.0132087 -0.00497244 -0.0131535 -0.00504724 -0.00614173 -0.00239764zm0.795689 0.156949c-0.0810512,-0.000925197 -0.133512,0.0852402 -0.0954685,0.156882 0.0187244,0.0345669 0.053437,0.0557598 0.0927756,0.0564331l0.0138898 0.000220472 0.0162717 0.000153543 0.0162913 5.51181e-005 0.0162913 -5.51181e-005 0.0162717 -0.000153543 0.016248 -0.000255906 0.0162244 -0.000358268 0.0162047 -0.000464567 0.0161693 -0.000562992 0.0161417 -0.000665354 0.016122 -0.00076378 0.0161102 -0.000870079 0.0160748 -0.000968504 0.0136575 -0.000909449c0.0706063,-0.00524409 0.116425,-0.0751693 0.0931417,-0.142059 -0.0160197,-0.0451969 -0.0601654,-0.0740394 -0.107984,-0.0707598l-0.0123268 0.000822835 -0.0147205 0.000889764 -0.0147402 0.000791339 -0.0147756 0.000700787 -0.0148031 0.000610236 -0.0148307 0.000515748 -0.0148425 0.000425197 -0.0148701 0.000326772 -0.0148937 0.000240157 -0.0149252 0.000137795 -0.0149449 4.72441e-005 -0.0149449 -4.72441e-005 -0.0149252 -0.000137795 -0.0138898 -0.000220472zm0.80165 -0.126866c-0.0692362,0.0247559 -0.0935276,0.109083 -0.0481142,0.166961 0.0284882,0.0356102 0.0759055,0.0493976 0.118988,0.034252l0.00924016 -0.00322047 0.0145472 -0.00516929 0.0145236 -0.00526772 0.0144606 -0.00534646 0.0144134 -0.00542913 0.0143937 -0.00552362 0.0143386 -0.00560236 0.0142913 -0.00568504 0.0142677 -0.00577953 0.0142126 -0.00585827 0.0141614 -0.00594094 0.0141181 -0.00601969 0.0140787 -0.0061063 0.0140472 -0.00619685 0.0115472 -0.00518504c0.0690157,-0.031685 0.0843622,-0.122016 0.0294409,-0.17463 -0.0316772,-0.0298268 -0.0776457,-0.0376142 -0.117346,-0.019748l-0.0103504 0.00464173 -0.0128346 0.00566142 -0.0128819 0.00558661 -0.0129213 0.00551575 -0.0129724 0.00543701 -0.013 0.0053622 -0.0130315 0.00527559 -0.0130866 0.00520472 -0.0131181 0.00512992 -0.0131496 0.00504331 -0.0132087 0.00497244 -0.0132402 0.00489764 -0.0132638 0.00481102 -0.013311 0.00473622 -0.00924016 0.00322047zm0.707602 -0.397496c-0.036185,0.0300197 -0.0486693,0.0798031 -0.0306102,0.123256 0.0278976,0.0660984 0.110929,0.0868937 0.166406,0.0412795l0.00283071 -0.00232283 0.0116378 -0.00966142 0.0115945 -0.00974409 0.0115236 -0.00980709 0.0114567 -0.0098622 0.0114055 -0.00993701 0.0113543 -0.0100157 0.0112795 -0.0100748 0.0112165 -0.0101299 0.0111732 -0.0102126 0.0110984 -0.0102756 0.0110315 -0.0103268 0.0109843 -0.0104094 0.0109173 -0.0104724 0.0108465 -0.0105276 0.00531496 -0.00522047c0.0485394,-0.0485394 0.0402362,-0.128343 -0.0174331,-0.165705 -0.0421535,-0.0269055 -0.0968858,-0.0210984 -0.132528,0.0139724l-0.0043937 0.00431496 -0.00994094 0.00964567 -0.00999606 0.00959055 -0.0100472 0.00951969 -0.0101181 0.00947638 -0.0101693 0.00940945 -0.0102126 0.00933858 -0.0102874 0.00929528 -0.0103346 0.00922441 -0.0103858 0.00915748 -0.0104449 0.00910236 -0.0105118 0.00905118 -0.0105551 0.00898031 -0.0106024 0.00890945 -0.0106693 0.00885827 -0.00283071 0.00232283zm0.526945 -0.617142c-0.0397283,0.068622 0.00588583,0.154394 0.0849528,0.160181 0.0408504,0.00250787 0.0785433,-0.0174331 0.0993386,-0.0527165l0.00322835 -0.0055 0.00762992 -0.0131772 0.00755512 -0.0132323 0.00747244 -0.0132756 0.00739764 -0.0133189 0.0073189 -0.013378 0.00724409 -0.0134291 0.00716535 -0.0134843 0.00707087 -0.0135079 0.00701181 -0.0135748 0.00691732 -0.013622 0.00684252 -0.0136496 0.00676772 -0.0137283 0.0066811 -0.0137598 0.00659843 -0.0138031 0.00127559 -0.00270866c0.0321496,-0.0690787 -0.016063,-0.148039 -0.0920472,-0.151724 -0.043437,-0.00159055 -0.0826929,0.0221063 -0.10126,0.0614724l-0.000716535 0.00152756 -0.00603937 0.0126378 -0.00611417 0.0125866 -0.00618504 0.0125394 -0.00626772 0.0125157 -0.00633465 0.0124646 -0.00640551 0.0124094 -0.00648819 0.0123898 -0.00655118 0.0123268 -0.00662205 0.0122795 -0.00669685 0.0122362 -0.00677559 0.0122087 -0.00684252 0.0121575 -0.00690945 0.0120984 -0.00698425 0.0120591 -0.00322835 0.0055zm0.280476 -0.760878c-0.00659055,0.0393268 0.00838583,0.0776181 0.0396102,0.102307 0.0636417,0.0493346 0.15689,0.0131575 0.170634,-0.0661102l0.00194488 -0.0111063 0.00262992 -0.0155827 0.00253543 -0.0156024 0.00244094 -0.0156339 0.00234252 -0.0156732 0.00224803 -0.0157008 0.00215354 -0.0157402 0.00204724 -0.0157598 0.00195669 -0.0157717 0.0018622 -0.0158268 0.00175984 -0.0158543 0.00166535 -0.0158661 0.00156693 -0.0159213 0.00146063 -0.0159331 0.000413386 -0.00479921c0.00690157,-0.0862835 -0.0860315,-0.14448 -0.160701,-0.100528 -0.0299252,0.0178661 -0.048937,0.0482677 -0.0519134,0.083l-0.000295276 0.00346063 -0.00134252 0.0145945 -0.00143307 0.0145512 -0.00152362 0.0145512 -0.00161024 0.0145079 -0.00170472 0.0144803 -0.00179134 0.0144724 -0.00188189 0.0144291 -0.00196457 0.0143858 -0.00205906 0.0143701 -0.00214567 0.0143425 -0.00223622 0.0143189 -0.00231496 0.0142874 -0.00240945 0.0142441 -0.00194488 0.0111063zm-0.000204724 -0.812154c0.0150394,0.0834449 0.116528,0.116917 0.178323,0.0587598 0.0262598,-0.0251496 0.0379094,-0.060374 0.0316929,-0.0962244 -0.0129449,-0.0729921 -0.0292244,-0.145831 -0.0487047,-0.217358 -0.0137638,-0.050563 -0.0621535,-0.0836417 -0.114252,-0.0780945 -0.0655827,0.00737402 -0.108579,0.0703189 -0.0916063,0.134063 0.017685,0.0657283 0.0326614,0.131827 0.0445472,0.198854zm-0.470469 -0.490594c0.0529567,0.0654764 0.157236,0.0467677 0.184197,-0.0330748 0.0114567,-0.0348228 0.00486614,-0.0721969 -0.0181181,-0.100823 -0.0321496,-0.0395984 -0.0517205,-0.0869685 -0.0566457,-0.13776 -0.00830315,-0.0849961 -0.107795,-0.126323 -0.173965,-0.0722323 -0.0275433,0.0227323 -0.0416732,0.0569843 -0.0384055,0.0925236 0.00926378,0.092626 0.0442087,0.179024 0.102937,0.251366zm-0.154461 -0.719358c0.0604055,0.0608976 0.163752,0.0299094 0.180693,-0.0542638 0.00651969,-0.0349882 -0.00359843,-0.0699252 -0.0286614,-0.0953976l-0.0028937 -0.00294882 -0.00625591 -0.00632677 -0.00625984 -0.00629528 -0.0062874 -0.00627559 -0.00630709 -0.00625591 -0.00634252 -0.00624016 -0.00635827 -0.00621654 -0.00637402 -0.00618504 -0.00640551 -0.00617323 -0.00642126 -0.00614173 -0.00642126 -0.0061063 -0.00648425 -0.00612205 -0.00649213 -0.00607874 -0.00649213 -0.00604331 -0.0065315 -0.00603937 -0.00655906 -0.00601575 -0.00656693 -0.00598031 -0.00658661 -0.00596063 -0.0066063 -0.00593701 -0.00664173 -0.0059252 -0.00666142 -0.00590157 -0.00667323 -0.00586614 -0.00670472 -0.00585827 -0.0067126 -0.00581496 -0.00672835 -0.00579921 -0.00395669 -0.00338189c-0.0302559,-0.0255157 -0.0706063,-0.0323701 -0.107598,-0.0183465 -0.0754173,0.0295748 -0.0922165,0.128059 -0.0307717,0.180724l0.00339764 0.00290157 0.00617717 0.0053189 0.00616142 0.00534252 0.00612205 0.00534646 0.00612205 0.00538583 0.00608661 0.00538976 0.00606693 0.00541339 0.00606299 0.00544882 0.00604331 0.00546457 0.00602362 0.00549213 0.00599213 0.00549606 0.00597244 0.00551969 0.00598031 0.00556299 0.00593307 0.00555906 0.00590157 0.00557087 0.00591732 0.00562598 0.00588583 0.00562992 0.00585433 0.00564567 0.00584646 0.00567323 0.00581496 0.0056811 0.00579134 0.00570472 0.0057874 0.00573622 0.00576772 0.00575591 0.00574803 0.00577559 0.0057126 0.00578346 0.0028937 0.00294882zm-0.660846 -0.470902c0.0717244,0.0333819 0.152614,-0.0188504 0.15213,-0.0980157 -0.000751969,-0.0410118 -0.0241575,-0.0773858 -0.0612323,-0.0949843l-0.00485827 -0.00229921 -0.00814961 -0.0038189 -0.00816142 -0.00379134 -0.00817323 -0.00375984 -0.00820866 -0.00374409 -0.00820866 -0.00370079 -0.00822441 -0.0036811 -0.00823622 -0.00364567 -0.00826378 -0.00362598 -0.00827953 -0.00359055 -0.00827559 -0.00355906 -0.0083189 -0.00354331 -0.00831496 -0.0035 -0.00833071 -0.00347638 -0.00835039 -0.00344882 -0.0083622 -0.00341732 -0.0083937 -0.00339764 -0.00839764 -0.00335827 -0.00840157 -0.00333071 -0.00842126 -0.00329921 -0.00842913 -0.00326772 -0.0084685 -0.00325197 -0.00846063 -0.00320866 -0.00847244 -0.0031811 -0.00850787 -0.00316142 -0.00080315 -0.000295276c-0.0791378,-0.0287795 -0.158815,0.0411181 -0.140701,0.123402 0.00806693,0.0358583 0.0331654,0.0642165 0.0675591,0.0770079l5.51181e-005 1.9685e-005 0.00775984 0.00287795 0.00777165 0.00292126 0.00775197 0.00294094 0.00772047 0.00296063 0.00772835 0.003 0.0077126 0.00302362 0.00770079 0.00304724 0.0076811 0.0030748 0.00764567 0.00309055 0.00766142 0.00313386 0.00763386 0.00314961 0.00762992 0.00318504 0.00761417 0.00320866 0.00758661 0.00322835 0.00759843 0.00326772 0.00756299 0.00328346 0.00754724 0.00331102 0.00754331 0.00333858 0.0075315 0.00336614 0.00751575 0.0033937 0.00749213 0.00341339 0.00748819 0.00344488 0.0074685 0.0034685 0.00745669 0.00349606 0.00485827 0.00229921z"/>
  <path class="fil1" d="M3.3538 1.5033c-0.0783031,0.000448819 -0.129831,0.0812323 -0.0964291,0.152331 0.0180118,0.0375433 0.0547992,0.0607717 0.0964291,0.0610079l0.0112402 3.54331e-005 0.0112205 0.000102362 0.0111811 0.000181102 0.0111969 0.000248031 0.0111614 0.000314961 0.0111378 0.000389764 0.0111181 0.000456693 0.0110945 0.000531496 0.0111102 0.000598425 0.0110787 0.000661417 0.0110315 0.00073622 0.0110276 0.00080315 0.0110079 0.000874016 0.0109843 0.000940945 0.0109803 0.00101181 0.0109409 0.0010748 0.010937 0.00114567 0.0109134 0.00120866 0.00140551 0.000161417c0.0772441,0.00843307 0.137579,-0.0650394 0.113496,-0.139173 -0.0132441,-0.0397283 -0.0475984,-0.0679882 -0.0892913,-0.0727795l-0.00140551 -0.000161417 -0.0122362 -0.00135827 -0.0122598 -0.0012874 -0.0122953 -0.00120866 -0.0122953 -0.00112992 -0.0123386 -0.00105906 -0.0123543 -0.000976378 -0.012374 -0.000905512 -0.0124094 -0.000822835 -0.0124094 -0.000748031 -0.0124094 -0.000669291 -0.0124646 -0.000594488 -0.0124803 -0.000511811 -0.0125 -0.000437008 -0.0125157 -0.000354331 -0.0125118 -0.000279528 -0.0125669 -0.00019685 -0.0125669 -0.00011811 -0.0125787 -4.33071e-005zm-0.551689 0.302992c0.0761614,-0.0256929 0.0975748,-0.122469 0.0398228,-0.178264 -0.0291181,-0.0274055 -0.0695787,-0.0366142 -0.10761,-0.0240118l-0.000153543 5.11811e-005 -0.0027874 0.000933071 -0.00274016 0.000929134 -0.00266535 0.000905512 -0.00274016 0.000933071 -0.00273228 0.000937008 -0.00273228 0.000944882 -0.00265748 0.00092126 -0.00270472 0.000937008 -0.00279921 0.000976378 -0.0026811 0.000944882 -0.00269685 0.000948819 -0.00272441 0.000968504 -0.00271654 0.000964567 -0.00272047 0.000976378 -0.00264173 0.000952756 -0.00269291 0.000968504 -0.00280709 0.00101969 -0.00270866 0.000992126 -0.00254724 0.000933071 -0.00270866 0.000992126 -0.00277165 0.00102362 -0.00270472 0.00100394 -0.00263386 0.000984252 -0.00267323 0.001 -0.00270079 0.00101969 -0.00272441 0.00102756 -0.00269291 0.00102362 -0.00259843 0.000992126 -0.00269291 0.00102756 -0.00268898 0.00103543 -0.00268898 0.00103937 -0.00268504 0.00104331 -0.0026811 0.00104724 -0.0026811 0.00105118 -0.00261417 0.00102756 -0.00267717 0.00105512 -0.00264961 0.00105512 -0.00267717 0.00106299 -0.00269685 0.00108268 -0.00260236 0.00104724 -0.00264173 0.00106299 -0.00133465 0.00053937c-0.0237953,0.00917323 -0.0447283,0.0270315 -0.0574173,0.0533031 -0.0156063,0.033252 -0.0137756,0.0709528 0.00557087,0.102283 0.00228346,0.00373622 0.00439764,0.00742913 0.00644882,0.0112992l-7.87402e-006 -1.5748e-005c0.00214173,0.00419685 0.00412205,0.00829528 0.00598425,0.0126339l4.72441e-005 0.000110236c0.00199213,0.00479528 0.00370472,0.00938189 0.00536614,0.0142992l-1.1811e-005 -3.93701e-005 0.00119291 0.00379921 -3.93701e-005 -0.000137795c0.00149606,0.00506693 0.00279134,0.010063 0.00387008,0.0152323 0.0177126,0.0841339 0.122189,0.114 0.181713,0.0518425 0.0242717,-0.0257874 0.0342283,-0.0605157 0.0271614,-0.0952441 -0.000555118,-0.00266142 -0.0011378,-0.00531496 -0.00174409,-0.00796063l0.00137008 -0.00046063 0.000153543 -5.11811e-005zm-0.0677874 -0.202276l0.0513465 0.153217 -1.1811e-005 -3.14961e-005 -0.0513346 -0.153185zm-0.493193 0.638858c0.0490079,0.0248189 0.108047,0.00908661 0.138087,-0.0369291 0.0343386,-0.0531693 0.0153937,-0.124118 -0.0409291,-0.153 -0.0290079,-0.0145039 -0.055,-0.0391614 -0.0716535,-0.0670472 -0.00961417,-0.0172638 -0.0242717,-0.0322244 -0.043748,-0.0424961 -0.0386457,-0.0198504 -0.0842835,-0.0150394 -0.117768,0.0127402l-0.00501181 0.00420079 -0.00497638 0.00420079 -0.00496063 0.00421654 -0.00498031 0.00425984 -0.00494488 0.00426378 -0.00491732 0.00426378 -0.0049252 0.00429921 -0.00490551 0.00431496 -0.0016378 0.00144882c-0.0407165,0.0363661 -0.0477008,0.0969291 -0.0161693,0.141516 0.0240394,0.0336575 0.0634055,0.0489882 0.101094,0.0440039 0.0272087,0.026063 0.0581772,0.0481732 0.0923228,0.0657323l2.3622e-005 1.1811e-005zm-0.0676102 -0.204886l-0.0425354 0.0248858 -0.00253937 0.00148425m0 0l-0.0645866 -0.072748m-0.233071 0.628413c0.0275433,-0.0511063 0.0101575,-0.11411 -0.0400866,-0.143394 -0.0520039,-0.0299646 -0.118354,-0.0116417 -0.147142,0.0411339l-0.000484252 0.00088189 -0.00312598 0.00574016 -0.00312205 0.00577953 -0.00312205 0.00582677 -0.00308661 0.00581496 -0.00307087 0.00582677 -0.00305118 0.00583858 -0.00301575 0.00582283 -0.00301575 0.00585827 -0.00300787 0.00590157 -0.00296457 0.00586614 -0.00295669 0.00589764 -0.00293701 0.00591732 -0.00290945 0.00590157 -0.0028937 0.00592913 -0.00288583 0.00595276 -0.00285827 0.00596063 -0.00282283 0.00592913 -0.0028189 0.00597244 -0.00280709 0.006 -0.00278346 0.00600394 -0.00276378 0.00601969 -0.00272835 0.006 -0.00272047 0.00602362 -0.00270079 0.00605118 -0.00268504 0.00605906 -0.00264961 0.00604331 -0.00263386 0.00605118 -0.00262598 0.00609055 -0.00260236 0.00610236 -0.00258661 0.00612205 -0.00256299 0.00612598 -0.00252756 0.00610236 -0.00251181 0.00611811 -0.0025 0.00614173 -0.000192913 0.000472441c-0.0314016,0.078748 0.0370039,0.160843 0.120252,0.144193 0.0355787,-0.00733858 0.0641024,-0.0312874 0.0777953,-0.0648937l-0.000106299 0.000275591 0.00222441 -0.00547244 0.00225197 -0.00548031 0.00226772 -0.00547244 0.00227165 -0.00543307 0.0022874 -0.00541339 0.00231102 -0.00540945 0.00232677 -0.00540551 0.00235827 -0.00542126 0.00237402 -0.00541339 0.00237795 -0.00537402 0.00240157 -0.00536614 0.00242126 -0.00537008 0.00244488 -0.00537008 0.00244882 -0.00533465 0.0024685 -0.00532677 0.00248425 -0.00531496 0.00251181 -0.0053189 0.00253937 -0.00533858 0.00253543 -0.00528346 0.00255512 -0.00527559 0.00257874 -0.00527559 0.00260236 -0.00527953 0.0026063 -0.00524803 0.00263386 -0.00524409 0.00264961 -0.00525197 0.00265354 -0.00520079 0.00267717 -0.0052126 0.00271654 -0.00523228 0.0027126 -0.00520079 0.00273228 -0.0051811 0.00274803 -0.00517717 0.00275197 -0.00513386 0.00279134 -0.00516535 0.0028189 -0.0051811 0.000484252 -0.00088189zm-0.210787 0.768154c0.00155512,-0.0453858 -0.0254252,-0.0863898 -0.0676063,-0.103098 -0.0688268,-0.0266417 -0.142642,0.0218583 -0.145591,0.0955315l-3.14961e-005 0.000897638 -0.00023622 0.00698425 -0.000212598 0.00699213 -0.000181102 0.00699606 -0.000161417 0.007 -0.000133858 0.00700787 -0.000114173 0.00698031 -8.66142e-005 0.00701969 -6.29921e-005 0.00701969 -3.54331e-005 0.00702756 -1.5748e-005 0.0070315 4.33071e-005 0.0125787 0.00011811 0.0125669 0.00019685 0.0125669 0.000279528 0.0125118 0.000354331 0.0125157 0.000437008 0.0125 0.000511811 0.0124803 0.000594488 0.0124646 0.000669291 0.0124094 0.000748031 0.0124094 0.000822835 0.0124094 0.000905512 0.012374 0.000393701 0.00498031c0.00466535,0.0544449 0.0488622,0.0962717 0.103484,0.0978701 0.0636457,0.00148031 0.114205,-0.0519449 0.10913,-0.115406l-0.000291339 -0.00363386 -0.00080315 -0.0110276 -0.00073622 -0.0110315 -0.000661417 -0.0110787 -0.000598425 -0.0111102 -0.000531496 -0.0110945 -0.000456693 -0.0111181 -0.000389764 -0.0111378 -0.000314961 -0.0111614 -0.000248031 -0.0111969 -0.000181102 -0.0111811 -0.000102362 -0.0112205 -3.54331e-005 -0.0112402 7.87402e-006 -0.00627559 3.54331e-005 -0.00626378 5.51181e-005 -0.00626378 7.87402e-005 -0.00625591 9.84252e-005 -0.00627953 0.00011811 -0.00624409 0.000145669 -0.00623622 0.000165354 -0.00623228 0.000188976 -0.00622047 0.000204724 -0.00622047 3.14961e-005 -0.000897638zm0.153933 0.781394c-0.0321496,-0.0690748 -0.123193,-0.0836496 -0.175256,-0.0278976 -0.0291693,0.0320591 -0.0367362,0.0774606 -0.0185866,0.116992l0.00251181 0.00551575 0.00497244 0.0107283 0.0050315 0.0106929 0.00509843 0.0106654 0.00516535 0.0106378 0.00522441 0.0105984 0.0052874 0.0105551 0.00535039 0.0105236 0.00541339 0.0104961 0.00547244 0.0104409 0.00552756 0.0104055 0.00559449 0.0103661 0.00564961 0.0103346 0.00572835 0.010315 0.00577559 0.0102559 0.00582677 0.0102047 0.00588976 0.0101732 0.00595669 0.0101496 0.00601969 0.0101102 0.00377165 0.00624409c0.0245472,0.0401969 0.0719331,0.0595354 0.117587,0.0479803 0.0693543,-0.0180945 0.101969,-0.097378 0.0647283,-0.15876l-0.00311024 -0.00514961 -0.00535039 -0.00898425 -0.00529528 -0.00902362 -0.00525197 -0.00907087 -0.00520472 -0.00911811 -0.00514567 -0.00912992 -0.0050748 -0.00914961 -0.00503543 -0.00920079 -0.00498031 -0.00924016 -0.00492913 -0.00927165 -0.00487402 -0.00930709 -0.00481496 -0.00932283 -0.00475984 -0.00936614 -0.00470472 -0.00939764 -0.00464961 -0.0094252 -0.00459055 -0.00945669 -0.00453937 -0.0095 -0.00448819 -0.00953543 -0.00442913 -0.00956299 -0.00251181 -0.00551575zm0.487831 0.630189c-0.0430906,-0.0342835 -0.103756,-0.0309488 -0.142713,0.00800787 -0.0444449,0.0451772 -0.0404016,0.118268 0.00888583,0.158134l0.00466142 0.00377559 0.00912992 0.00731102 0.00919291 0.00726772 0.00921654 0.00719291 0.00925197 0.00714173 0.0093189 0.00709843 0.00935827 0.00703937 0.00938189 0.00697638 0.00943307 0.0069252 0.00949213 0.00688189 0.00953543 0.00682283 0.0095748 0.00676378 0.00959843 0.00669291 0.00964961 0.00664961 0.00970472 0.00659843 0.00972441 0.00652362 0.00976772 0.00648031 0.00983858 0.00643307 0.00985827 0.0063622 0.00728346 0.0046378c0.0339764,0.0213504 0.076063,0.0220669 0.110791,0.00201181 0.0689685,-0.0405984 0.0708189,-0.13939 0.00326378,-0.182295l-0.00619685 -0.00395276 -0.0087874 -0.00566929 -0.00872835 -0.00570866 -0.0087126 -0.00577165 -0.00868504 -0.00583071 -0.00862598 -0.00586614 -0.00860236 -0.0059252 -0.0085748 -0.00598425 -0.00851969 -0.00601575 -0.00847244 -0.00606693 -0.00844488 -0.00611811 -0.00840945 -0.00617717 -0.00838976 -0.00622835 -0.00832677 -0.00626772 -0.00827953 -0.00631102 -0.00826772 -0.00637795 -0.00822441 -0.00642126 -0.00815354 -0.00644882 -0.0081378 -0.00651575 -0.00466142 -0.00377559zm0.717488 0.34622c-0.0803504,-0.0173858 -0.149327,0.058685 -0.124217,0.137024 0.0119882,0.036437 0.0413465,0.0630984 0.078815,0.0714252l0.00367323 0.000811024 0.0118622 0.00254331 0.0118898 0.00247244 0.0119094 0.0023937 0.0119173 0.00232283 0.0119606 0.00225591 0.0119803 0.00217717 0.0120039 0.0021063 0.0120472 0.00203543 0.0120669 0.00196063 0.0120748 0.00188189 0.0120906 0.00181102 0.0121339 0.00173622 0.0121575 0.00166142 0.0121811 0.00158661 0.0121929 0.00151181 0.0122402 0.00143701 0.0122362 0.00135827 0.0122598 0.0012874 0.00226772 0.000224409c0.0492756,0.0045315 0.0943583,-0.0245354 0.110866,-0.0711102 0.0223268,-0.0657362 -0.0214961,-0.134512 -0.0906614,-0.141268l-0.000913386 -9.05512e-005 -0.010937 -0.00114567 -0.0109134 -0.00120866 -0.0108701 -0.00127953 -0.0108701 -0.00134646 -0.0108425 -0.00141339 -0.0108189 -0.00148031 -0.0107953 -0.00154724 -0.0107913 -0.00161417 -0.0107677 -0.00167717 -0.0107205 -0.00174016 -0.0107008 -0.00180709 -0.010689 -0.00187795 -0.0106732 -0.00194094 -0.0106378 -0.00200394 -0.0106339 -0.00207087 -0.0105945 -0.00213386 -0.0105669 -0.00219685 -0.0105394 -0.00225984 -0.00367323 -0.000811024zm0.797094 -0.0112795c-0.0803189,0.020315 -0.10789,0.119996 -0.0495394,0.178854 0.0268819,0.0266496 0.0646614,0.0371614 0.101437,0.0280748l0.000700787 -0.000173228 0.0116772 -0.0029685 0.0116496 -0.00303543 0.0116417 -0.00311024 0.0116102 -0.0031811 0.0115748 -0.00324803 0.0115472 -0.00331496 0.0115315 -0.0033937 0.0114843 -0.00345669 0.0114449 -0.00351969 0.0114331 -0.00359449 0.0114055 -0.00366535 0.0113543 -0.00372441 0.0113465 -0.00379921 0.0112992 -0.00386614 0.0112717 -0.00392913 0.0112559 -0.00400394 0.0112165 -0.00406693 0.0111654 -0.00412992 0.00880709 -0.00331496c0.0481024,-0.0184764 0.0761969,-0.0679567 0.0670787,-0.118713 -0.0122047,-0.065752 -0.0802756,-0.104374 -0.142882,-0.0807047l-0.00758661 0.00285827 -0.00995276 0.0036811 -0.00997244 0.00361811 -0.00998819 0.00355512 -0.0100354 0.00349606 -0.010063 0.00344094 -0.0100787 0.00337402 -0.010126 0.00332283 -0.0101299 0.00325591 -0.0101654 0.00319291 -0.0102087 0.00314173 -0.0102244 0.00307874 -0.0102323 0.00300787 -0.0102717 0.00295276 -0.0103071 0.0028937 -0.0103189 0.00282677 -0.0103425 0.00276378 -0.0103898 0.00270472 -0.0104173 0.00264567 -0.000700787 0.000173228zm0.706972 -0.366217c-0.0296417,0.0258228 -0.0427402,0.065189 -0.0343346,0.103606 0.0177913,0.0790787 0.112614,0.110272 0.174028,0.0576299l0.00582283 -0.00501575 0.00880709 -0.00767323 0.00876378 -0.00773228 0.0087126 -0.00777559 0.00867717 -0.00783858 0.00861811 -0.00788583 0.0085748 -0.00793307 0.00852362 -0.00798031 0.00848031 -0.00803543 0.00843701 -0.00809055 0.00837795 -0.00813386 0.00833465 -0.0081811 0.00829134 -0.00824409 0.00824409 -0.00829134 0.0081811 -0.00833465 0.00813386 -0.00837795 0.00809055 -0.00843701 0.00803543 -0.00848031 0.00798031 -0.00852362 0.00504724 -0.00545276c0.0352874,-0.0385748 0.0377283,-0.0964488 0.00566142,-0.137764 -0.0407205,-0.0519685 -0.11789,-0.0552008 -0.162669,-0.00666142l-0.00418898 0.00452362 -0.00712205 0.00760236 -0.00716142 0.00755906 -0.00720079 0.00750787 -0.00725197 0.00747244 -0.00729921 0.00742913 -0.00733071 0.00737795 -0.00737795 0.00733071 -0.00742913 0.00729921 -0.00747244 0.00725197 -0.00750787 0.00720079 -0.00755906 0.00716142 -0.00760236 0.00712205 -0.00764567 0.0070748 -0.00768898 0.00702756 -0.00771654 0.00697244 -0.00777559 0.00694094 -0.00781102 0.00688976 -0.00785433 0.00684646 -0.00582283 0.00501575zm0.469909 -0.643528c-0.0289213,0.0699331 0.0215709,0.146264 0.0971535,0.147638 0.0439134,0.000267717 0.082815,-0.025185 0.0998386,-0.0657402l0.0032874 -0.00785039 0.00452756 -0.0109764 0.00446063 -0.0110276 0.00438976 -0.0110354 0.00433071 -0.0110787 0.00427165 -0.011122 0.00419291 -0.0111417 0.00412992 -0.0111654 0.00406693 -0.0112165 0.00400394 -0.0112559 0.00392913 -0.0112717 0.00386614 -0.0112992 0.00379921 -0.0113465 0.00372441 -0.0113543 0.00366535 -0.0114055 0.00359449 -0.0114331 0.00351969 -0.0114449 0.00345669 -0.0114843 0.0033937 -0.0115315 0.000677165 -0.00235433c0.0228976,-0.0823425 -0.0543307,-0.156803 -0.135819,-0.130516 -0.0339409,0.0113858 -0.0595433,0.0377362 -0.0694016,0.0722402l-0.000314961 0.00107874 -0.00300787 0.0102323 -0.00307874 0.0102244 -0.00314173 0.0102087 -0.00319291 0.0101654 -0.00325591 0.0101299 -0.00332283 0.010126 -0.00337402 0.0100787 -0.00344094 0.010063 -0.00349606 0.0100354 -0.00355512 0.00998819 -0.00361811 0.00997244 -0.0036811 0.00995276 -0.00373622 0.00992126 -0.00379134 0.00988583 -0.00385039 0.00985827 -0.00391732 0.00983858 -0.00396457 0.00979134 -0.0040315 0.00977165 -0.0032874 0.00785039zm0.131925 -0.785717c0.00524409,0.0706063 0.0751693,0.116425 0.142059,0.0931417 0.0451969,-0.0160197 0.0740394,-0.0601654 0.0707598,-0.107984l-0.000681102 -0.0102441 -0.000905512 -0.012374 -0.000976378 -0.0123543 -0.00105906 -0.0123386 -0.00112992 -0.0122953 -0.00120866 -0.0122953 -0.0012874 -0.0122598 -0.00135827 -0.0122362 -0.00143701 -0.0122402 -0.00151181 -0.0121929 -0.00158661 -0.0121811 -0.00166142 -0.0121575 -0.00173622 -0.0121339 -0.00181102 -0.0120906 -0.00188189 -0.0120748 -0.00196063 -0.0120669 -0.00203543 -0.0120472 -0.0021063 -0.0120039 -0.00109843 -0.00604331c-0.0152953,-0.0822126 -0.114925,-0.115634 -0.176831,-0.0593543 -0.0273622,0.0253071 -0.0395591,0.0614803 -0.0329409,0.098189l0.000862205 0.00473622 0.00187795 0.010689 0.00180709 0.0107008 0.00174016 0.0107205 0.00167717 0.0107677 0.00161417 0.0107913 0.00154724 0.0107953 0.00148031 0.0108189 0.00141339 0.0108425 0.00134646 0.0108701 0.00127953 0.0108701 0.00120866 0.0109134 0.00114567 0.010937 0.0010748 0.0109409 0.00101181 0.0109803 0.000940945 0.0109843 0.000874016 0.0110079 0.00080315 0.0110276 0.000681102 0.0102441zm-0.232441 -0.761898c0.0418701,0.070248 0.14315,0.0696693 0.184295,-0.00107874 0.0190827,-0.033685 0.0190551,-0.0740472 -0.000649606,-0.10748l-0.00432677 -0.00737402 -0.00601969 -0.0101102 -0.00607087 -0.0100591 -0.00612992 -0.0100197 -0.00618504 -0.00998031 -0.00625197 -0.00994488 -0.00630315 -0.00990157 -0.0063622 -0.00985827 -0.00643307 -0.00983858 -0.00648031 -0.00976772 -0.00652362 -0.00972441 -0.00659843 -0.00970472 -0.00664961 -0.00964961 -0.00669291 -0.00959843 -0.00676378 -0.0095748 -0.00682283 -0.00953543 -0.00688189 -0.00949213 -0.0069252 -0.00943307 -0.00697638 -0.00938189 -0.00350787 -0.00466535c-0.0467756,-0.0613386 -0.140886,-0.0547795 -0.178425,0.0127913 -0.0203543,0.0373543 -0.0171969,0.0819331 0.00834646,0.115988l0.00273622 0.00363386 0.00622835 0.00838976 0.00617717 0.00840945 0.00611811 0.00844488 0.00606693 0.00847244 0.00601575 0.00851969 0.00598425 0.0085748 0.0059252 0.00860236 0.00586614 0.00862598 0.00583071 0.00868504 0.00577165 0.0087126 0.00570866 0.00872835 0.00566929 0.0087874 0.00561811 0.00881496 0.00555906 0.00885039 0.00551575 0.0088937 0.00546063 0.0089252 0.00540945 0.00896457 0.00535039 0.00898425 0.00432677 0.00737402zm-0.549043 -0.577823c0.0640276,0.041378 0.148701,0.00480315 0.163031,-0.0700906 0.00760236,-0.0427205 -0.0104173,-0.0850433 -0.0468189,-0.108815l-0.00605118 -0.00395669 -0.00985827 -0.0063622 -0.00990157 -0.00630315 -0.00994488 -0.00625197 -0.00998031 -0.00618504 -0.0100197 -0.00612992 -0.0100591 -0.00607087 -0.0101102 -0.00601969 -0.0101496 -0.00595669 -0.0101732 -0.00588976 -0.0102047 -0.00582677 -0.0102559 -0.00577559 -0.010315 -0.00572835 -0.0103346 -0.00564961 -0.0103661 -0.00559449 -0.0104055 -0.00552756 -0.0104409 -0.00547244 -0.0104961 -0.00541339 -0.0105236 -0.00535039 -0.00585433 -0.00293307c-0.0674409,-0.0330748 -0.146409,0.010874 -0.153713,0.0857244 -0.00399213,0.0438976 0.0192717,0.0856969 0.0587756,0.105323l0.00469685 0.00235039 0.00936614 0.00475984 0.00932283 0.00481496 0.00930709 0.00487402 0.00927165 0.00492913 0.00924016 0.00498031 0.00920079 0.00503543 0.00914961 0.0050748 0.00912992 0.00514567 0.00911811 0.00520472 0.00907087 0.00525197 0.00902362 0.00529528 0.00898425 0.00535039 0.00896457 0.00540945 0.0089252 0.00546063 0.0088937 0.00551575 0.00885039 0.00555906 0.00881496 0.00561811 0.0087874 0.00566929 0.00605118 0.00395669z"/>
  <g id="_276255728">
   <g>
    <path id="_276262184" class="fil2" d="M3.44992 2.4165c-0.0731969,-0.077378 -0.112441,-0.077378 -0.0750315,0 -0.0374094,-0.077378 0.00183465,-0.225484 0.0750315,-0.283169 -0.0731969,0.057685 -0.0339449,0.205791 0.0750354,0.283169 -0.10898,-0.077378 -0.148232,-0.077378 -0.0750354,0z"/>
    <path id="_276262040" class="fil2" d="M2.66289 4.16376c0.19976,0.199768 0.467882,0.310827 0.750433,0.310827 0.282551,0 0.550673,-0.111059 0.750433,-0.310827 0.199768,-0.19976 0.310827,-0.467886 0.310827,-0.750433 0,-0.282551 -0.111059,-0.550673 -0.310827,-0.750437 -0.19976,-0.199764 -0.467882,-0.310823 -0.750433,-0.310823 -0.282551,0 -0.550673,0.111059 -0.750433,0.310823 -0.199768,0.199764 -0.310827,0.467886 -0.310827,0.750437 0,0.282547 0.111059,0.550673 0.310827,0.750433z"/>
    <path id="_276261968" class="fil2" d="M3.70668 2.45993c-0.0506772,-0.093685 -0.0885827,-0.103843 -0.0724803,-0.0194213 -0.0161024,-0.0844213 0.0601378,-0.217323 0.145768,-0.254098 -0.0856299,0.0367756 -0.0860512,0.189992 -0.000811024,0.292937 -0.0852402,-0.102945 -0.123154,-0.113102 -0.0724764,-0.0194173z"/>
    <path id="_276260912" class="fil2" d="M3.94344 2.56834c-0.0247008,-0.10361 -0.058685,-0.123232 -0.0649803,-0.0375197 0.00629528,-0.0857126 0.114335,-0.194354 0.206567,-0.207713 -0.0922323,0.0133583 -0.132295,0.161248 -0.0766024,0.282748 -0.0556929,-0.1215 -0.089685,-0.141126 -0.0649843,-0.0375157z"/>
    <path id="_276261608" class="fil2" d="M4.14407 2.73433c0.00295669,-0.106472 -0.0247953,-0.13422 -0.0530591,-0.0530591 0.0282638,-0.0811614 0.16074,-0.158138 0.253287,-0.147169 -0.0925472,-0.0109685 -0.16952,0.121512 -0.147169,0.253287 -0.0223504,-0.131776 -0.0501024,-0.159531 -0.0530591,-0.0530591z"/>
    <path id="_276261560" class="fil2" d="M4.29491 2.9466c0.0304094,-0.102079 0.0107874,-0.136067 -0.0375197,-0.0649843 0.0483071,-0.0710827 0.196193,-0.11115 0.282748,-0.0766024 -0.0865551,-0.0345472 -0.195193,0.0734961 -0.207713,0.206567 0.0125197,-0.133071 -0.0071063,-0.167059 -0.0375157,-0.0649803z"/>
    <path id="_276261344" class="fil2" d="M4.38567 3.19067c0.0557953,-0.0907283 0.0456378,-0.128634 -0.0194213,-0.0724764 0.0650591,-0.0561575 0.218276,-0.0565866 0.292937,-0.000811024 -0.0746614,-0.0557756 -0.207563,0.0204724 -0.254098,0.145764 0.0465354,-0.125291 0.036378,-0.163205 -0.0194173,-0.0724764z"/>
    <path id="_276260312" class="fil2" d="M4.41017 3.44992c0.077374,-0.0731969 0.077374,-0.112441 0,-0.0750354 0.077374,-0.0374055 0.22548,0.00183858 0.283165,0.0750354 -0.057685,-0.0731969 -0.205791,-0.0339488 -0.283165,0.0750354 0.077374,-0.108984 0.077374,-0.148232 0,-0.0750354z"/>
    <path id="_276260624" class="fil2" d="M4.36673 3.70667c0.093685,-0.0506772 0.103839,-0.0885827 0.0194173,-0.0724764 0.0844213,-0.0161063 0.217327,0.0601339 0.254098,0.145764 -0.0367717,-0.0856299 -0.189992,-0.0860512 -0.292937,-0.000811024 0.102945,-0.0852402 0.113106,-0.123154 0.0194213,-0.0724764z"/>
    <path id="_276260600" class="fil2" d="M4.25832 3.94344c0.103606,-0.0247047 0.123228,-0.058689 0.0375157,-0.0649843 0.0857126,0.00629528 0.194354,0.114335 0.207713,0.206567 -0.0133583,-0.0922323 -0.161244,-0.132295 -0.282748,-0.0766024 0.121504,-0.0556929 0.141126,-0.089685 0.0375197,-0.0649803z"/>
    <path id="_276260840" class="fil2" d="M4.09233 4.14407c0.106472,0.00295669 0.13422,-0.0247913 0.0530591,-0.0530551 0.0811614,0.0282638 0.158142,0.16074 0.147173,0.253287 0.0109685,-0.0925472 -0.121512,-0.169524 -0.253287,-0.147173 0.131776,-0.0223504 0.159528,-0.0501024 0.0530551,-0.0530591z"/>
    <path id="_276260192" class="fil2" d="M3.88006 4.29491c0.102079,0.0304134 0.136063,0.0107913 0.0649803,-0.0375157 0.0710827,0.0483071 0.11115,0.196193 0.0766024,0.282744 0.0345472,-0.0865512 -0.0734961,-0.195193 -0.206567,-0.207713 0.133071,0.0125197 0.167063,-0.00710236 0.0649843,-0.0375157z"/>
    <path id="_276259376" class="fil2" d="M3.63599 4.38567c0.0907283,0.0557953 0.128638,0.0456378 0.0724764,-0.0194213 0.0561614,0.0650591 0.0565866,0.218276 0.000814961,0.292941 0.0557717,-0.0746654 -0.0204724,-0.207567 -0.145768,-0.254098 0.125295,0.0465315 0.163205,0.036374 0.0724764,-0.0194213z"/>
    <path id="_276260048" class="fil2" d="M3.37674 4.41017c0.0731969,0.077378 0.112441,0.077378 0.0750354,0 0.0374055,0.077378 -0.00183858,0.22548 -0.0750354,0.283165 0.0731969,-0.057685 0.0339488,-0.205787 -0.0750315,-0.283165 0.10898,0.077378 0.148228,0.077378 0.0750315,0z"/>
    <path id="_276259736" class="fil2" d="M3.11999 4.36673c0.0506772,0.093685 0.0885827,0.103843 0.0724803,0.0194213 0.0161024,0.0844213 -0.0601378,0.217323 -0.145768,0.254098 0.0856299,-0.0367756 0.0860512,-0.189992 0.000811024,-0.292941 0.0852402,0.102949 0.123154,0.113106 0.0724764,0.0194213z"/>
    <path id="_276259976" class="fil2" d="M2.88323 4.25832c0.0247008,0.10361 0.058685,0.123232 0.0649803,0.0375157 -0.00629528,0.0857165 -0.114335,0.194358 -0.206567,0.207713 0.0922323,-0.0133543 0.132295,-0.161244 0.0766024,-0.282744 0.0556929,0.1215 0.089685,0.141126 0.0649843,0.0375157z"/>
    <path id="_276259136" class="fil2" d="M2.68259 4.09233c-0.00295669,0.106469 0.0247913,0.13422 0.0530551,0.0530551 -0.0282638,0.0811654 -0.16074,0.158142 -0.253283,0.147173 0.0925433,0.0109685 0.16952,-0.121512 0.147169,-0.253287 0.0223504,0.131776 0.0501024,0.159528 0.0530591,0.0530591z"/>
    <path id="_276259016" class="fil2" d="M2.53175 3.88006c-0.0304134,0.102079 -0.0107913,0.136063 0.0375197,0.0649803 -0.048311,0.0710827 -0.196197,0.11115 -0.282748,0.0766024 0.0865512,0.0345472 0.195193,-0.0734961 0.207713,-0.206563 -0.0125197,0.133067 0.00710236,0.167059 0.0375157,0.0649803z"/>
    <path id="_276258656" class="fil2" d="M2.44099 3.63598c-0.0557953,0.0907323 -0.0456378,0.128638 0.0194213,0.0724803 -0.0650591,0.0561575 -0.218276,0.0565827 -0.292941,0.000811024 0.0746654,0.0557717 0.207567,-0.0204724 0.254098,-0.145768 -0.0465315,0.125295 -0.036374,0.163209 0.0194213,0.0724764z"/>
    <path id="_276258944" class="fil2" d="M2.4165 3.37674c-0.077374,0.0731969 -0.077374,0.112441 0,0.0750354 -0.077374,0.0374055 -0.22548,-0.00183858 -0.283165,-0.0750354 0.057685,0.0731969 0.205791,0.0339449 0.283165,-0.0750354 -0.077374,0.10898 -0.077374,0.148232 0,0.0750354z"/>
    <path id="_276258800" class="fil2" d="M2.45993 3.11999c-0.093685,0.0506732 -0.103843,0.0885787 -0.0194213,0.0724764 -0.0844213,0.0161024 -0.217323,-0.0601339 -0.254098,-0.145768 0.0367756,0.0856339 0.189992,0.0860551 0.292941,0.000811024 -0.102949,0.0852441 -0.113106,0.123154 -0.0194213,0.0724803z"/>
    <path id="_276257936" class="fil2" d="M2.56834 2.88322c-0.103606,0.0247008 -0.123228,0.058689 -0.0375157,0.0649803 -0.0857126,-0.00629134 -0.194354,-0.114331 -0.207713,-0.206563 0.0133583,0.0922323 0.161244,0.132291 0.282744,0.0766024 -0.1215,0.055689 -0.141122,0.0896811 -0.0375157,0.0649803z"/>
    <path id="_276258224" class="fil2" d="M2.73433 2.68259c-0.106469,-0.00295669 -0.13422,0.0247953 -0.0530551,0.0530591 -0.0811654,-0.0282638 -0.158142,-0.16074 -0.147173,-0.253287 -0.0109685,0.0925472 0.121512,0.16952 0.253287,0.147173 -0.131776,0.0223465 -0.159528,0.0500984 -0.0530591,0.0530551z"/>
    <path id="_276258464" class="fil2" d="M2.9466 2.53175c-0.102079,-0.0304134 -0.136063,-0.0107913 -0.0649803,0.0375157 -0.0710827,-0.0483071 -0.11115,-0.196193 -0.0766024,-0.282748 -0.0345472,0.0865551 0.0734961,0.195193 0.206567,0.207713 -0.133071,-0.0125197 -0.167063,0.0071063 -0.0649843,0.0375197z"/>
    <path id="_276257816" class="fil2" d="M3.19068 2.44099c-0.0907283,-0.0557953 -0.128638,-0.0456378 -0.0724803,0.0194173 -0.0561575,-0.0650551 -0.0565827,-0.218276 -0.000811024,-0.292937 -0.0557717,0.0746614 0.0204724,0.207563 0.145768,0.254098 -0.125295,-0.0465354 -0.163205,-0.036374 -0.0724764,0.0194213z"/>
   </g>
   <g>
    <path id="_276258128" class="fil3" d="M3.44993 2.4165c-0.0134331,-0.0142008 -0.0257087,-0.0257835 -0.0365945,-0.0347677l0 -0.0137362c0.003,0.00932283 0.0148268,0.0254961 0.0365945,0.0485039zm-0.0365945 -0.243268c0.0108858,-0.0156772 0.0231614,-0.0293189 0.0365945,-0.0399016 -0.0217677,0.0171535 -0.0335906,0.0423071 -0.0365945,0.0712165l0 -0.031315zm0 0.0622756c0.00590945,0.0625709 0.0461929,0.134531 0.111626,0.180992 -0.065437,-0.0464606 -0.105717,-0.0650079 -0.111626,-0.0556732l0 -0.125319z"/>
    <path id="_276257144" class="fil3" d="M3.41333 4.47459c0.282551,0 0.550669,-0.111059 0.750433,-0.310827 0.199764,-0.19976 0.310823,-0.467882 0.310823,-0.750433 0,-0.282551 -0.111059,-0.550673 -0.310823,-0.750433 -0.199764,-0.199768 -0.467882,-0.310831 -0.750433,-0.310831l0 2.12252z"/>
    <path id="_276257456" class="fil3" d="M3.70667 2.45993c-0.0506732,-0.093685 -0.0885827,-0.103843 -0.0724764,-0.0194213 -0.0161063,-0.0844213 0.0601339,-0.217323 0.145768,-0.254094 -0.0856339,0.0367717 -0.0860551,0.189992 -0.000811024,0.292937 -0.0852441,-0.102945 -0.123154,-0.113106 -0.0724803,-0.0194213z"/>
    <path id="_276257432" class="fil3" d="M3.94344 2.56834c-0.0247008,-0.103606 -0.058685,-0.123228 -0.0649843,-0.0375157 0.00629921,-0.0857126 0.114339,-0.194354 0.206571,-0.207713 -0.0922323,0.0133583 -0.132295,0.161244 -0.0766063,0.282748 -0.055689,-0.121504 -0.0896811,-0.141126 -0.0649803,-0.0375197z"/>
    <path id="_276257624" class="fil3" d="M4.14407 2.73433c0.00295276,-0.106472 -0.0247953,-0.13422 -0.0530551,-0.0530551 0.0282598,-0.0811654 0.160736,-0.158146 0.253283,-0.147177 -0.0925472,-0.0109685 -0.16952,0.121512 -0.147169,0.253291 -0.0223504,-0.13178 -0.0501063,-0.159531 -0.0530591,-0.0530591z"/>
    <path id="_276256928" class="fil3" d="M4.29491 2.9466c0.0304094,-0.102079 0.0107874,-0.136063 -0.0375157,-0.0649843 0.0483031,-0.0710787 0.196189,-0.111146 0.282744,-0.0766024 -0.0865551,-0.0345433 -0.195193,0.0735 -0.207713,0.206567 0.0125197,-0.133067 -0.0071063,-0.167059 -0.0375157,-0.0649803z"/>
    <path id="_276256808" class="fil3" d="M4.38567 3.19067c0.0557953,-0.0907283 0.0456378,-0.128638 -0.0194213,-0.0724764 0.0650591,-0.0561614 0.218276,-0.0565866 0.292937,-0.000811024 -0.0746614,-0.0557756 -0.207563,0.0204724 -0.254098,0.145764 0.0465354,-0.125291 0.036378,-0.163205 -0.0194173,-0.0724764z"/>
    <path id="_276256688" class="fil3" d="M4.41017 3.44992c0.077378,-0.0731929 0.077378,-0.112441 0,-0.0750315 0.077378,-0.0374094 0.225484,0.00183858 0.283169,0.0750315 -0.057685,-0.0731929 -0.205791,-0.0339449 -0.283169,0.0750394 0.077378,-0.108984 0.077378,-0.148232 0,-0.0750394z"/>
    <path id="_276256568" class="fil3" d="M4.36673 3.70667c0.093685,-0.0506732 0.103843,-0.0885827 0.0194213,-0.0724764 0.0844213,-0.0161063 0.217323,0.0601339 0.254094,0.145764 -0.0367717,-0.0856299 -0.189992,-0.0860512 -0.292937,-0.000811024 0.102945,-0.0852402 0.113106,-0.12315 0.0194213,-0.0724764z"/>
    <path id="_276256496" class="fil3" d="M4.25832 3.94344c0.103606,-0.0247008 0.123232,-0.0586929 0.0375157,-0.0649843 0.0857165,0.00629134 0.194354,0.114335 0.207713,0.206567 -0.0133583,-0.0922323 -0.161244,-0.132295 -0.282748,-0.0766024 0.121504,-0.0556929 0.141126,-0.0896811 0.0375197,-0.0649803z"/>
    <path id="_276256232" class="fil3" d="M4.09233 4.14407c0.106469,0.00295276 0.13422,-0.0247953 0.0530551,-0.0530591 0.0811654,0.0282638 0.158142,0.16074 0.147173,0.253287 0.0109685,-0.0925472 -0.121512,-0.16952 -0.253291,-0.147173 0.13178,-0.0223465 0.159531,-0.0501024 0.053063,-0.0530551z"/>
    <path id="_276256136" class="fil3" d="M3.88006 4.29491c0.102079,0.0304134 0.136067,0.0107913 0.0649843,-0.0375197 0.0710827,0.048311 0.11115,0.196197 0.0766024,0.282748 0.0345472,-0.0865512 -0.0734961,-0.195189 -0.206567,-0.207709 0.133071,0.0125197 0.167059,-0.0071063 0.0649803,-0.0375197z"/>
    <path id="_276256112" class="fil3" d="M3.63599 4.38567c0.0907323,0.0557953 0.128638,0.0456457 0.0724764,-0.0194173 0.0561614,0.065063 0.0565866,0.218276 0.000811024,0.292941 0.0557756,-0.0746654 -0.0204724,-0.207563 -0.145764,-0.254098 0.125291,0.0465354 0.163209,0.0363701 0.0724764,-0.0194252z"/>
    <path id="_276256088" class="fil3" d="M3.41333 4.44493c0.0484213,0.0399961 0.0689882,0.0284173 0.0384449,-0.0347638 0.0305433,0.0631811 0.00997638,0.173512 -0.0384449,0.243272l0 -0.0313189c0.0010315,-0.00993307 0.00100394,-0.020315 0,-0.0309606l0 -0.125319c0.00100394,-0.00158661 0.0010315,-0.0039685 0,-0.00716929l0 -0.0137402z"/>
   </g>
  </g>
  <g id="_276254384">
   <g>
    <circle id="_276255944" class="fil4" cx="5.52278" cy="2.25756" r="0.471667"/>
    <g>
     <polygon id="_276255632" class="fil5" points="5.75801,1.97203 5.75904,1.97967 5.74757,1.98206 5.74603,1.99829 5.75976,1.99829 5.77806,1.99652 5.78745,1.98536 5.77743,1.98145 5.77195,1.97515 5.7637,1.96182 5.75976,1.94302 5.74426,1.94612 5.73992,1.95283 5.73992,1.96026 5.74736,1.96531 "/>
     <polygon id="_276255704" class="fil5" points="5.7449,1.97835 5.74572,1.96812 5.73661,1.96418 5.72393,1.96708 5.71451,1.98226 5.71451,1.99197 5.72546,1.99197 "/>
     <path id="_276255056" class="fil5" d="M5.48365 2.02161l-0.00280709 0.00714567 -0.0135157 0 0 0.00700787 0.00320079 0c0,0 0.000188976,0.00145276 0.000397638,0.00340945l0.00838189 -0.000712598 0.00515748 -0.00320079 0.00135039 -0.00650394 0.00671654 -0.000535433 0.00256299 -0.00547244 -0.00607874 -0.00124409 -0.00536614 0.000106299z"/>
     <polygon id="_276254912" class="fil5" points="5.4487,2.03423 5.4482,2.04116 5.45801,2.04031 5.45905,2.03341 5.45315,2.02876 "/>
     <path id="_276255272" class="fil5" d="M5.8344 1.90354c0.0109803,0.00967717 0.0215197,0.0198504 0.0315669,0.0305039l-0.000106299 0.0229173 -0.0202638 0.0103386 0.00206299 0.00671654 0.0323465 0.000291339 0.00920472 -0.0136811c0.0207205,0.0255315 0.0388504,0.0532717 0.0539331,0.0828228l-0.00291732 0.00329528 0 0.0208661 0.00919685 -0.00124409 0.00466535 9.44882e-005c0.00303543,0.00683858 0.00592126,0.0137638 0.00863386,0.0207756l-0.0244528 0.000397638 -0.0124055 -0.0135197 -0.00235433 -0.021815 -0.0126181 0.00692913 -0.00682283 0.0265512 -0.0181614 -0.0194134 -0.000744094 -0.0182992 -0.0176693 -0.0151811 -0.00650787 -0.00650787 -0.0204331 0 0.0065 0.0182756 0.0245945 0.0136457 0.00423622 0.00455118 -0.00526378 0.00266535 0.000181102 0.0144685 -0.0119803 0.00497244 -0.0102008 -0.00227165 -0.00643307 -0.00898819 0.0166339 0.000814961 0.00455118 -0.00597244 -0.0368701 -0.0249213 -0.00280315 -0.0105236 -0.0149606 0.0135472 -0.0151811 -0.00312598 -0.0231732 0.0299646 -0.00451969 0.0117992 -0.0147835 0.0013189 -0.0218976 0.000102362 -0.0130118 -0.00607874 -0.00383071 -0.0260512 0.00465354 -0.0122717 0.0222126 -0.0048622 0.0242795 0.0048622 0.00298425 -0.0134331 -0.0103346 -0.00248819 0.00351575 -0.0208622 0.0244882 -0.00383858 0.0170551 -0.0241693 0.0176693 -0.00299213 0.0158937 0.00238583 0.00579528 0 -0.00320079 -0.0226417 -0.0193346 0.00785827 -0.00682283 -0.0169291 -0.0112441 -0.00155906 -0.00206299 -0.0116614 0.00917717 -0.00992126 0.0217913 -0.00859055 0.00554331 -0.00991732zm0.141047 0.221193c0.00237402,0.00811811 0.00455512,0.0163268 0.00650394,0.0246181l-0.0013189 0.00140945 0.0028189 0.00529134c0.0071811,0.0326929 0.0109921,0.0666614 0.0109921,0.101512 0,0.112815 -0.0396339,0.216358 -0.105701,0.29752l-0.0154528 0 0 -0.0313937 -0.0179843 -0.0241693 0 -0.0378189 -0.0137244 -0.0136457 -0.00114173 -0.0156811 0.0174606 -0.033374 -0.0331654 -0.0584724 0.00394488 -0.0395669 -0.0298583 -0.00320079 -0.0109528 -0.0109449 -0.0200472 0 -0.010126 0.00938583 -0.0353346 0 -0.0011378 0.00320079 -0.0197244 0 -0.0450394 -0.0514252 0.00042126 -0.0399882 0.00742913 -0.00277953 0.00277953 -0.0152874 -0.0106299 0 -0.00433858 -0.0161339 0.0521535 -0.0376024 0 -0.0266339 0.0255157 -0.0142795 0.0103465 0.0011378 0.0210748 0 0.0164252 -0.00885827 0.053 -0.00415354 0 0.0270827 0.0417244 0.0106299 0.00825197 0.00590157 0.00766929 0 0 -0.0147913 0.0241772 -0.00227165 0.0229252 0.017063 0.0376102 0 0.00245276 -0.00227953zm-0.886961 -0.0514803c0.00521654,-0.0122795 0.0109646,-0.0242874 0.0171732,-0.0360118l0.0192874 -0.0234724 -0.000799213 -0.0083937c0.0319921,-0.0504685 0.0733228,-0.0944331 0.121531,-0.129496l0.0235827 -0.000208661 0.0106614 0.00587008 0.0199409 0.0043622 0.00153543 0.00782677 0.0318189 0.00124409 -0.00434252 -0.0102126 -0.0281929 -0.000846457 0.00661024 -0.00607874 -0.00237795 -0.00754331 -0.0255157 0 0.0278937 -0.0207559 0.0266575 0 0.0124882 0.0172402 0.0208661 0.00124803 0.0125118 -0.0121929 0.00948819 0.00465748 -0.0173465 0.0169173c0,0 -0.0238543,0.000429134 -0.0227205,0.000429134 0.00124409,0 0.00196457,0.0164252 0.00196457,0.0164252l0.0290315 -0.000826772 0.00309843 -0.00774016 0.0200433 -0.00124803 0.00235433 -0.0117677 -0.0117677 -0.00198819 0.00394094 -0.0105236 0.00896063 -0.00280315 0.0314173 0.00155906 -0.0173465 0.0157126 0.00277953 0.012189 0.0180906 0.00267717 -0.00114173 -0.0218976 0.0172441 -0.00910236 0.0305709 -0.00349213 0.0443189 0.019626 0 0.0168228 0.0141457 0.00361811 -0.00711417 0.0133307 -0.0199331 0 -0.00600394 0.0152835 -0.0456457 -0.0108386 0.0359449 -0.019122 -0.0137283 -0.0116654 -0.0309961 0.00391339 -0.00270079 0.00280315 -0.000102362 0 -0.000503937 0.000606299 -0.00888189 0.00931102 -0.0147835 0.00124409 0.0011378 0.00732677 0.00515748 0.00216535 -0.000185039 0.00248819 -0.0120118 0.00164173 -0.000814961 0.0070315 -0.0114567 0.000531496 -0.00205906 -0.0138583 -0.020685 0.00629528 -0.0420472 0.0245945 0.00475984 0.0173504 0.0117717 0.0076378 0.0234528 0.00330709 0 0.0267598 0.0109528 -0.00174016 0.0100236 -0.0209724 0.0249961 -0.00785827 0 -0.0321299 0.0139567 -0.0105236 0.033563 0.00792913 -0.00227165 0.021185 0.00898819 0 0.0247008 -0.0120827 0.0011378 0.0277953 0.0180551 0.0109449 -0.000712598 0.0165315 -0.0172362 0.00590157 0.0011378 0.00547244 0.020752 0.00938583 -0.000425197 0.0113701 -0.00597638 0.000503937 -0.000106299 -0.000295276 -0.0261457 -0.00805906 -0.00114173 -0.00835827 0.00766929 -0.00529134 0 -0.00774409 -0.00827559 -0.00206693 -0.00206299 0.00714173 -0.0144685 0.00216535 -0.00145276 -0.000523622 0 0.00073622 -0.00494094 0.000822835 -0.00412992 -0.00827559 -0.00475984 -0.00206693 -0.0102323 0 -0.00474016 0.00383465 0 0.00846457 0.0088622 0.00287795 0.00870472 0.00124409 -0.00198819 0.000933071 -0.00792913 0.00877559 -0.00351575 -0.00441339 -0.00764961 -0.00198819 -0.0208622 0.019626 0.00266929 0.00227165 -0.0307795 0.017063 -0.0290433 0.030248 -0.00205906 0.0134331 -0.0291181 0.019126 -0.0143543 0.0145709 0.00152756 0.0290118 -0.0200157 -0.0093937 0.000181102 -0.0169488 -0.0556693 0 -0.0288268 0.0145748 -0.0125866 0.0231417 -0.0048622 0.0182677 0.00806299 0.0177756 0.0227165 0.00280315 0.0360433 -0.0241693 0.00320079 0.0119803 -0.0110512 0.0207559 0.0274764 0.00475984 0.00280315 0.042437 0.0376024 0.00629921 0.0239685 -0.0275512 0.0290315 0.00587008 0.0102126 0.0141378 0.0277953 -0.00163386 0.000818898 -0.00827559 0.0153071 0.00753543 0.017248 0.0270748 0.029748 0.000429134 0.0110551 0.0191969 0.00155906 0.023563 0.0329488 0.0124803 0.0415157 0.000429134 0.0121969 0.0199409 0.0184882 0.00597244 -0.00362992 0.0164488 -0.020122 0.0257047 -0.00589764 0.0568307 -0.0182756 0.0143661 -0.0270787 -0.000850394 -0.00898819 0.0157126 0.00670866 0.0294331 -0.0294252 0.0377165 -0.00941339 0.0172638 -0.0280827 0.0134094 -0.0184882 0.00280315 -0.000740157 0.00785827 0.0129331 0.00369685 -0.00156299 0.00838583 -0.0115591 0.0112677 0.00701181 0.00877953 0.0139646 0.000397638 -0.000740157 0.0107323 -0.00370472 0.0106614 -0.0011378 0.00856693 0.0205472 0.0174528 -0.00269291 0.00898819 -0.0280906 -0.000523622 -0.0280039 -0.0243543 -0.021689 -0.0383465 0.00299213 -0.0368661 -0.0165315 -0.0220039 0.00671654 -0.0372874 -0.00981102 -0.00270079 0 -0.0809016c0,0 -0.0274764,-0.0207559 -0.0290354,-0.0207559 -0.00153543,0 -0.014437,-0.00349606 -0.014437,-0.00349606l-0.00280315 -0.0153071 -0.0357598 -0.0447244 0.00362992 -0.0161024 0.00112992 -0.0262598 0.0247008 -0.0172402 -0.00351575 -0.0294409 -0.0361496 -0.00269685 -0.0282244 -0.0322283 -0.0199409 -0.00547244 -0.0130039 -0.00235433 0.00155906 -0.0116929 -0.0164252 -0.00237795 0 0.00661417 -0.0412323 -0.0101063 -0.0166339 -0.0254134 0.00683071 -0.0122953 -0.0261339 -0.0380276 -0.00444488 -0.0278819 -0.0105472 0 0.00351575 0.0270551 0.0180866 0.0279016 -0.00195669 0.0109528 -0.0153898 -0.00238189 -0.0187992 -0.0320276 0 -0.0373898 -0.0195433 -0.00941732 0 -0.0264646zm0.156925 -0.173413l0 -0.000818898 0.0103425 0 0.000818898 -0.00352362 0.0169252 0 0 0.00733071 -0.00484252 0.00639764 -0.0232441 0 0 -0.00938583zm0.0165276 0.0229213c0,0 0.0102402,-0.00173622 0.0111614,-0.00173622 0.000818898,0 0,0.010315 0,0.010315l-0.0232441 0.00145276 -0.00444488 -0.00527165 0.0165276 -0.00475984zm0.0270551 0.0541417l0.0123031 -0.00590157 0.0111535 0.00270079 -0.00380709 0.0149685 -0.0120866 0.00383071 -0.00756299 -0.0155984zm0.0656181 0.0353307l0 0.00970866 -0.0282992 0 -0.0105551 -0.00288583 0.00269685 -0.00682283 0.0135157 -0.00557874 0.0185118 0 0 0.00557874 0.00412992 0zm0.0129016 0.0135394l0 0.0093937 -0.0070315 0.00454331 -0.0088622 0.00164173 0 -0.0155787 0.0158937 0zm-0.00796063 -0.00383071l0 -0.0111614 0.00973622 0.00877559 -0.00973622 0.00238583zm0.00444488 0.0226299l0 0.00918504 -0.00671654 0.00671654 -0.0150748 0 0.00238189 -0.0102402 0.00711417 -0.000606299 0.00145669 -0.00351575 0.0108386 -0.00153937zm-0.0373937 -0.0187992l0.0156024 0 -0.0199409 0.0279843 -0.00825591 -0.00444488 0.00174803 -0.0117717 0.0108465 -0.0117677zm0.0638425 0.0155787l0 0.00920472 -0.0149724 0 -0.00412205 -0.00598425 0 -0.00848425 0.00124409 0 0.0178504 0.00526378zm-0.0138307 -0.0125866l0.00433071 -0.00444882 0.00722047 0.00444882 -0.00576772 0.00475984 -0.00578346 -0.00475984z"/>
    </g>
   </g>
   <g>
    <path id="_276255464" class="fil6" d="M5.52278 1.78589c0.260492,0 0.471669,0.211173 0.471669,0.471665 0,0.260492 -0.211177,0.471665 -0.471669,0.471665l0 -0.943331z"/>
    <g>
     <polygon id="_276255224" class="fil7" points="5.75801,1.97203 5.75905,1.97967 5.74757,1.98206 5.74603,1.99829 5.75976,1.99829 5.77806,1.99652 5.78745,1.98536 5.77743,1.98145 5.77195,1.97515 5.7637,1.96182 5.75976,1.94302 5.74426,1.94612 5.73992,1.95283 5.73992,1.96026 5.74736,1.96531 "/>
     <polygon id="_276255392" class="fil7" points="5.7449,1.97835 5.74571,1.96812 5.73661,1.96418 5.72392,1.96708 5.71451,1.98227 5.71451,1.99197 5.72546,1.99197 "/>
     <path id="_276254456" class="fil7" d="M5.8344 1.90354c0.0109843,0.00967717 0.0215236,0.0198504 0.0315709,0.0305039l-0.000106299 0.0229173 -0.0202638 0.0103386 0.00206299 0.00671654 0.0323504 0.000291339 0.00920079 -0.0136772c0.0207205,0.0255315 0.0388465,0.0532677 0.0539331,0.0828189l-0.00291732 0.00329528 0 0.0208661 0.00919685 -0.00124803 0.00466535 9.84252e-005c0.0030315,0.00683858 0.00592126,0.0137638 0.00863386,0.0207717l-0.0244528 0.000397638 -0.0124055 -0.0135157 -0.00235433 -0.021815 -0.0126181 0.00692913 -0.00682283 0.0265512 -0.0181614 -0.0194173 -0.000740157 -0.0182953 -0.0176732 -0.0151811 -0.00650394 -0.00650787 -0.020437 0 0.0065 0.0182756 0.0245945 0.0136457 0.00423622 0.00455118 -0.00526378 0.00266535 0.000181102 0.0144724 -0.0119803 0.00496457 -0.0102047 -0.00226772 -0.00642913 -0.00899213 0.0166339 0.000818898 0.00455118 -0.00597638 -0.0368701 -0.0249134 -0.00279921 -0.0105276 -0.0149685 0.0135472 -0.0151772 -0.00312598 -0.0231693 0.0299606 -0.00451969 0.0118031 -0.0147874 0.00131496 -0.0218976 0.000106299 -0.0130118 -0.00607874 -0.00383071 -0.0260512 0.00464961 -0.0122717 0.0222165 -0.00486614 0.0242835 0.00486614 0.00298031 -0.0134331 -0.0103386 -0.00248819 0.00351575 -0.0208622 0.0244961 -0.00384252 0.0170512 -0.0241654 0.0176693 -0.00299213 0.0158937 0.00238583 0.00579528 0 -0.00320079 -0.0226417 -0.0193346 0.00785827 -0.0068189 -0.0169252 -0.011248 -0.00155906 -0.00205906 -0.0116654 0.00917323 -0.00992126 0.0217913 -0.00858661 0.00553937 -0.00992126zm-0.311622 0.633673l0 -0.198772 0.0128268 0.00485827 0.0415157 0.000429134 0.0121969 0.0199409 0.0184882 0.00597638 -0.00362992 0.0164449 -0.020122 0.0257047 -0.00589764 0.0568346 -0.0182756 0.0143583 -0.0270787 -0.00084252 -0.00898819 0.0157087 0.00670866 0.0294291 -0.00774409 0.00992913zm0 -0.515134l0 -0.0157165 0.0147835 0.00668898 -0.000429134 0.0113701 -0.00597244 0.0005 -0.000106299 -0.000291339 -0.00827559 -0.00255118zm0 -0.0263228l0 -0.0265669 0.0108386 0.00657087 -0.000708661 0.0165315 -0.0101299 0.00346457zm0 -0.0873504l0 -0.0382087 0.0100236 0.00443701 0 0.0168189 0.0141457 0.00362205 -0.00711417 0.0133307 -0.0170551 0zm0.452669 0.216327c0.00237795,0.00811811 0.00456299,0.0163307 0.00650787,0.0246181l-0.0013189 0.00140945 0.0028189 0.00529134c0.0071811,0.0326929 0.0109921,0.0666614 0.0109921,0.101512 0,0.112811 -0.0396378,0.216358 -0.105701,0.29752l-0.0154528 0 0 -0.0313937 -0.0179843 -0.0241693 0 -0.0378189 -0.0137283 -0.0136457 -0.0011378 -0.0156811 0.0174606 -0.033374 -0.0331654 -0.0584724 0.00394094 -0.0395669 -0.0298543 -0.00320472 -0.0109528 -0.0109409 -0.0200472 0 -0.0101299 0.00938189 -0.0353307 0 -0.0011378 0.00320472 -0.0197244 0 -0.0450394 -0.0514252 0.00042126 -0.0399882 0.00742913 -0.00277953 0.00277953 -0.0152874 -0.0106299 0 -0.00433858 -0.0161339 0.0521496 -0.0375984 0 -0.0266378 0.0255197 -0.0142795 0.0103465 0.0011378 0.0210748 0 0.0164213 -0.00885827 0.053 -0.00415354 0 0.0270866 0.0417283 0.010626 0.00825197 0.00590157 0.00766929 0 0 -0.0147913 0.0241772 -0.00227165 0.0229252 0.017063 0.0376063 0 0.00245276 -0.00227953z"/>
    </g>
   </g>
  </g>
  <g id="_276253760">
   <g>
    <path id="_276254696" class="fil8" d="M5.74674 1.03069c-0.0337756,-0.0337717 -0.0804449,-0.0546654 -0.132,-0.0546654 -0.0515512,0 -0.0982244,0.0208937 -0.132,0.0546654 -0.0337717,0.0337795 -0.0546654,0.0804488 -0.0546654,0.132 0,0.0515512 0.0208937,0.0982244 0.0546654,0.132 0.0337795,0.0337756 0.0804488,0.0546693 0.132,0.0546693 0.0515551,0 0.0982244,-0.0208937 0.132,-0.0546693 0.0337756,-0.0337756 0.0546693,-0.0804488 0.0546693,-0.132 0,-0.0515551 -0.0208937,-0.0982244 -0.0546693,-0.132z"/>
    <path id="_276254552" class="fil9" d="M5.63377 1.00454c0.00294882,0.000330709 0.00508268,0.003 0.00474803,0.00595276 -0.000334646,0.00295669 -0.003,0.00508268 -0.00595669,0.00475197 -0.00295276,-0.000334646 -0.00507874,-0.003 -0.00474803,-0.00595669 0.000334646,-0.00295276 0.003,-0.00508268 0.00595669,-0.00474803zm-0.0998031 0.326476c0.00732283,0.00351969 0.0149134,0.0065748 0.0227244,0.00912992 0.00167717,-0.00215748 0.00267717,-0.00487008 0.00267717,-0.00781496 0,-0.0070315 -0.00570079,-0.0127323 -0.0127323,-0.0127323 -0.00659055,0 -0.0120079,0.00500394 -0.0126693,0.0114173zm0.123602 0.0133976c0.0113976,-0.00267717 0.0223976,-0.0063937 0.0328858,-0.0110551 -0.000641732,-0.00297244 -0.00203937,-0.00566142 -0.00398425,-0.0078622 0.00247638,-0.00202756 0.00419291,-0.00498819 0.00458268,-0.00842126 0.000783465,-0.00698819 -0.00424409,-0.0132913 -0.0112323,-0.0140748 -0.00699213,-0.000787402 -0.0132953,0.00423622 -0.0140827,0.0112283 -0.00026378,0.0023622 0.000133858,0.00464173 0.00104724,0.00666142 -0.0063622,0.0026063 -0.0108425,0.00885827 -0.0108425,0.0161575 0,0.00263386 0.00057874,0.00512992 0.00162598,0.00736614zm0.0713189 -0.0340079l0.000744094 -0.00057874c-0.00026378,0.000169291 -0.000515748,0.000362205 -0.000744094,0.00057874zm0.047563 -0.0544016c0.00579528,-0.0100236 0.010689,-0.0206339 0.014563,-0.0317283 -0.00164173,-0.000748031 -0.0034252,-0.00125591 -0.00531496,-0.00147244 -0.00957874,-0.0010748 -0.0182126,0.00581496 -0.0192953,0.0153898 -0.000862205,0.00767717 0.0033937,0.014752 0.0100472,0.017811zm-0.26 -0.245898c0.0096378,0 0.0174488,0.00781102 0.0174488,0.0174488 0,0.0096378 -0.00781102,0.0174488 -0.0174488,0.0174488 -0.0096378,0 -0.0174488,-0.00781102 -0.0174488,-0.0174488 0,-0.0096378 0.00781102,-0.0174488 0.0174488,-0.0174488zm-0.0435669 0.0526772c0.0070315,0 0.0127323,0.00570079 0.0127323,0.0127323 0,0.0070315 -0.00570079,0.0127362 -0.0127323,0.0127362 -0.00703543,0 -0.0127362,-0.00570472 -0.0127362,-0.0127362 0,-0.0070315 0.00570079,-0.0127323 0.0127362,-0.0127323zm0.0861417 0.0127323c0.00297638,0 0.00538583,0.00240945 0.00538583,0.00538583 0,0.00297244 -0.00240945,0.00538583 -0.00538583,0.00538583 -0.00297244,0 -0.00538583,-0.00241339 -0.00538583,-0.00538583 0,-0.00297638 0.00241339,-0.00538583 0.00538583,-0.00538583zm-0.0556339 0.0435709c0.0096378,0 0.0174528,0.00781102 0.0174528,0.0174488 0,0.0096378 -0.00781496,0.0174528 -0.0174528,0.0174528 -0.0096378,0 -0.0174488,-0.00781496 -0.0174488,-0.0174528 0,-0.0096378 0.00781102,-0.0174488 0.0174488,-0.0174488zm0.104264 0.0174488c0.0070315,0 0.0127323,0.00570079 0.0127323,0.0127362 0,0.0070315 -0.00570079,0.0127323 -0.0127323,0.0127323 -0.0070315,0 -0.0127362,-0.00570079 -0.0127362,-0.0127323 0,-0.00703543 0.00570472,-0.0127362 0.0127362,-0.0127362zm-0.0486299 0c0.00297638,0 0.00538583,0.00240945 0.00538583,0.00538583 0,0.00297244 -0.00240945,0.00538583 -0.00538583,0.00538583 -0.00297244,0 -0.00538583,-0.00241339 -0.00538583,-0.00538583 0,-0.00297638 0.00241339,-0.00538583 0.00538583,-0.00538583zm-0.025126 0.0482874c0.00703543,0 0.0127362,0.00570079 0.0127362,0.0127323 0,0.00703543 -0.00570079,0.0127362 -0.0127362,0.0127362 -0.0070315,0 -0.0127323,-0.00570079 -0.0127323,-0.0127362 0,-0.0070315 0.00570079,-0.0127323 0.0127323,-0.0127323zm0.10898 0.0432441c0.00964173,0 0.0174528,0.00781496 0.0174528,0.0174528 0,0.0096378 -0.00781102,0.0174488 -0.0174528,0.0174488 -0.00963386,0 -0.0174488,-0.00781102 -0.0174488,-0.0174488 0,-0.0096378 0.00781496,-0.0174528 0.0174488,-0.0174528zm-0.114362 0.0305118c0.00297244,0 0.00538189,0.00240945 0.00538189,0.00538189 0,0.00297244 -0.00240945,0.00538583 -0.00538189,0.00538583 -0.00297638,0 -0.00538583,-0.00241339 -0.00538583,-0.00538583 0,-0.00297244 0.00240945,-0.00538189 0.00538583,-0.00538189zm0.06 -0.00172835c0.0070315,0 0.0127323,0.00570079 0.0127323,0.0127323 0,0.00703543 -0.00570079,0.0127362 -0.0127323,0.0127362 -0.00703543,0 -0.0127362,-0.00570079 -0.0127362,-0.0127362 0,-0.0070315 0.00570079,-0.0127323 0.0127362,-0.0127323zm0.0191378 -0.054252c0.0070315,0 0.0127323,0.00570079 0.0127323,0.0127323 0,0.00703543 -0.00570079,0.0127362 -0.0127323,0.0127362 -0.0070315,0 -0.0127362,-0.00570079 -0.0127362,-0.0127362 0,-0.0070315 0.00570472,-0.0127323 0.0127362,-0.0127323zm-0.00734646 0.117c0.00297244,0 0.00538189,0.00240945 0.00538189,0.00538189 0,0.00297638 -0.00240945,0.00538583 -0.00538189,0.00538583 -0.00297638,0 -0.00538976,-0.00240945 -0.00538976,-0.00538583 0,-0.00297244 0.00241339,-0.00538189 0.00538976,-0.00538189zm0.084122 -0.327528c0.00957874,0.0010748 0.0164724,0.00971654 0.0153937,0.0192913 -0.00107874,0.00957874 -0.00971654,0.0164685 -0.0192953,0.0153898 -0.0095748,-0.00107874 -0.0164685,-0.0097126 -0.0153858,-0.0192913 0.0010748,-0.00957874 0.0097126,-0.0164685 0.0192874,-0.0153898zm-0.0491811 0.0474764c0.00698425,0.000783465 0.0120157,0.00708661 0.0112283,0.0140748 -0.000787402,0.00698819 -0.00709055,0.0120197 -0.0140787,0.0112323 -0.00698819,-0.000787402 -0.0120157,-0.00709055 -0.0112323,-0.0140787 0.000787402,-0.00699213 0.00709449,-0.0120157 0.0140827,-0.0112283zm0.0841811 0.0222874c0.00295276,0.000330709 0.00507874,0.00299606 0.00474409,0.00595276 -0.000330709,0.00295276 -0.00299606,0.00508268 -0.00595276,0.00474803 -0.00295276,-0.000330709 -0.00508268,-0.003 -0.00474803,-0.00595276 0.000330709,-0.00295669 0.003,-0.00508268 0.00595669,-0.00474803zm-0.0601614 0.0370709c0.00957874,0.00107874 0.0164724,0.00971654 0.0153898,0.0192953 -0.0010748,0.00957874 -0.0097126,0.0164685 -0.0192913,0.0153898 -0.00957874,-0.00107874 -0.0164685,-0.00971654 -0.0153898,-0.0192913 0.00107874,-0.00957874 0.00971654,-0.0164724 0.0192913,-0.0153937zm0.101657 0.0290039c0.00699213,0.000783465 0.0120157,0.00709055 0.0112323,0.0140787 -0.000787402,0.00698819 -0.00709055,0.0120157 -0.0140787,0.0112323 -0.00698819,-0.000787402 -0.0120157,-0.00709055 -0.0112283,-0.0140827 0.000783465,-0.00698819 0.00708661,-0.0120157 0.0140748,-0.0112283zm-0.0483228 -0.00543701c0.00295669,0.000330709 0.00508268,0.00299606 0.00474803,0.00595276 -0.000330709,0.00295669 -0.00299606,0.00507874 -0.00594882,0.00474803 -0.00295669,-0.000334646 -0.00508661,-0.003 -0.00475197,-0.00595276 0.000330709,-0.00295669 0.00299606,-0.00508268 0.00595276,-0.00474803zm-0.0303661 0.0451732c0.00698819,0.000787402 0.0120157,0.00708661 0.0112283,0.0140787 -0.000783465,0.00698819 -0.00709055,0.0120157 -0.0140787,0.0112283 -0.00698819,-0.000787402 -0.0120157,-0.00709055 -0.0112283,-0.0140787 0.000787402,-0.00698819 0.00709055,-0.0120157 0.0140787,-0.0112283zm-0.0135984 0.072689c0.00295276,0.000330709 0.00507874,0.00299606 0.00474803,0.00595276 -0.000334646,0.00295276 -0.003,0.00508268 -0.00595276,0.00475197 -0.00295669,-0.000334646 -0.00508268,-0.00300394 -0.00475197,-0.00595669 0.000334646,-0.00295276 0.003,-0.00507874 0.00595669,-0.00474803zm0.059815 0.00499213c0.00698819,0.000787402 0.0120157,0.00708661 0.0112283,0.0140787 -0.000783465,0.00698819 -0.00708661,0.0120157 -0.0140748,0.0112323 -0.00699213,-0.000787402 -0.0120197,-0.00709449 -0.0112323,-0.0140827 0.000787402,-0.00698425 0.00709055,-0.0120157 0.0140787,-0.0112283zm0.0250866 -0.0517677c0.00699213,0.000787402 0.0120157,0.00708661 0.0112283,0.0140748 -0.000783465,0.00698819 -0.00708661,0.0120157 -0.0140748,0.0112323 -0.00699213,-0.000787402 -0.0120197,-0.00709055 -0.0112362,-0.0140787 0.000791339,-0.00698819 0.00709449,-0.0120157 0.0140827,-0.0112283z"/>
   </g>
   <g>
    <path id="_276254120" class="fil10" d="M5.74674 1.03069c-0.0337717,-0.0337677 -0.0804331,-0.0546614 -0.13198,-0.0546654l0 0.373335c0.0515433,-7.87402e-006 0.0982087,-0.0208976 0.13198,-0.0546693 0.0337756,-0.0337756 0.0546693,-0.0804488 0.0546693,-0.132 0,-0.0515551 -0.0208937,-0.0982244 -0.0546693,-0.132z"/>
    <path id="_276254408" class="fil11" d="M5.63377 1.00454c0.00294882,0.000330709 0.00508268,0.003 0.00474803,0.00595276 -0.000334646,0.00295669 -0.003,0.00508268 -0.00595669,0.00475197 -0.00295276,-0.000334646 -0.00507874,-0.003 -0.00474803,-0.00595669 0.000334646,-0.00295276 0.003,-0.00508268 0.00595669,-0.00474803zm-0.0190039 0.134165l0 0.0211339c0.0033937,-0.0022874 0.00562205,-0.00616535 0.00562205,-0.0105669 0,-0.00440157 -0.00222835,-0.00827953 -0.00562205,-0.0105669zm0 0.066063l0 0.0211299c0.0033937,-0.0022874 0.00562205,-0.00616535 0.00562205,-0.0105669 0,-0.00439764 -0.00222835,-0.00827559 -0.00562205,-0.010563zm0.0428031 0.139646c0.0113976,-0.00267717 0.0223976,-0.0063937 0.0328858,-0.0110551 -0.000641732,-0.00297244 -0.00203937,-0.00566142 -0.00398425,-0.0078622 0.00247638,-0.00202756 0.00419291,-0.00498819 0.00458268,-0.00842126 0.000783465,-0.00698819 -0.00424409,-0.0132913 -0.0112323,-0.0140748 -0.00699213,-0.000787402 -0.0132953,0.00423622 -0.0140827,0.0112283 -0.00026378,0.0023622 0.000133858,0.00464173 0.00104724,0.00666142 -0.0063622,0.0026063 -0.0108425,0.00885827 -0.0108425,0.0161575 0,0.00263386 0.00057874,0.00512992 0.00162598,0.00736614zm0.0713189 -0.0340079l0.000744094 -0.00057874c-0.00026378,0.000169291 -0.000515748,0.000362205 -0.000744094,0.00057874zm0.047563 -0.0544016c0.00579528,-0.0100236 0.010689,-0.0206339 0.014563,-0.0317283 -0.00164173,-0.000748031 -0.0034252,-0.00125591 -0.00531496,-0.00147244 -0.00957874,-0.0010748 -0.0182126,0.00581496 -0.0192953,0.0153898 -0.000862205,0.00767717 0.0033937,0.014752 0.0100472,0.017811zm-0.133571 -0.027937c0.00964173,0 0.0174528,0.00781496 0.0174528,0.0174528 0,0.0096378 -0.00781102,0.0174488 -0.0174528,0.0174488 -0.00963386,0 -0.0174488,-0.00781102 -0.0174488,-0.0174488 0,-0.0096378 0.00781496,-0.0174528 0.0174488,-0.0174528zm0.0415512 -0.235996c0.00957874,0.0010748 0.0164724,0.00971654 0.0153937,0.0192913 -0.00107874,0.00957874 -0.00971654,0.0164685 -0.0192953,0.0153898 -0.0095748,-0.00107874 -0.0164685,-0.0097126 -0.0153858,-0.0192913 0.0010748,-0.00957874 0.0097126,-0.0164685 0.0192874,-0.0153898zm-0.0491811 0.0474764c0.00698425,0.000783465 0.0120157,0.00708661 0.0112283,0.0140748 -0.000787402,0.00698819 -0.00709055,0.0120197 -0.0140787,0.0112323 -0.00698819,-0.000787402 -0.0120157,-0.00709055 -0.0112323,-0.0140787 0.000787402,-0.00699213 0.00709449,-0.0120157 0.0140827,-0.0112283zm0.0841811 0.0222874c0.00295276,0.000330709 0.00507874,0.00299606 0.00474409,0.00595276 -0.000330709,0.00295276 -0.00299606,0.00508268 -0.00595276,0.00474803 -0.00295276,-0.000330709 -0.00508268,-0.003 -0.00474803,-0.00595276 0.000330709,-0.00295669 0.003,-0.00508268 0.00595669,-0.00474803zm-0.0601614 0.0370709c0.00957874,0.00107874 0.0164724,0.00971654 0.0153898,0.0192953 -0.0010748,0.00957874 -0.0097126,0.0164685 -0.0192913,0.0153898 -0.00957874,-0.00107874 -0.0164685,-0.00971654 -0.0153898,-0.0192913 0.00107874,-0.00957874 0.00971654,-0.0164724 0.0192913,-0.0153937zm0.101657 0.0290039c0.00699213,0.000783465 0.0120157,0.00709055 0.0112323,0.0140787 -0.000787402,0.00698819 -0.00709055,0.0120157 -0.0140787,0.0112323 -0.00698819,-0.000787402 -0.0120157,-0.00709055 -0.0112283,-0.0140827 0.000783465,-0.00698819 0.00708661,-0.0120157 0.0140748,-0.0112283zm-0.0483228 -0.00543701c0.00295669,0.000330709 0.00508268,0.00299606 0.00474803,0.00595276 -0.000330709,0.00295669 -0.00299606,0.00507874 -0.00594882,0.00474803 -0.00295669,-0.000334646 -0.00508661,-0.003 -0.00475197,-0.00595276 0.000330709,-0.00295669 0.00299606,-0.00508268 0.00595276,-0.00474803zm-0.0303661 0.0451732c0.00698819,0.000787402 0.0120157,0.00708661 0.0112283,0.0140787 -0.000783465,0.00698819 -0.00709055,0.0120157 -0.0140787,0.0112283 -0.00698819,-0.000787402 -0.0120157,-0.00709055 -0.0112283,-0.0140787 0.000787402,-0.00698819 0.00709055,-0.0120157 0.0140787,-0.0112283zm-0.0135984 0.072689c0.00295276,0.000330709 0.00507874,0.00299606 0.00474803,0.00595276 -0.000334646,0.00295276 -0.003,0.00508268 -0.00595276,0.00475197 -0.00295669,-0.000334646 -0.00508268,-0.00300394 -0.00475197,-0.00595669 0.000334646,-0.00295276 0.003,-0.00507874 0.00595669,-0.00474803zm0.059815 0.00499213c0.00698819,0.000787402 0.0120157,0.00708661 0.0112283,0.0140787 -0.000783465,0.00698819 -0.00708661,0.0120157 -0.0140748,0.0112323 -0.00699213,-0.000787402 -0.0120197,-0.00709449 -0.0112323,-0.0140827 0.000787402,-0.00698425 0.00709055,-0.0120157 0.0140787,-0.0112283zm0.0250866 -0.0517677c0.00699213,0.000787402 0.0120157,0.00708661 0.0112283,0.0140748 -0.000783465,0.00698819 -0.00708661,0.0120157 -0.0140748,0.0112323 -0.00699213,-0.000787402 -0.0120197,-0.00709055 -0.0112362,-0.0140787 0.000791339,-0.00698819 0.00709449,-0.0120157 0.0140827,-0.0112283z"/>
   </g>
  </g>
  <g id="_276252536">
   <g>
    <circle id="_276253232" class="fil12" cx="2.41928" cy="1.89452" r="0.401197"/>
    <path id="_276253376" class="fil13" d="M2.02392 1.96294c-0.00382283,-0.0222402 -0.00583465,-0.0450945 -0.00583465,-0.0684213 0,-0.0117205 0.000531496,-0.0233071 0.00151181,-0.0347756l0.40139 0c0.028374,0 0.0515906,0.0232126 0.0515906,0.0515906l0 1.5748e-005c0,0.028374 -0.0232165,0.0515906 -0.0515906,0.0515906l-0.397067 0z"/>
    <path id="_276253592" class="fil13" d="M2.7482 2.12426c-0.0725354,0.103654 -0.192799,0.171453 -0.328913,0.171453 -0.107508,0 -0.205146,-0.0422913 -0.277177,-0.111146 0.0725354,-0.103654 0.192799,-0.171457 0.328913,-0.171457 0.107512,0 0.205146,0.0422953 0.277177,0.11115z"/>
    <path id="_276253352" class="fil13" d="M2.41928 1.49332c0.127681,0 0.241429,0.0596575 0.314906,0.15261 -0.0704803,0.0614134 -0.162614,0.0986102 -0.263433,0.0986102 -0.127681,0 -0.241433,-0.0596535 -0.314906,-0.152606 0.0704803,-0.0614173 0.162614,-0.0986142 0.263433,-0.0986142z"/>
   </g>
   <g>
    <path id="_276252512" class="fil13" d="M2.41929 1.49333c0.221567,0 0.401185,0.179618 0.401185,0.401201 0,0.221567 -0.179618,0.401185 -0.401185,0.401185l-7.87402e-006 0 0 -0.802386 7.87402e-006 0z"/>
    <path id="_276253136" class="fil14" d="M2.41928 1.85975l0.00170079 0c0.0283819,0 0.0515906,0.0232087 0.0515906,0.0515906l0 1.1811e-005c0,0.028378 -0.0232087,0.0515866 -0.0515906,0.0515866l-0.00170079 0 0 -0.103189z"/>
    <path id="_276252656" class="fil14" d="M2.7482 2.12426c-0.0725394,0.10365 -0.192803,0.171449 -0.328909,0.171449l-7.87402e-006 0 0 -0.279283c0.0169409,-0.0021811 0.0342047,-0.00331496 0.0517402,-0.00331496 0.107512,0 0.205146,0.0422953 0.277177,0.11115z"/>
    <path id="_276252752" class="fil14" d="M2.41929 1.49333c0.127673,0 0.241421,0.0596535 0.314898,0.152598 -0.0704843,0.0614173 -0.162614,0.0986102 -0.263433,0.0986102 -0.0174409,0 -0.0346181,-0.00111811 -0.0514724,-0.00327953l0 -0.247929 7.87402e-006 0z"/>
   </g>
  </g>
 </g>
 <rect class="fil0" width="6.82666" height="6.82666"/>
</svg>
