<svg xmlns="http://www.w3.org/2000/svg" width="128" height="128" viewBox="0 0 128 128">
  <title>PEAFOWL </title>
  <g>
    <g>
      <path d="M86.5,15.443c0-6.333-8.042-9.968-12.437-8.688-5,1.458-9.9,6.855-3.23,26.688S64,91.193,64,91.193c14.25-12,17.083-45.61,14.917-55.36C77.441,29.2,75.625,12.818,86.5,15.443Z" fill="#3ba9fd"/>
      <path d="M107.489,32.524c2.057-5.441-3.671-11.177-7.864-11.505C94.852,20.646,88.9,23.693,88.18,42.9S63.546,90.3,63.546,90.3c16.142-5.681,29.5-33.639,30.8-42.72C95.238,41.4,99,26.736,107.489,32.524Z" fill="#3ba9fd"/>
      <path d="M117.784,58.637c3.621-3.719.977-10.452-2.336-12.213-3.772-2.005-9.73-1.634-17.157,13.824s-37.035,30-37.035,30c15.23,1.1,36.112-17.013,40.415-23.977C104.6,61.532,112.9,50.877,117.784,58.637Z" fill="#3ba9fd"/>
      <path d="M117.987,81.461c4.4-2.124,4.234-8.933,1.869-11.56-2.691-2.99-8.083-4.582-19.636,6.7S57.778,91.216,57.778,91.216C70.9,97.1,95.216,87.8,101.268,83.025,105.389,79.774,116.165,73.02,117.987,81.461Z" fill="#3ba9fd"/>
      <path d="M113.818,97.847c4.368-.672,6.02-6.6,4.671-9.5-1.537-3.3-5.778-6.1-18.747.606s-40.551,1.419-40.551,1.419c9.789,8.553,33.267,6.939,39.761,4.409C103.373,93.06,114.474,90.069,113.818,97.847Z" fill="#3ba9fd"/>
      <path d="M41.5,15.443c0-6.333,8.042-9.968,12.438-8.688,5,1.458,9.895,6.855,3.229,26.688S64,91.193,64,91.193c-14.25-12-17.083-45.61-14.917-55.36C50.559,29.2,52.375,12.818,41.5,15.443Z" fill="#3ba9fd"/>
      <path d="M20.511,32.524c-2.057-5.441,3.671-11.177,7.864-11.505C33.148,20.646,39.1,23.693,39.82,42.9S64.454,90.3,64.454,90.3c-16.142-5.681-29.5-33.639-30.8-42.72C32.762,41.4,29,26.736,20.511,32.524Z" fill="#3ba9fd"/>
      <path d="M10.216,58.637C6.6,54.918,9.239,48.185,12.552,46.424c3.772-2.005,9.73-1.634,17.157,13.824s37.035,30,37.035,30c-15.23,1.1-36.112-17.013-40.415-23.977C23.4,61.532,15.1,50.877,10.216,58.637Z" fill="#3ba9fd"/>
      <path d="M10.013,81.461c-4.4-2.124-4.234-8.933-1.869-11.56,2.691-2.99,8.083-4.582,19.636,6.7S70.222,91.216,70.222,91.216C57.1,97.1,32.784,87.8,26.732,83.025,22.611,79.774,11.835,73.02,10.013,81.461Z" fill="#3ba9fd"/>
      <path d="M14.182,97.847c-4.368-.672-6.02-6.6-4.671-9.5,1.537-3.3,5.778-6.1,18.747.606s40.551,1.419,40.551,1.419c-9.789,8.553-33.267,6.939-39.761,4.409C24.627,93.06,13.526,90.069,14.182,97.847Z" fill="#3ba9fd"/>
      <path d="M76.875,81.875C72.75,74.875,69.417,65.333,70,56.5c.417-5.167-1.1-18.749-13.667-10.75a7.371,7.371,0,0,0-2.946,4.861,14.5,14.5,0,0,0-4.012,6.014,7.412,7.412,0,0,0,7.154-1.308,9.8,9.8,0,0,0,3.221.371c5.563-.25,1.438,12.25-1.242,15.9-4.543,6.192-19.258,21.244-12.675,31.494,4.5,6.334,12.75,7.167,18.167,7.167s13.667-.833,18.167-7.167C85.375,96.75,81,88.875,76.875,81.875Z" fill="#fc4b00"/>
    </g>
    <g>
      <path d="M79.04,36.1a1.751,1.751,0,0,0-1.522,1.952c.089.715.158,1.508.208,2.355a1.749,1.749,0,0,0,1.745,1.649c.034,0,.069,0,.1,0a1.75,1.75,0,0,0,1.646-1.848c-.054-.923-.131-1.792-.228-2.583A1.756,1.756,0,0,0,79.04,36.1Z" fill="#072130"/>
      <path d="M121.161,68.73a7.918,7.918,0,0,0-5.807-2.757C110.938,65.828,105.6,68.9,99,75.348c-2.707,2.645-6.783,5.047-12.155,7.178,7.854-5.451,14.171-11.857,16.316-15.337,2.838-4.59,7.3-9.536,10.392-9.547.374,0,1.531-.006,2.748,1.93a1.751,1.751,0,0,0,2.734.29,8.4,8.4,0,0,0,2.119-7.352c-.506-3.277-2.465-6.344-4.88-7.636a8.305,8.305,0,0,0-6.712-.628c-4.41,1.449-8.612,6.436-12.846,15.246-2.032,4.225-6.151,8.9-12.09,13.765C90.917,63.771,95.31,53.171,96.082,47.83c.871-6.045,3.286-13.2,6.531-14.631.416-.183,1.68-.739,3.892.768a1.751,1.751,0,0,0,2.622-.827,9.211,9.211,0,0,0-1.1-8.317c-1.956-3.083-5.278-5.313-8.269-5.548a9.107,9.107,0,0,0-7.018,2.3c-3.835,3.418-5.9,10.372-6.306,21.259-.249,6.69-3.523,14.621-7.474,21.879a103.021,103.021,0,0,0,2.316-18.281,1.75,1.75,0,0,0-1.691-1.807,1.768,1.768,0,0,0-1.807,1.691,97.841,97.841,0,0,1-4,24.426,46.317,46.317,0,0,1-1.3-4.919c2.6-14.13,2.608-25.214.012-32.94-4.229-12.592-3.412-18.492-1.982-21.224a6.283,6.283,0,0,1,4.045-3.22c2.006-.588,5.086.2,7.318,1.869a7.364,7.364,0,0,1,2.5,3.1h-.072a6.989,6.989,0,0,0-4.855,1.8c-3.881,3.513-3.745,11.168-2.947,16.97a1.75,1.75,0,1,0,3.467-.476c-.938-6.819-.254-12.014,1.829-13.9.992-.9,2.4-1.11,4.3-.654a1.75,1.75,0,0,0,2.16-1.7,9.89,9.89,0,0,0-4.282-7.934c-3.142-2.353-7.321-3.327-10.4-2.427a9.742,9.742,0,0,0-6.167,4.956c-2.575,4.92-2,12.758,1.765,23.962a43.042,43.042,0,0,1,1.747,14.455,10.01,10.01,0,0,0-4.074-5.905c-2.584-1.556-5.829-1.319-9.658.689A36.128,36.128,0,0,1,58.829,34c3.763-11.2,4.34-19.042,1.765-23.962a9.736,9.736,0,0,0-6.162-4.954c-3.077-.905-7.258.071-10.4,2.425A9.89,9.89,0,0,0,39.75,15.44a1.75,1.75,0,0,0,2.16,1.7c1.968-.474,3.411-.226,4.412.758,2.8,2.749,2.5,11.025,1.049,17.554-.949,4.3-.962,12.412.261,21.3,0,.034.01.067.014.1.358,2.582.821,5.227,1.395,7.863-3.966-7.28-7.221-15.191-7.473-21.884-.407-10.887-2.47-17.841-6.3-21.259a9.1,9.1,0,0,0-7.02-2.3c-2.989.235-6.311,2.465-8.267,5.548a9.211,9.211,0,0,0-1.1,8.317,1.751,1.751,0,0,0,2.622.827c2.213-1.507,3.477-.951,3.892-.768,3.245,1.429,5.66,8.586,6.531,14.631.765,5.3,5.176,15.945,11.485,25.452-5.946-4.873-10.078-9.556-12.116-13.791a1.75,1.75,0,1,0-3.154,1.518c3.089,6.418,9.992,13.327,20.51,20.552q-.38.555-.751,1.12C38.3,77.072,30.161,69.155,27.818,65.35c-1.154-1.868-7.224-11.185-13.355-11.208H14.44a6,6,0,0,0-3.995,1.534,5.969,5.969,0,0,1-.137-2.632c.33-2.138,1.649-4.322,3.062-5.078,1.275-.676,5.156-2.736,11.163,6.519a1.75,1.75,0,0,0,2.935-1.905c-6.405-9.87-12.093-9.639-15.743-7.7-2.411,1.289-4.37,4.356-4.876,7.633a8.4,8.4,0,0,0,2.119,7.352,1.751,1.751,0,0,0,2.734-.29c1.217-1.936,2.375-1.932,2.748-1.93,3.092.011,7.554,4.957,10.39,9.545C27.227,71.064,33.617,77.3,41.15,82.52,35.785,80.391,31.71,77.99,29,75.348,22.4,68.9,17.046,65.83,12.646,65.973a7.919,7.919,0,0,0-5.808,2.758,10.168,10.168,0,0,0-1.881,8.405,8.008,8.008,0,0,0,4.293,5.9,1.749,1.749,0,0,0,2.47-1.207c.4-1.84,1.188-2.319,1.749-2.52,2.589-.934,8.087,1.857,12.177,5.095a42.982,42.982,0,0,0,9.623,5.083A25.079,25.079,0,0,1,29.063,87.4C21.6,83.543,16.129,82.3,12.318,83.6a7.331,7.331,0,0,0-4.394,4.008,9.347,9.347,0,0,0,.585,7.9,7.429,7.429,0,0,0,5.4,4.075A1.75,1.75,0,0,0,15.924,97.7c-.134-1.612.381-2.195.781-2.493,1.94-1.451,7.359-.493,11.707,1.2,2.937,1.149,8.333,1.946,14.068,2.109a12.173,12.173,0,0,0,1.233,4.374,1.75,1.75,0,0,0,3.129-1.569c-2.03-4.049-.475-9.064,2.23-13.871.014-.024.029-.049.042-.074a87.827,87.827,0,0,1,8.171-11.4c1.04-1.29,1.938-2.405,2.634-3.354l.021-.03.039-.058c2.212-3.089,5.792-12.33,3.578-16.467a3.96,3.96,0,0,0-3.886-2.13,8.125,8.125,0,0,1-2.642-.3,1.75,1.75,0,0,0-1.6.312A5.482,5.482,0,0,1,51.9,55.266h0a11.028,11.028,0,0,1,2.6-3.3,1.749,1.749,0,0,0,.637-1.214,5.709,5.709,0,0,1,2.142-3.527c2.341-1.49,5.588-2.993,7.765-1.681,2.841,1.711,3.482,7.541,3.216,10.84-.518,7.841,1.816,15.26,4.123,20.508l.011.024a56.7,56.7,0,0,0,2.979,5.847c4.257,7.223,7.862,14.144,5.3,19.413-2.131,2.935-5.389,4.829-9.871,5.722-.034.006-.068.01-.1.018A35.05,35.05,0,0,1,64,108.5c-5.421,0-9.592-.912-12.75-2.789a1.751,1.751,0,0,0-1.788,3.01,21.446,21.446,0,0,0,5.708,2.289v5.781l-4.11,3.353a1.75,1.75,0,0,0,2.213,2.712l3.9-3.181,2.754,1.286a1.75,1.75,0,0,0,1.481-3.172l-2.737-1.277v-4.845A41.456,41.456,0,0,0,64,112a40.508,40.508,0,0,0,5.33-.337v4.849l-2.737,1.277a1.75,1.75,0,0,0,1.481,3.172l2.754-1.286,3.9,3.181a1.75,1.75,0,0,0,2.213-2.712l-4.11-3.353V111c4.748-1.211,8.357-3.512,10.763-6.9a1.89,1.89,0,0,0,.135-.223A12.164,12.164,0,0,0,85,98.528c5.843-.131,11.538-.931,14.582-2.117,4.351-1.694,9.77-2.651,11.71-1.2.4.3.915.881.781,2.493a1.749,1.749,0,0,0,2.013,1.875,7.429,7.429,0,0,0,5.4-4.075,9.347,9.347,0,0,0,.585-7.9,7.331,7.331,0,0,0-4.394-4.008c-3.809-1.3-9.287-.059-16.745,3.8a25.1,25.1,0,0,1-6.247,2.1,43.147,43.147,0,0,0,9.666-5.09c4.088-3.234,9.583-6.026,12.175-5.093.561.2,1.352.68,1.749,2.52a1.749,1.749,0,0,0,2.47,1.207,8.008,8.008,0,0,0,4.293-5.9A10.168,10.168,0,0,0,121.161,68.73ZM26.8,30a6.571,6.571,0,0,0-4.966-.117,6.7,6.7,0,0,1,1.1-3.181c1.33-2.1,3.731-3.788,5.583-3.933a5.652,5.652,0,0,1,4.419,1.423c2.092,1.865,4.682,6.636,5.137,18.778.406,10.789,7.756,24.1,14.15,33.746-.321.411-.647.833-.974,1.261-9.184-10.848-15.088-25.26-15.865-30.642C35.034,44.914,32.984,32.722,26.8,30ZM12.287,76.014a5.728,5.728,0,0,0-3.041,2.559,5.628,5.628,0,0,1-.856-2.116A6.81,6.81,0,0,1,9.441,71.07a4.484,4.484,0,0,1,3.319-1.6c2.285-.079,6.566,1.318,13.8,8.381,3.874,3.781,10.086,7.064,18.477,9.773q-.319.648-.608,1.3c-7.593-2.157-14.02-5.227-16.611-7.269C26.188,80.37,17.789,74.049,12.287,76.014ZM14.61,92.406a5.322,5.322,0,0,0-1.947,2.85,5.132,5.132,0,0,1-1.066-1.4,5.948,5.948,0,0,1-.5-4.767,3.852,3.852,0,0,1,2.352-2.177c1.937-.663,5.944-.575,14.008,3.592,3.729,1.927,8.881,3.081,15.313,3.452q-.108.532-.185,1.063c-5.993-.169-10.815-1.055-12.9-1.871C27.206,92.184,18.8,89.279,14.61,92.406Zm45.219-34.97c.484-.019.551.113.642.284.79,1.477-.036,5.361-1.278,8.643q-.91-4.743-1.425-9.03A11.94,11.94,0,0,0,59.829,57.436Zm-5.456.968c.507,3.992,1.254,8.274,2.24,12.792-.46.6-1,1.277-1.595,2.016A88.5,88.5,0,0,1,51.48,58.743,8.8,8.8,0,0,0,54.373,58.4Zm-2.614-8.7a13.025,13.025,0,0,0-1.239,1.329c-.545-6.3-.416-11.732.268-14.826.575-2.579,3.18-15.7-2.013-20.808a7.042,7.042,0,0,0-5.108-1.99h-.035a7.349,7.349,0,0,1,2.5-3.105c2.231-1.672,5.307-2.457,7.323-1.868a6.281,6.281,0,0,1,4.04,3.219c1.43,2.732,2.247,8.632-1.982,21.224a43.113,43.113,0,0,0-1.92,13.061A9.61,9.61,0,0,0,51.759,49.708Zm48.108,11.3c4.667-9.71,8.441-12.667,10.785-13.437a4.865,4.865,0,0,1,3.973.392c1.418.759,2.737,2.943,3.067,5.081a5.969,5.969,0,0,1-.137,2.632,6,6,0,0,0-4-1.534h-.023c-6.131.023-12.2,9.34-13.357,11.21C97.808,69.2,89.263,77.446,79.56,83c-.223-.385-.442-.764-.66-1.135C89.682,74.524,96.74,67.51,99.867,61.008ZM89.929,42.965c.455-12.141,3.045-16.912,5.137-18.777a5.666,5.666,0,0,1,4.417-1.423c1.854.145,4.255,1.836,5.585,3.933a6.7,6.7,0,0,1,1.1,3.181A6.57,6.57,0,0,0,101.2,30c-6.186,2.726-8.236,14.918-8.584,17.334-.888,6.143-7.389,20.582-15.871,30.654q-.395-.784-.76-1.58C82.251,66.9,89.529,53.666,89.929,42.965Zm10.614,47.54c8.065-4.167,12.07-4.252,14.009-3.592a3.856,3.856,0,0,1,2.353,2.177,5.953,5.953,0,0,1-.5,4.767,5.132,5.132,0,0,1-1.066,1.4,5.322,5.322,0,0,0-1.947-2.85c-4.187-3.126-12.6-.221-15.075.743-2.232.869-7.346,1.787-13.622,1.891-.067-.348-.154-.7-.24-1.043C91.254,93.675,96.669,92.508,100.543,90.505ZM119.61,76.457a5.628,5.628,0,0,1-.856,2.116,5.728,5.728,0,0,0-3.041-2.559c-5.5-1.977-13.9,4.355-15.527,5.642-2.665,2.1-9.548,5.346-17.425,7.492-.189-.427-.388-.85-.59-1.271,8.8-2.758,15.281-6.125,19.272-10.025,7.232-7.063,11.511-8.472,13.8-8.381a4.483,4.483,0,0,1,3.318,1.6A6.809,6.809,0,0,1,119.61,76.457Z" fill="#072130"/>
      <path d="M66.871,105.9a22.635,22.635,0,0,0,6.386-1.279,1.75,1.75,0,1,0-1.233-3.275,19.584,19.584,0,0,1-5.407,1.064,1.75,1.75,0,0,0,.125,3.5C66.785,105.906,66.828,105.9,66.871,105.9Z" fill="#072130"/>
    </g>
  </g>
</svg>
