<svg xmlns="http://www.w3.org/2000/svg" width="48.002" height="39.786" viewBox="0 0 48.002 39.786">
  <g>
    <path d="M41.18,9.62a4.78,4.78,0,0,1-1.11-.13,7.622,7.622,0,0,0-3.318-.011l-.382-1.45a9.125,9.125,0,0,1,4.049,0,3.01,3.01,0,0,0,2.3-.336,1.422,1.422,0,0,0,.59-1.725,1.6,1.6,0,0,0-1.005-.806,1.861,1.861,0,0,0-1.317.1,1.636,1.636,0,0,0-.769.9l-1.453-.372A3.106,3.106,0,0,1,40.231,3.97a3.341,3.341,0,0,1,2.482-.249,3.082,3.082,0,0,1,1.92,1.539,2.925,2.925,0,0,1-1.108,3.7A4.366,4.366,0,0,1,41.18,9.62Z" fill="#7a8e9b"/>
    <path d="M34.664,12.477a91.911,91.911,0,0,1-13.143,5.889A92.186,92.186,0,0,1,7.7,22.432a22.934,22.934,0,0,1-4.125.482c-.237,0-.451-.009-.647-.023,1.2,1.161,3.271,1.884,6.049,2.068a35.739,35.739,0,0,0,14.052-2.5c7.391-2.729,12.956-6.8,14.866-10.485a11.411,11.411,0,0,0-.161-1.508A24.978,24.978,0,0,1,34.664,12.477Z" fill="#e49a61"/>
    <path d="M30.075,4.476A38.06,38.06,0,0,0,17.339,7.039a35.676,35.676,0,0,0-12.3,7.233c-1.995,1.947-3.106,3.847-3.259,5.511a19.021,19.021,0,0,1,3.932-2.762,92.153,92.153,0,0,1,13.144-5.889A92.134,92.134,0,0,1,32.668,7.067,25.177,25.177,0,0,1,36.31,6.6a11.424,11.424,0,0,0-.859-1.253A14.571,14.571,0,0,0,30.075,4.476Z" fill="#e49a61"/>
    <path d="M36.894,7.716l-.092,0a21.7,21.7,0,0,0-3.923.459,90.846,90.846,0,0,0-13.638,4.016A90.776,90.776,0,0,0,6.266,18c-3.818,2.183-4.352,3.294-4.287,3.472s1.2.677,5.515-.145a91.083,91.083,0,0,0,13.638-4.016A91.052,91.052,0,0,0,34.107,11.5a21.154,21.154,0,0,0,3.35-2.261c-.075-.259-.158-.517-.252-.773S37.005,7.962,36.894,7.716Z" fill="#e49a61"/>
    <path d="M23.422,23.514A38.84,38.84,0,0,1,10.39,26.128q-.762,0-1.484-.048C4.659,25.8,1.825,24.3.924,21.861s.279-5.422,3.325-8.4a36.766,36.766,0,0,1,12.7-7.482c6.6-2.438,12.727-3.15,16.966-2.247-4.472-3.906-12.1-5-19.966-2.092C3.491,5.506-2.058,14.454.706,21.941S13.5,32.622,23.959,28.76c7.869-2.9,12.957-8.688,13.817-14.563C35.143,17.639,30.023,21.077,23.422,23.514Z" fill="#e49a61"/>
    <path d="M16.95,5.985a36.772,36.772,0,0,0-12.7,7.482C1.2,16.44.023,19.421.925,21.862S4.66,25.8,8.907,26.081q.723.048,1.484.048a38.849,38.849,0,0,0,13.032-2.614c6.6-2.437,11.721-5.875,14.356-9.316a12.122,12.122,0,0,0,.12-2.224c-1.91,3.683-7.475,7.757-14.866,10.485a35.739,35.739,0,0,1-14.052,2.5c-2.777-.185-4.849-.907-6.049-2.068.2.015.41.023.647.023A23.008,23.008,0,0,0,7.7,22.433a92.152,92.152,0,0,0,13.817-4.066,91.911,91.911,0,0,0,13.143-5.889,24.837,24.837,0,0,0,3.073-2.011,11.268,11.268,0,0,0-.282-1.227A21.105,21.105,0,0,1,34.1,11.5,91.113,91.113,0,0,1,21.13,17.312,91.2,91.2,0,0,1,7.492,21.328c-4.318.821-5.449.323-5.515.145S2.446,20.184,6.264,18A90.888,90.888,0,0,1,19.239,12.19,90.965,90.965,0,0,1,32.877,8.174,21.719,21.719,0,0,1,36.8,7.715l.092,0A11.485,11.485,0,0,0,36.308,6.6a25.177,25.177,0,0,0-3.642.469,92.134,92.134,0,0,0-13.817,4.065A92.153,92.153,0,0,0,5.705,17.023a19.011,19.011,0,0,0-3.932,2.762c.153-1.664,1.264-3.563,3.259-5.511A35.666,35.666,0,0,1,17.337,7.041,38.035,38.035,0,0,1,30.073,4.478a14.539,14.539,0,0,1,5.375.87A12.011,12.011,0,0,0,33.913,3.74C29.677,2.834,23.55,3.547,16.95,5.985Z" fill="#f1bb6b"/>
    <ellipse cx="2.093" cy="21.656" rx="1.4" ry="1.751" transform="translate(-8.53 2.668) rotate(-23.704)" fill="#7a8e9b"/>
    <path d="M48,24.359c-.232,6.874-7.822,12.2-18.637,11.83S11.337,30,11.569,23.126c-.3,8.854,6.859,16.28,17.674,16.646S47.7,33.211,48,24.359Z" fill="#e49a61"/>
    <path d="M29.55,30.723c7.176.243,12.193-2.716,12.324-6.571L17.7,23.335C17.568,27.19,22.373,30.481,29.55,30.723Z" fill="#fddc85"/>
    <path d="M29.365,36.189c10.815.365,18.4-4.956,18.637-11.83l-6.127-.207c-.13,3.855-5.147,6.814-12.324,6.571S17.569,27.19,17.7,23.334l-6.128-.208C11.338,30,18.55,35.824,29.365,36.189Z" fill="#ffbd66"/>
  </g>
</svg>
