<svg xmlns="http://www.w3.org/2000/svg" width="128" height="128" viewBox="0 0 128 128">
  <title>SALAMANDER </title>
  <g>
    <g>
      <path d="M111.37,47.03C96.52,29.02,82.61,24.48,70.64,24.23c-12.31-.25-28.5,6.9-36.04,13.29S20.08,55.39,17.3,58.03C6.72,64.53,5.15,76.68,7.37,79.8c3.04,4.27,12.3,7.86,24.56-6.64,3.75-4.43,10.89-9.33,19.28-13.56,1.03-.53,2.08-1.04,3.15-1.54.12.22.22.45.32.67v.01a10.609,10.609,0,0,1,1.06,5.14A31.391,31.391,0,0,1,54.274,70.1,1.738,1.738,0,0,0,53.69,70h-.016c-3.639.033-6.8,2.038-7.689,4.876a1.75,1.75,0,1,0,3.341,1.045,4.048,4.048,0,0,1,3.023-2.248,11.414,11.414,0,0,0-1.873,3.986,1.75,1.75,0,0,0,1.42,2.027,1.875,1.875,0,0,0,.3.026,1.751,1.751,0,0,0,1.722-1.447,8.212,8.212,0,0,1,1.405-2.711,8.621,8.621,0,0,1,.969,3.929,1.749,1.749,0,0,0,1.747,1.677c.024,0,.049,0,.073,0a1.75,1.75,0,0,0,1.677-1.82c-.03-.723-.256-4.247-1.831-6.095,3.019-2.733,3.757-8.869,3.757-8.869a28.5,28.5,0,0,0-.22-6.45c-.13-.91-.31-1.82-.53-2.73,11.5-4.59,23.71-7.46,32.17-6.31a20.447,20.447,0,0,1,3.12.66.487.487,0,0,1,.11.04h.01a13.82,13.82,0,0,0-1.9,7.7c.01.14.02.22.02.22a45.9,45.9,0,0,0-7.138,3.969,1.733,1.733,0,0,0-.364-.4c-2.261-1.773-5.989-2.146-6.407-2.182a1.75,1.75,0,0,0-.306,3.486,14.162,14.162,0,0,1,2.179.409,7.8,7.8,0,0,0-2.351.934,1.75,1.75,0,0,0,1.942,2.912,9.509,9.509,0,0,1,3.166-.788,8.719,8.719,0,0,1-1.64,2.61,1.75,1.75,0,0,0,2.506,2.444,13.161,13.161,0,0,0,2.776-4.813,1.52,1.52,0,0,0,.036-.188c5.25.337,13.919-4.341,18.491-8.86,7.69,9.17,9.2,23.79,1.05,33.25-6.34,7.38-22.32,8.96-22.32,8.96a4.256,4.256,0,0,0,.87,2.54,3.989,3.989,0,0,0,2.22,1.46c8.85,2.16,19.56-2.62,24.13-7.73C122.85,84.87,126.23,65.05,111.37,47.03Z" fill="#bae543"/>
      <circle cx="10.917" cy="64.002" r="3" fill="#a9ce24"/>
      <circle cx="20.417" cy="70.752" r="3" fill="#a9ce24"/>
    </g>
    <g>
      <path d="M46.865,38.482a1.754,1.754,0,0,0,.794-.191c1.685-.86,3.453-1.665,5.257-2.393a1.75,1.75,0,1,0-1.311-3.245c-1.9.766-3.76,1.614-5.536,2.519a1.751,1.751,0,0,0,.8,3.31Z" fill="#072130"/>
      <path d="M71.068,49.86q-1.029.3-2.064.619a1.75,1.75,0,1,0,1.039,3.342q1-.311,2-.6a1.75,1.75,0,0,0-.971-3.362Z" fill="#072130"/>
      <path d="M15.667,70.752A4.75,4.75,0,1,0,20.417,66,4.756,4.756,0,0,0,15.667,70.752Zm6,0a1.25,1.25,0,1,1-1.25-1.25A1.251,1.251,0,0,1,21.667,70.752Z" fill="#072130"/>
      <path d="M63.492,52.351q-1.59.585-3.17,1.215A1.749,1.749,0,0,0,59.27,55.6a27.409,27.409,0,0,1,.713,8.56c-.2,1.626-1.2,6.12-3.306,7.886l-.935-.827a34.207,34.207,0,0,0,1.743-7.2,12.759,12.759,0,0,0-1.561-6.745,18.2,18.2,0,0,0-4.219-5.5,1.75,1.75,0,0,0-2.366,2.578A15.522,15.522,0,0,1,51.892,57.3C42.3,61.98,34.6,67.3,30.594,72.03c-7.046,8.333-12.489,9.907-15.838,9.779A7.614,7.614,0,0,1,8.8,78.785c-.8-1.124-.955-5.412,1.235-10.123a4.713,4.713,0,0,0,5.087-6.83,22.257,22.257,0,0,1,3.1-2.313,1.784,1.784,0,0,0,.286-.22,52.811,52.811,0,0,0,4.524-5.676c1.528-2.064,3.259-4.4,5.153-6.749a1.75,1.75,0,0,0-2.723-2.2c-1.94,2.4-3.695,4.775-5.243,6.866a60.661,60.661,0,0,1-4,5.105,25.633,25.633,0,0,0-3.762,2.883,4.7,4.7,0,0,0-1.534-.276,4.734,4.734,0,0,0-3.859,7.5C4.2,72.567,4.2,78.357,5.944,80.814a11.194,11.194,0,0,0,8.666,4.492c.172.007.347.01.526.01,4.141,0,10.5-2,18.131-11.026,3.65-4.318,11.128-9.437,20.2-13.862a8.152,8.152,0,0,1,.537,3.232,30.167,30.167,0,0,1-1.578,6.432c-3.1.421-5.657,2.273-6.442,4.78a1.75,1.75,0,1,0,3.341,1.045,4.048,4.048,0,0,1,3.023-2.248,11.414,11.414,0,0,0-1.873,3.986,1.75,1.75,0,0,0,1.42,2.027,1.875,1.875,0,0,0,.3.026,1.751,1.751,0,0,0,1.722-1.447,8.212,8.212,0,0,1,1.405-2.711,8.621,8.621,0,0,1,.969,3.929,1.749,1.749,0,0,0,1.747,1.677c.024,0,.049,0,.073,0a1.75,1.75,0,0,0,1.677-1.82,14.585,14.585,0,0,0-.926-4.559c3.618-2.981,4.493-9.388,4.6-10.264A30.739,30.739,0,0,0,63,56.277q.849-.327,1.7-.641a1.75,1.75,0,1,0-1.208-3.285Zm-52.575,10.4A1.25,1.25,0,1,1,9.667,64,1.251,1.251,0,0,1,10.917,62.752Z" fill="#072130"/>
      <path d="M112.72,45.917C99.985,30.471,86.232,22.805,70.676,22.48c-12.671-.25-29.194,6.913-37.206,13.7-.929.786-1.9,1.687-2.874,2.676a1.75,1.75,0,0,0,2.488,2.461c.906-.916,1.8-1.745,2.647-2.466,7.561-6.407,23.416-13.1,34.873-12.876,14.676.307,27.2,7.35,39.416,22.164,14.279,17.317,11.054,36.087,2.015,46.2-3.9,4.359-13.858,9.29-22.412,7.2a2.254,2.254,0,0,1-1.247-.827l0,0c4.693-.717,16.026-3.041,21.392-9.286,9.119-10.585,6.635-26.371-1.035-35.518a1.748,1.748,0,0,0-2.1-.451,1.727,1.727,0,0,0-.512.373c-4.587,4.508-13.39,9.01-17.635,8.283L88.075,63.1a45.538,45.538,0,0,1,7.069-3.968,1.749,1.749,0,0,0,1.09-1.868,12.018,12.018,0,0,1,1.661-6.8,14.946,14.946,0,0,1,2.74-3.428,1.75,1.75,0,0,0-2.388-2.558,18.532,18.532,0,0,0-2.666,3.1c-4.783-1.134-11.056-.876-18.714.807a1.75,1.75,0,1,0,.751,3.418c6.517-1.431,12.052-1.778,16.25-1.018a15.917,15.917,0,0,0-1.161,5.594,57.184,57.184,0,0,0-6.829,3.981,15.612,15.612,0,0,0-5.287-1.47,1.75,1.75,0,0,0-.306,3.486,14.162,14.162,0,0,1,2.179.409,7.8,7.8,0,0,0-2.351.934,1.75,1.75,0,0,0,1.942,2.912,9.509,9.509,0,0,1,3.166-.788,8.719,8.719,0,0,1-1.64,2.61,1.75,1.75,0,0,0,2.506,2.444,11.933,11.933,0,0,0,2.185-3.3c5.519.654,13.834-3.65,18.9-7.983,5.832,8.157,7.388,20.891-.06,29.536C101.309,95.9,86.1,97.483,85.947,97.5a1.751,1.751,0,0,0-1.577,1.76,6.019,6.019,0,0,0,1.236,3.593A5.713,5.713,0,0,0,88.8,104.94a21.228,21.228,0,0,0,5.038.582c8.092,0,16.564-4.1,20.812-8.846C124.648,85.484,128.313,64.826,112.72,45.917Z" fill="#072130"/>
    </g>
  </g>
</svg>
