<?xml version="1.0" encoding="utf-8"?>
<!-- Generator: Adobe Illustrator 22.0.0, SVG Export Plug-In . SVG Version: 6.00 Build 0)  -->
<svg version="1.1" id="Layer_1" xmlns="http://www.w3.org/2000/svg" xmlns:xlink="http://www.w3.org/1999/xlink" x="0px" y="0px"
	 viewBox="0 0 500 500" style="enable-background:new 0 0 500 500;" xml:space="preserve">
<style type="text/css">
	.st0{fill:#FDDF7F;}
	.st1{fill:#ECF4F7;}
	.st2{fill:#83E1E5;}
	.st3{fill:#1C1D21;}
	.st4{fill:#AAB1BA;}
</style>
<g>
	<path class="st0" d="M113.42,196.274C127.704,134.064,183.518,87.524,250,87.524s122.296,46.54,136.58,108.751h23.114
		C395.072,121.416,329.139,64.919,250,64.919S104.928,121.416,90.306,196.274H113.42z"/>
</g>
<g>
	<path class="st2" d="M160.435,196.274c12.984-36.964,48.219-63.543,89.565-63.543s76.581,26.58,89.565,63.543h23.696
		C349.5,146.657,303.939,110.127,250,110.127s-99.5,36.53-113.261,86.147H160.435z"/>
</g>
<g>
	<path class="st1" d="M136.739,196.274C150.5,146.657,196.061,110.127,250,110.127s99.5,36.53,113.261,86.147h23.319
		C372.296,134.064,316.482,87.524,250,87.524s-122.296,46.54-136.58,108.751H136.739z"/>
</g>
<g>
	<path class="st1" d="M125.565,345.722c-2.76-2.76-5.148-5.751-7.184-8.903l-29.022,29.022c-0.066-0.069-0.12-0.145-0.188-0.213
		c-5.68-5.68-14.89-5.68-20.57,0c-5.68,5.68-5.68,14.889,0,20.569c3.38,3.38,8.006,4.732,12.397,4.09
		c-0.641,4.391,0.711,9.018,4.091,12.397c5.68,5.68,14.89,5.681,20.57,0c5.68-5.68,5.68-14.89,0-20.57
		c-0.068-0.068-0.144-0.122-0.212-0.188l29.022-29.022C131.316,350.871,128.326,348.483,125.565,345.722L125.565,345.722z"/>
</g>
<g>
	<path class="st0" d="M193.057,327.274c7.296,0,13.991,2.521,19.308,6.712c0-0.001,0-0.001,0-0.001
		c-0.422-2.273-0.668-4.609-0.668-7.005c0-20.945,16.832-37.949,37.707-38.245c5.382-18.283,0.862-38.862-13.563-53.288l0,0
		c-21.012-21.012-55.078-21.012-76.09,0l-34.185,34.185c-21.012,21.012-21.012,55.078,0,76.09v0
		c10.088,10.087,23.184,15.317,36.4,15.72c-0.09-0.965-0.15-1.938-0.15-2.926C161.815,341.262,175.802,327.274,193.057,327.274z"/>
</g>
<g>
	<path class="st0" d="M437.093,372.613c5.398-6.583,8.348-14.833,8.348-23.347v-26.164c0-10.239-4.263-20.016-11.766-26.982
		c-11.896-11.047-29.624-12.999-43.639-4.805l-13.309,7.781l-13.309-7.781c-14.015-8.193-31.742-6.242-43.639,4.805
		c-7.503,6.967-11.766,16.743-11.766,26.982v4.198c16.758,0.565,30.173,14.319,30.173,31.215c0,6.66-2.09,12.828-5.642,17.898
		c0.034,0,0.066-0.002,0.1-0.002c17.017,0,30.847,13.608,31.224,30.535h45.07c0.018-0.022,0.037-0.042,0.055-0.063L437.093,372.613z
		"/>
</g>
<g>
	
		<ellipse transform="matrix(0.9379 -0.347 0.347 0.9379 -62.3666 155.5154)" class="st2" cx="403.076" cy="251.91" rx="28.096" ry="16.224"/>
</g>
<g>
	<path class="st1" d="M35.114,406.947c0,29.256,23.717,52.972,52.973,52.972h51.909c-18.268,1.276-32.694,16.488-32.694,35.081
		h285.397c0-18.593-14.426-33.805-32.694-35.081h51.909c29.256,0,52.973-23.716,52.973-52.972H35.114z"/>
</g>
<g>
	<path class="st2" d="M136.132,406.946H249.97c-0.013-0.194-0.028-0.388-0.036-0.584c0.008,0.195,0.022,0.389,0.036,0.584h113.898
		c-0.377-16.927-14.207-30.535-31.224-30.535c-0.034,0-0.067,0.002-0.1,0.002c3.551-5.07,5.642-11.238,5.642-17.898
		c0-17.255-13.988-31.242-31.242-31.242c-7.343,0-14.081,2.551-19.414,6.791c0.432-2.298,0.684-4.661,0.684-7.085
		c0-21.13-17.129-38.259-38.258-38.259c-21.13,0-38.258,17.129-38.258,38.259c0,2.396,0.246,4.732,0.668,7.005c0,0,0,0,0,0.001
		c-5.317-4.191-12.012-6.712-19.308-6.712c-17.255,0-31.242,13.988-31.242,31.242c0,6.66,2.09,12.828,5.641,17.898
		c-0.033,0-0.066-0.002-0.1-0.002C150.339,376.412,136.509,390.02,136.132,406.946z"/>
</g>
<path class="st3" d="M45.737,495c0,2.762-2.238,5-5,5h-5.623c-2.762,0-5-2.238-5-5s2.238-5,5-5h5.623
	C43.499,490,45.737,492.238,45.737,495z M464.886,490h-5.623c-2.762,0-5,2.238-5,5s2.238,5,5,5h5.623c2.762,0,5-2.238,5-5
	S467.647,490,464.886,490z M239.025,20.975H245v5.975c0,2.762,2.238,5,5,5s5-2.238,5-5v-5.975h5.975c2.762,0,5-2.238,5-5
	s-2.238-5-5-5H255V5c0-2.762-2.238-5-5-5s-5,2.238-5,5v5.975h-5.975c-2.762,0-5,2.238-5,5S236.264,20.975,239.025,20.975z
	 M394.17,103.959h5.975v5.975c0,2.762,2.238,5,5,5s5-2.238,5-5v-5.975h5.975c2.762,0,5-2.238,5-5s-2.238-5-5-5h-5.975v-5.975
	c0-2.762-2.238-5-5-5s-5,2.238-5,5v5.975h-5.975c-2.762,0-5,2.238-5,5S391.408,103.959,394.17,103.959z M83.881,103.959h5.975v5.975
	c0,2.762,2.238,5,5,5s5-2.238,5-5v-5.975h5.975c2.762,0,5-2.238,5-5s-2.238-5-5-5h-5.975v-5.975c0-2.762-2.238-5-5-5s-5,2.238-5,5
	v5.975h-5.975c-2.762,0-5,2.238-5,5S81.119,103.959,83.881,103.959z M328.431,373.574l-7.131,9.478
	c-1.66,2.206-1.218,5.341,0.989,7.001c0.9,0.678,1.955,1.005,3.002,1.005c1.518,0,3.017-0.688,3.999-1.994l5.672-7.538
	c8.151,0.713,15.472,5.152,19.896,12.199c0.949,1.513,2.576,2.342,4.239,2.342c0.908,0,1.828-0.248,2.654-0.767
	c2.338-1.469,3.044-4.555,1.575-6.894c-5.256-8.37-13.475-14.088-22.843-16.146c1.78-4.329,2.701-8.978,2.701-13.744
	c0-19.984-16.258-36.242-36.242-36.242c-4.877,0-9.529,0.975-13.781,2.729c-1.038-22.938-20.02-41.281-43.208-41.281
	c-23.177,0-42.151,18.324-43.207,41.245c-4.227-1.731-8.848-2.693-13.691-2.693c-19.984,0-36.242,16.258-36.242,36.242
	c0,4.767,0.921,9.415,2.701,13.744c-9.368,2.059-17.587,7.776-22.843,16.146c-1.469,2.339-0.763,5.425,1.575,6.894
	c0.826,0.519,1.746,0.767,2.654,0.767c1.663,0,3.29-0.83,4.239-2.342c4.421-7.042,11.734-11.479,19.806-12.198l5.671,7.537
	c0.982,1.307,2.481,1.994,3.999,1.994c1.046,0,2.102-0.327,3.002-1.005c2.207-1.66,2.649-4.795,0.989-7.001l-6.693-8.895
	c-0.106-0.21-0.227-0.415-0.365-0.611c-3.1-4.426-4.737-9.623-4.737-15.03c0-14.47,11.772-26.242,26.242-26.242
	c6.093,0,11.703,2.093,16.162,5.591c0.019,0.015,0.032,0.033,0.051,0.048c1.571,1.239,2.976,2.63,4.203,4.142
	c0.061,0.076,0.12,0.153,0.18,0.229c0.214,0.27,0.421,0.543,0.624,0.819c0.108,0.148,0.213,0.297,0.318,0.447
	c0.145,0.207,0.285,0.416,0.423,0.627c0.127,0.194,0.254,0.388,0.376,0.585c0.102,0.165,0.199,0.332,0.297,0.498
	c0.138,0.235,0.278,0.47,0.409,0.71c0.057,0.104,0.109,0.21,0.165,0.314c0.506,0.956,0.955,1.946,1.341,2.967
	c0.038,0.1,0.079,0.198,0.115,0.298c0.102,0.28,0.195,0.563,0.288,0.847c0.05,0.156,0.103,0.311,0.15,0.467
	c0.08,0.262,0.153,0.526,0.225,0.791c0.05,0.186,0.1,0.373,0.146,0.56c0.062,0.25,0.12,0.5,0.174,0.752
	c0.045,0.21,0.087,0.422,0.127,0.633c0.045,0.238,0.089,0.476,0.128,0.716c0.038,0.234,0.069,0.47,0.101,0.705
	c0.03,0.225,0.062,0.45,0.086,0.676c0.028,0.263,0.047,0.527,0.067,0.791c0.016,0.206,0.036,0.41,0.047,0.617
	c0.019,0.355,0.026,0.713,0.03,1.071c0.001,0.113,0.009,0.225,0.009,0.338c0,3.802-0.826,7.494-2.383,10.891
	c-0.658,1.436-1.433,2.824-2.353,4.138c-0.006,0.009-0.01,0.018-0.016,0.027l-7.133,9.48c-1.66,2.206-1.218,5.341,0.989,7.001
	c0.9,0.678,1.955,1.005,3.002,1.005c1.518,0,3.017-0.688,3.999-1.994l5.678-7.546c5.43,0.486,10.6,2.663,14.76,6.254
	c2.091,1.804,5.247,1.573,7.053-0.518c1.804-2.091,1.572-5.248-0.518-7.053c-4.556-3.933-9.989-6.64-15.783-7.928
	c0.083-0.201,0.154-0.407,0.233-0.609c0.067-0.171,0.133-0.341,0.197-0.513c0.273-0.733,0.53-1.472,0.755-2.221
	c0.005-0.019,0.01-0.038,0.015-0.056c0.218-0.731,0.405-1.471,0.576-2.215c0.042-0.179,0.082-0.359,0.12-0.539
	c0.328-1.535,0.556-3.095,0.683-4.673c0.015-0.18,0.028-0.361,0.04-0.542c0.052-0.792,0.087-1.588,0.087-2.389
	c0-0.272-0.016-0.542-0.021-0.813c-0.008-0.358-0.01-0.719-0.029-1.075c-0.018-0.342-0.051-0.681-0.078-1.021
	c-0.023-0.284-0.039-0.569-0.068-0.852c-0.039-0.382-0.094-0.761-0.145-1.141c-0.032-0.232-0.058-0.466-0.093-0.696
	c-0.064-0.416-0.144-0.828-0.222-1.24c-0.036-0.186-0.066-0.373-0.105-0.557c-0.092-0.445-0.198-0.886-0.307-1.327
	c-0.035-0.143-0.067-0.286-0.104-0.428c-0.122-0.47-0.257-0.936-0.398-1.399c-0.032-0.104-0.062-0.209-0.094-0.313
	c-0.154-0.489-0.319-0.974-0.494-1.456c-0.025-0.07-0.05-0.142-0.076-0.212c-0.186-0.504-0.383-1.002-0.591-1.497
	c-0.018-0.042-0.035-0.084-0.053-0.125c-0.218-0.513-0.447-1.021-0.689-1.522c-0.009-0.019-0.018-0.037-0.027-0.055
	c-1.356-2.807-3.079-5.436-5.138-7.828c-0.248-0.288-0.493-0.578-0.749-0.858c-0.077-0.083-0.158-0.164-0.236-0.248
	c-0.366-0.393-0.739-0.779-1.122-1.156c-0.037-0.036-0.075-0.07-0.111-0.106c-0.437-0.426-0.885-0.84-1.342-1.244
	c-0.002-0.001-0.003-0.003-0.005-0.005c-0.204-1.488-0.304-2.928-0.304-4.361c0-18.339,14.919-33.259,33.258-33.259
	s33.259,14.92,33.259,33.259c0,1.462-0.104,2.93-0.316,4.448c-0.016,0.014-0.03,0.029-0.046,0.043
	c-0.406,0.362-0.804,0.735-1.193,1.115c-0.072,0.071-0.148,0.139-0.22,0.209c-0.336,0.334-0.663,0.678-0.987,1.024
	c-1.703,1.819-3.199,3.792-4.478,5.89c-0.008,0.013-0.017,0.026-0.024,0.039c-0.291,0.479-0.57,0.964-0.838,1.456
	c-0.015,0.028-0.031,0.056-0.046,0.084c-0.26,0.48-0.509,0.966-0.748,1.458c-0.022,0.046-0.045,0.093-0.067,0.139
	c-0.229,0.477-0.447,0.959-0.654,1.445c-0.03,0.071-0.06,0.143-0.09,0.214c-0.195,0.467-0.383,0.938-0.558,1.414
	c-0.039,0.103-0.074,0.207-0.111,0.311c-0.162,0.45-0.318,0.903-0.461,1.361c-0.045,0.141-0.085,0.284-0.128,0.426
	c-0.129,0.428-0.254,0.856-0.367,1.289c-0.049,0.187-0.091,0.375-0.137,0.563c-0.097,0.397-0.193,0.793-0.276,1.194
	c-0.05,0.239-0.091,0.482-0.136,0.724c-0.066,0.357-0.136,0.714-0.192,1.075c-0.047,0.301-0.082,0.605-0.121,0.908
	c-0.04,0.31-0.086,0.619-0.118,0.93c-0.04,0.382-0.064,0.769-0.092,1.155c-0.017,0.24-0.042,0.478-0.055,0.719
	c-0.033,0.63-0.05,1.264-0.05,1.902c0,0.792,0.035,1.579,0.085,2.363c0.013,0.198,0.027,0.395,0.043,0.592
	c0.062,0.768,0.14,1.532,0.25,2.291c0.002,0.015,0.003,0.03,0.005,0.045c0.113,0.773,0.26,1.539,0.422,2.3
	c0.041,0.189,0.083,0.377,0.125,0.565c0.168,0.73,0.352,1.455,0.565,2.172c0.009,0.031,0.016,0.062,0.025,0.093
	c0.223,0.741,0.477,1.472,0.747,2.198c0.068,0.184,0.139,0.367,0.211,0.551c0.077,0.195,0.146,0.394,0.226,0.588
	c-5.795,1.288-11.228,3.995-15.784,7.928c-2.09,1.805-2.321,4.962-0.518,7.053c0.989,1.146,2.384,1.732,3.787,1.732
	c1.157,0,2.32-0.399,3.266-1.215c4.138-3.572,9.276-5.746,14.674-6.247l5.672,7.539c0.982,1.307,2.481,1.994,3.999,1.994
	c1.046,0,2.102-0.327,3.002-1.005c2.207-1.66,2.649-4.795,0.989-7.001l-6.691-8.893c-0.107-0.211-0.228-0.417-0.366-0.614
	c-3.099-4.423-4.736-9.62-4.736-15.029c0-0.478,0.015-0.953,0.04-1.427c0.009-0.16,0.025-0.318,0.037-0.478
	c0.022-0.311,0.045-0.622,0.079-0.931c0.021-0.194,0.048-0.385,0.074-0.578c0.035-0.269,0.071-0.537,0.114-0.804
	c0.035-0.213,0.074-0.424,0.114-0.635c0.045-0.24,0.092-0.48,0.144-0.718c0.049-0.227,0.102-0.452,0.157-0.676
	c0.053-0.215,0.109-0.429,0.167-0.643c0.065-0.24,0.132-0.479,0.204-0.715c0.057-0.188,0.119-0.373,0.179-0.559
	c0.084-0.255,0.167-0.511,0.258-0.762c0.053-0.147,0.112-0.292,0.168-0.439c0.385-1.005,0.829-1.98,1.33-2.922
	c0.042-0.078,0.08-0.158,0.122-0.236c0.136-0.249,0.28-0.492,0.424-0.736c0.09-0.152,0.178-0.306,0.271-0.457
	c0.129-0.21,0.265-0.417,0.4-0.624c0.124-0.188,0.248-0.375,0.376-0.561c0.119-0.172,0.241-0.342,0.364-0.512
	c0.169-0.231,0.342-0.461,0.52-0.688c0.094-0.12,0.187-0.241,0.282-0.359c0.269-0.331,0.543-0.658,0.829-0.978
	c0.011-0.012,0.021-0.024,0.032-0.037c0.987-1.099,2.075-2.125,3.256-3.065c0.011-0.008,0.019-0.019,0.029-0.028
	c4.477-3.55,10.129-5.678,16.273-5.678c14.47,0,26.242,11.772,26.242,26.242c0,5.407-1.638,10.604-4.737,15.03
	C328.442,373.555,328.438,373.565,328.431,373.574z M432.616,238.31c1.379,1.142,2.042,2.934,1.738,4.698
	c-2.261,13.147-11.424,24.186-23.913,28.807c-4.195,1.552-8.577,2.311-12.936,2.311c-5.431,0-10.824-1.179-15.779-3.464v19.72
	l5.785-3.382c16.035-9.374,35.953-7.18,49.564,5.458c8.493,7.887,13.364,19.057,13.364,30.646v26.163
	c0,9.643-3.367,19.06-9.481,26.517l-13.508,16.474c-0.988,1.206-2.423,1.83-3.869,1.83c-1.115,0-2.237-0.371-3.167-1.134
	c-2.136-1.751-2.447-4.901-0.696-7.036l13.508-16.474c4.651-5.674,7.214-12.84,7.214-20.177v-26.163
	c0-8.818-3.706-17.317-10.169-23.318c-10.354-9.615-25.512-11.286-37.713-4.153l-13.309,7.78c-0.165,0.096-0.335,0.177-0.508,0.253
	c-0.029,0.013-0.056,0.03-0.085,0.043c-0.267,0.111-0.542,0.191-0.819,0.254c-0.073,0.017-0.146,0.031-0.22,0.044
	c-0.59,0.107-1.192,0.107-1.782,0c-0.074-0.013-0.147-0.027-0.22-0.044c-0.278-0.063-0.553-0.143-0.819-0.254
	c-0.03-0.013-0.056-0.03-0.085-0.043c-0.172-0.076-0.343-0.157-0.508-0.253l-13.31-7.78c-12.2-7.133-27.357-5.462-37.713,4.153
	c-3.136,2.912-5.616,6.368-7.371,10.271c-1.133,2.519-4.092,3.64-6.611,2.511c-2.519-1.133-3.642-4.092-2.51-6.61
	c2.307-5.131,5.566-9.673,9.688-13.5c13.61-12.641,33.529-14.834,49.564-5.458l5.786,3.382v-58.254c0-2.762,2.238-5,5-5s5,2.238,5,5
	v9.071c3.858-4.022,8.611-7.205,13.986-9.193C408.201,227.385,422.344,229.8,432.616,238.31z M399.183,241.384
	c-8.214,3.038-14.466,9.867-16.86,18.204c7.243,4.771,16.436,5.887,24.648,2.848c8.215-3.039,14.466-9.868,16.86-18.205
	C416.586,239.459,407.396,238.344,399.183,241.384z M186.177,251.547l-2.141,2.141c-1.953,1.952-1.953,5.118,0,7.07
	c0.976,0.977,2.256,1.465,3.535,1.465s2.56-0.488,3.535-1.465l2.141-2.141c1.953-1.952,1.953-5.118,0-7.07
	C191.296,249.594,188.128,249.594,186.177,251.547z M216.119,285.771l2.141-2.141c1.953-1.952,1.953-5.118,0-7.07
	c-1.951-1.953-5.119-1.953-7.07,0l-2.141,2.141c-1.953,1.952-1.953,5.118,0,7.07c0.976,0.977,2.256,1.465,3.535,1.465
	S215.144,286.747,216.119,285.771z M170.66,281.203l2.141-2.141c1.953-1.952,1.953-5.118,0-7.07c-1.951-1.953-5.119-1.953-7.07,0
	l-2.141,2.141c-1.953,1.952-1.953,5.118,0,7.07c0.976,0.977,2.256,1.465,3.535,1.465S169.685,282.18,170.66,281.203z
	 M188.603,299.146c-1.953,1.952-1.953,5.118,0,7.07c0.976,0.977,2.256,1.465,3.535,1.465s2.56-0.488,3.535-1.465l2.141-2.141
	c1.953-1.952,1.953-5.118,0-7.07c-1.951-1.953-5.119-1.953-7.07,0L188.603,299.146z M152.355,292.438
	c-1.951-1.953-5.119-1.953-7.07,0l-2.141,2.141c-1.953,1.952-1.953,5.118,0,7.07c0.976,0.977,2.256,1.465,3.535,1.465
	s2.56-0.488,3.535-1.465l2.141-2.141C154.309,297.557,154.309,294.391,152.355,292.438z M411.913,464.919h-27.821
	c7.166,6.345,12.038,15.193,13.283,25.081h42.364c2.762,0,5,2.238,5,5s-2.238,5-5,5h-47.039H107.301H60.262c-2.762,0-5-2.238-5-5
	s2.238-5,5-5h42.364c1.245-9.888,6.117-18.736,13.283-25.081H88.087c-31.966,0-57.973-26.007-57.973-57.973c0-2.762,2.238-5,5-5
	h43.209c-1.171-2.083-1.954-4.35-2.29-6.718c-4.112-0.609-7.986-2.514-10.968-5.495c-3.69-3.691-5.724-8.599-5.724-13.819
	c-0.001-5.221,2.032-10.129,5.725-13.82c3.691-3.691,8.599-5.725,13.819-5.725c3.61,0,7.071,0.972,10.083,2.792l23.118-23.117
	c-4.746-8.59-7.28-18.281-7.28-28.367c0-15.707,6.116-30.474,17.224-41.58l34.185-34.185c22.928-22.928,60.232-22.928,83.16,0
	c9.376,9.375,15.181,21.273,16.785,34.406c0.335,2.741-1.615,5.234-4.356,5.569c-2.749,0.344-5.234-1.615-5.569-4.356
	c-1.332-10.895-6.148-20.767-13.93-28.549c-19.029-19.027-49.99-19.027-69.02,0l-34.185,34.185
	c-16.552,16.553-18.698,42.131-6.454,61.034c0.432,0.666,0.88,1.32,1.343,1.964c0.027,0.037,0.051,0.075,0.078,0.112
	c1.015,1.401,2.101,2.748,3.251,4.03c0,0,0,0,0,0c0.578,0.644,1.172,1.271,1.781,1.88c2.438,2.438,5.157,4.631,8.08,6.519
	c0.003,0.002,0.007,0.005,0.01,0.007c2.581,1.664,5.313,3.088,8.19,4.243c2.563,1.029,3.807,3.94,2.778,6.503
	c-0.784,1.952-2.66,3.139-4.643,3.139c-0.62,0-1.25-0.115-1.86-0.36c-2.207-0.886-4.335-1.913-6.4-3.048l-23.129,23.13
	c1.819,3.012,2.792,6.473,2.792,10.082c0,3.4-0.876,6.66-2.497,9.545h352.464c2.762,0,5,2.238,5,5
	C469.886,438.912,443.879,464.919,411.913,464.919z M80.275,385.342c0.241-0.035,0.482-0.053,0.723-0.053
	c1.316,0,2.591,0.52,3.535,1.464c1.117,1.116,1.641,2.695,1.412,4.258c-0.441,3.029,0.535,5.996,2.679,8.141
	c3.723,3.721,9.777,3.721,13.498,0c1.804-1.804,2.797-4.2,2.797-6.75c0-2.503-0.957-4.858-2.697-6.649
	c-0.081-0.07-0.158-0.14-0.232-0.211c-0.972-0.931-1.528-2.213-1.543-3.558s0.514-2.639,1.465-3.59l24.873-24.874
	c-0.006-0.004-0.011-0.009-0.017-0.014c-0.746-0.602-1.478-1.224-2.197-1.864c-0.084-0.075-0.173-0.146-0.257-0.221
	c-0.777-0.699-1.54-1.418-2.284-2.163c-0.738-0.738-1.451-1.495-2.145-2.265c-0.098-0.109-0.19-0.223-0.287-0.333
	c-0.618-0.696-1.219-1.402-1.801-2.123c-0.009-0.012-0.019-0.022-0.028-0.034l-24.874,24.873c-0.95,0.951-2.222,1.476-3.589,1.465
	c-1.345-0.015-2.627-0.57-3.558-1.542c-0.073-0.077-0.145-0.155-0.213-0.234c-3.728-3.622-9.708-3.591-13.398,0.099
	c-1.803,1.804-2.795,4.2-2.795,6.75c0,2.549,0.992,4.946,2.795,6.749C74.281,384.807,77.241,385.779,80.275,385.342z
	 M411.913,454.919c24.764,0,45.205-18.862,47.714-42.973H40.373c2.509,24.11,22.95,42.973,47.714,42.973h51.908h148.218
	c2.762,0,5,2.238,5,5s-2.238,5-5,5H140.241c-13.982,1.025-25.25,11.629-27.522,25.081h274.563
	c-2.271-13.452-13.54-24.056-27.522-25.081h-29.264c-2.762,0-5-2.238-5-5s2.238-5,5-5h29.51H411.913z M311.249,454.919h-4.934
	c-2.762,0-5,2.238-5,5s2.238,5,5,5h4.934c2.762,0,5-2.238,5-5S314.011,454.919,311.249,454.919z M89.347,201.182
	c2.705,0.529,5.337-1.239,5.866-3.948C109.622,123.462,174.72,69.919,250,69.919s140.378,53.543,154.787,127.314
	c0.466,2.386,2.558,4.042,4.901,4.042c0.318,0,0.641-0.03,0.965-0.094c2.71-0.529,4.478-3.155,3.948-5.866
	C399.277,116.861,330.052,59.919,250,59.919S100.723,116.861,85.398,195.315C84.869,198.026,86.637,200.652,89.347,201.182z
	 M158.777,200.992c2.61,0.914,5.46-0.456,6.375-3.061c12.648-36.008,46.746-60.2,84.848-60.2s72.199,24.192,84.848,60.2
	c0.723,2.057,2.654,3.344,4.718,3.344c0.55,0,1.109-0.091,1.657-0.283c2.605-0.916,3.976-3.77,3.061-6.375
	C330.229,154.61,292.34,127.731,250,127.731s-80.229,26.879-94.283,66.886C154.802,197.223,156.172,200.076,158.777,200.992z
	 M250,92.523c62.364,0,117.756,44.104,131.707,104.87c0.531,2.314,2.59,3.882,4.868,3.882c0.371,0,0.747-0.041,1.124-0.128
	c2.691-0.618,4.372-3.301,3.754-5.992c-7.225-31.47-25.142-60.05-50.448-80.477c-25.69-20.735-58.01-32.155-91.005-32.155
	s-65.314,11.42-91.005,32.155c-25.307,20.427-43.224,49.007-50.448,80.477c-0.618,2.691,1.063,5.374,3.754,5.992
	c2.692,0.621,5.374-1.062,5.992-3.754C132.244,136.628,187.636,92.523,250,92.523z M135.403,201.093
	c2.662,0.737,5.416-0.821,6.154-3.482c13.469-48.564,58.062-82.482,108.442-82.482s94.974,33.918,108.442,82.482
	c0.614,2.214,2.625,3.665,4.815,3.665c0.442,0,0.893-0.059,1.339-0.183c2.661-0.738,4.22-3.493,3.482-6.154
	C353.413,142.06,304.857,105.128,250,105.128s-103.413,36.932-118.079,89.811C131.184,197.6,132.742,200.354,135.403,201.093z"/>
</svg>
